<svg version="1.1" xmlns="http://www.w3.org/2000/svg" viewBox="-5353.61068497213 -1099.7760498046875 11978.890671544395 2487.296044921875"><desc>Created with Snap</desc><defs></defs><g><g><g transform="matrix(1.024,0,0,-1.024,0,0)"><path d="M104 0L104 723L533 723L533 630L201 630L201 399L492 399L492 307L201 307L201 0L104 0ZM842 -10Q784 -10 736 15Q689 40 661 88Q634 137 634 207Q634 276 663 326Q692 377 740 404Q789 431 847 431Q905 431 945 404Q985 378 1006 342L1000 326L1009 414L1095 414L1095 0L1002 0L1002 108L1012 84Q1008 74 994 58Q981 43 958 27Q936 11 907 0Q878 -10 842 -10ZM867 67Q902 67 930 80Q958 93 976 116Q995 140 1002 173L1002 254Q994 284 974 306Q954 329 926 341Q898 354 864 354Q827 354 796 336Q765 318 746 286Q728 254 728 211Q728 171 747 138Q766 105 798 86Q830 67 867 67ZM1256 414L1339 414L1347 321L1343 329Q1366 376 1408 403Q1451 430 1506 430Q1541 430 1568 419Q1595 408 1612 387Q1630 367 1635 337L1630 334Q1654 379 1696 404Q1739 430 1786 430Q1847 430 1882 395Q1918 361 1919 306L1919 0L1826 0L1826 273Q1825 305 1810 326Q1796 348 1760 350Q1724 350 1695 328Q1667 306 1651 271Q1635 237 1634 197L1634 0L1541 0L1541 273Q1540 305 1524 326Q1509 348 1473 350Q1436 350 1408 328Q1380 306 1364 271Q1349 236 1349 196L1349 0L1256 0L1256 414ZM2045 211Q2045 273 2074 323Q2104 373 2156 402Q2208 431 2274 431Q2342 431 2393 402Q2444 373 2472 323Q2500 273 2500 211Q2500 149 2472 98Q2444 48 2392 19Q2341 -10 2273 -10Q2207 -10 2155 17Q2104 45 2074 94Q2045 144 2045 211ZM2138 210Q2138 170 2156 137Q2174 105 2204 86Q2235 67 2272 67Q2311 67 2341 86Q2372 105 2389 137Q2406 170 2406 210Q2406 250 2389 282Q2372 315 2341 334Q2311 354 2272 354Q2234 354 2203 334Q2173 314 2155 281Q2138 249 2138 210ZM2757 -16Q2701 -16 2664 18Q2628 53 2626 108L2626 414L2719 414L2719 141Q2721 107 2738 86Q2756 65 2794 64Q2829 64 2856 84Q2884 105 2901 140Q2918 176 2918 221L2918 414L3011 414L3011 0L2926 0L2918 102L2923 84Q2911 55 2886 32Q2862 10 2829 -3Q2796 -16 2757 -16ZM3288 -8Q3244 -8 3202 7Q3161 23 3134 54L3173 108Q3199 83 3226 70Q3254 58 3281 58Q3301 58 3318 63Q3335 68 3345 79Q3356 91 3356 111Q3356 133 3341 146Q3327 159 3304 167Q3282 175 3257 182Q3206 199 3179 229Q3152 259 3152 302Q3152 335 3168 363Q3185 392 3217 410Q3250 428 3298 428Q3341 428 3375 417Q3409 407 3439 383L3402 325Q3384 344 3359 353Q3334 362 3314 363Q3297 364 3281 358Q3266 352 3256 341Q3246 330 3246 315Q3246 294 3260 281Q3274 268 3296 260Q3319 253 3341 245Q3372 236 3396 221Q3420 206 3434 184Q3449 162 3449 129Q3449 92 3431 60Q3414 29 3378 10Q3343 -8 3288 -8ZM4484 354L4484 62Q4469 49 4442 36Q4415 24 4382 14Q4350 4 4315 -2Q4281 -8 4251 -8Q4164 -8 4094 19Q4025 46 3975 94Q3926 142 3899 207Q3873 272 3873 348Q3873 438 3902 509Q3932 581 3983 630Q4035 680 4102 705Q4169 731 4244 731Q4307 731 4361 716Q4415 701 4456 678L4423 589Q4403 601 4373 611Q4344 621 4313 627Q4282 634 4255 634Q4191 634 4139 614Q4087 595 4050 558Q4013 522 3993 470Q3973 419 3973 355Q3973 296 3993 247Q4013 198 4050 162Q4087 127 4138 107Q4190 88 4252 88Q4289 88 4325 95Q4361 103 4387 117L4387 261L4243 261L4243 354L4484 354ZM4646 0L4646 774L4739 774L4739 0L4646 0ZM5072 -10Q5014 -10 4966 15Q4919 40 4891 88Q4864 137 4864 207Q4864 276 4893 326Q4922 377 4970 404Q5019 431 5077 431Q5135 431 5175 404Q5215 378 5236 342L5230 326L5239 414L5325 414L5325 0L5232 0L5232 108L5242 84Q5238 74 5224 58Q5211 43 5188 27Q5166 11 5137 0Q5108 -10 5072 -10ZM5097 67Q5132 67 5160 80Q5188 93 5206 116Q5225 140 5232 173L5232 254Q5224 284 5204 306Q5184 329 5156 341Q5128 354 5094 354Q5057 354 5026 336Q4995 318 4976 286Q4958 254 4958 211Q4958 171 4977 138Q4996 105 5028 86Q5060 67 5097 67ZM5602 -8Q5558 -8 5516 7Q5475 23 5448 54L5487 108Q5513 83 5540 70Q5568 58 5595 58Q5615 58 5632 63Q5649 68 5659 79Q5670 91 5670 111Q5670 133 5655 146Q5641 159 5618 167Q5596 175 5571 182Q5520 199 5493 229Q5466 259 5466 302Q5466 335 5482 363Q5499 392 5531 410Q5564 428 5612 428Q5655 428 5689 417Q5723 407 5753 383L5716 325Q5698 344 5673 353Q5648 362 5628 363Q5611 364 5595 358Q5580 352 5570 341Q5560 330 5560 315Q5560 294 5574 281Q5588 268 5610 260Q5633 253 5655 245Q5686 236 5710 221Q5734 206 5748 184Q5763 162 5763 129Q5763 92 5745 60Q5728 29 5692 10Q5657 -8 5602 -8ZM6009 -8Q5965 -8 5923 7Q5882 23 5855 54L5894 108Q5920 83 5947 70Q5975 58 6002 58Q6022 58 6039 63Q6056 68 6066 79Q6077 91 6077 111Q6077 133 6062 146Q6048 159 6025 167Q6003 175 5978 182Q5927 199 5900 229Q5873 259 5873 302Q5873 335 5889 363Q5906 392 5938 410Q5971 428 6019 428Q6062 428 6096 417Q6130 407 6160 383L6123 325Q6105 344 6080 353Q6055 362 6035 363Q6018 364 6002 358Q5987 352 5977 341Q5967 330 5967 315Q5967 294 5981 281Q5995 268 6017 260Q6040 253 6062 245Q6093 236 6117 221Q6141 206 6155 184Q6170 162 6170 129Q6170 92 6152 60Q6135 29 6099 10Q6064 -8 6009 -8Z" fill="#081c4f" style=""></path></g></g><g transform="matrix(1,0,0,1,0,1063.936)"><g transform="matrix(1.024,0,0,-1.024,0,0)"><path d="M580 723L676 723L676 0L580 0L580 317L201 317L201 0L104 0L104 723L201 723L201 409L580 409L580 723ZM825 211Q825 273 854 323Q884 373 936 402Q988 431 1054 431Q1122 431 1173 402Q1224 373 1252 323Q1280 273 1280 211Q1280 149 1252 98Q1224 48 1172 19Q1121 -10 1053 -10Q987 -10 935 17Q884 45 854 94Q825 144 825 211ZM918 210Q918 170 936 137Q954 105 984 86Q1015 67 1052 67Q1091 67 1121 86Q1152 105 1169 137Q1186 170 1186 210Q1186 250 1169 282Q1152 315 1121 334Q1091 354 1052 354Q1014 354 983 334Q953 314 935 281Q918 249 918 210ZM1537 -16Q1481 -16 1444 18Q1408 53 1406 108L1406 414L1499 414L1499 141Q1501 107 1518 86Q1536 65 1574 64Q1609 64 1636 84Q1664 105 1681 140Q1698 176 1698 221L1698 414L1791 414L1791 0L1706 0L1698 102L1703 84Q1691 55 1666 32Q1642 10 1609 -3Q1576 -16 1537 -16ZM2068 -8Q2024 -8 1982 7Q1941 23 1914 54L1953 108Q1979 83 2006 70Q2034 58 2061 58Q2081 58 2098 63Q2115 68 2125 79Q2136 91 2136 111Q2136 133 2121 146Q2107 159 2084 167Q2062 175 2037 182Q1986 199 1959 229Q1932 259 1932 302Q1932 335 1948 363Q1965 392 1997 410Q2030 428 2078 428Q2121 428 2155 417Q2189 407 2219 383L2182 325Q2164 344 2139 353Q2114 362 2094 363Q2077 364 2061 358Q2046 352 2036 341Q2026 330 2026 315Q2026 294 2040 281Q2054 268 2076 260Q2099 253 2121 245Q2152 236 2176 221Q2200 206 2214 184Q2229 162 2229 129Q2229 92 2211 60Q2194 29 2158 10Q2123 -8 2068 -8ZM2551 -10Q2480 -10 2429 18Q2378 47 2350 96Q2323 146 2323 210Q2323 271 2354 321Q2385 371 2437 401Q2489 431 2553 431Q2635 431 2689 383Q2743 335 2762 251L2421 131L2399 186L2679 288L2659 275Q2647 308 2619 332Q2591 357 2546 357Q2508 357 2478 338Q2448 320 2431 288Q2414 256 2414 215Q2414 172 2432 139Q2450 107 2481 88Q2513 70 2553 70Q2580 70 2605 80Q2631 90 2653 106L2696 37Q2665 16 2626 3Q2588 -10 2551 -10ZM2832 53L2832 53Q2832 75 2848 90Q2865 106 2885 106Q2903 106 2919 90Q2936 75 2936 53Q2936 29 2919 14Q2903 0 2885 0Q2865 0 2848 14Q2832 29 2832 53ZM3047 0L3047 414L3140 414L3140 0L3047 0ZM3040 564Q3040 586 3057 601Q3075 616 3096 616Q3117 616 3133 601Q3150 586 3150 564Q3150 541 3133 526Q3117 512 3096 512Q3075 512 3057 527Q3040 542 3040 564ZM3301 414L3384 414L3392 313L3388 329Q3408 375 3453 402Q3498 430 3557 430Q3616 430 3653 395Q3691 361 3692 306L3692 0L3598 0L3598 273Q3597 307 3578 328Q3560 350 3521 350Q3485 350 3456 330Q3427 310 3410 275Q3394 240 3394 194L3394 0L3301 0L3301 414Z" fill="#081c4f" style=""></path></g></g><g transform="matrix(2.475,0,0,2.475,-5309.9847,1060.045)"><g transform="matrix(1.024,0,0,-1.024,0,0)"><path d="M104 0L104 723L533 723L533 630L201 630L201 399L492 399L492 307L201 307L201 0L104 0ZM1259 354L1259 62Q1244 49 1217 36Q1190 24 1157 14Q1125 4 1090 -2Q1056 -8 1026 -8Q939 -8 869 19Q800 46 750 94Q701 142 674 207Q648 272 648 348Q648 438 677 509Q707 581 758 630Q810 680 877 705Q944 731 1019 731Q1082 731 1136 716Q1190 701 1231 678L1198 589Q1178 601 1148 611Q1119 621 1088 627Q1057 634 1030 634Q966 634 914 614Q862 595 825 558Q788 522 768 470Q748 419 748 355Q748 296 768 247Q788 198 825 162Q862 127 913 107Q965 88 1027 88Q1064 88 1100 95Q1136 103 1162 117L1162 261L1018 261L1018 354L1259 354ZM1920 723L2016 723L2016 0L1920 0L1920 317L1541 317L1541 0L1444 0L1444 723L1541 723L1541 409L1920 409L1920 723Z" fill="#081c4f" style=""></path></g></g></g></svg>