<svg version="1.1" xmlns="http://www.w3.org/2000/svg" viewBox="-1696.872279420732 -1269.76005859375 15113.577087965845 3141.8882080078124"><desc>Created with Snap</desc><defs></defs><g><g transform="matrix(28.0026,0,0,28.0026,-2249.0643,-1098.9328)"><g><path d="M46.547,58.738c-4.128-4.331-11.578-7.743-11.771-17.221c-0.446,0.713-1.499,2.698-1.823,3.53   c-1.18,3.038-1.942,4.97-2.189,8.174c-0.286,3.715,0.227,6.195,2.004,9.602c1.649,3.162,4.247,5.8,6.711,8.482   c5.896,6.421,11.213,13.426,10.593,22.088c-0.033,0.465,0.008,1.322-0.319,1.736c0,0,29.919-14.245,15.744-44.29   C60.95,41.201,47.3,19.572,51.553,4.87c-2.179,1.428-3.599,3.265-4.487,4.34c-3.241,3.922-5.891,8.294-7.715,12.912   c-2.116,5.355-2.975,11.152-1.662,17.047c1.219,5.471,4.188,10.625,6.921,15.78C45.276,56.205,45.92,57.47,46.547,58.738" fill="#00203f" style=""></path></g><desc>Created with Snap</desc><defs></defs></g><g><g transform="matrix(1.024,0,0,-1.024,0,0)"><path d="M887 829Q915 825 925 812Q936 799 936 778Q936 709 862 714L827 717Q768 722 709 725Q651 728 587 728L542 728Q530 580 517 458L689 461Q726 461 738 448Q751 435 751 413Q751 379 731 359Q711 340 674 340L503 340L497 297Q476 132 407 62Q339 -8 219 -8Q151 -8 94 21Q37 51 10 93Q-1 110 -1 134Q-1 158 10 176Q22 194 39 194Q51 194 62 186Q74 178 92 155Q140 92 211 92Q268 92 306 138Q345 185 356 285L362 340L314 340Q291 340 274 353Q258 366 258 390Q258 421 274 437Q290 454 321 454Q349 454 376 455Q388 565 402 722Q294 712 250 687Q206 662 206 613Q206 579 226 548Q232 539 232 530Q232 512 212 498Q192 485 167 485Q140 485 121 501Q109 511 98 542Q87 573 87 611Q87 735 214 791Q342 847 587 847Q757 847 887 829ZM883 -5Q821 -5 784 40Q747 85 747 158Q747 238 784 309Q821 381 882 424Q944 468 1013 468Q1035 468 1042 459Q1050 451 1055 429Q1076 433 1099 433Q1148 433 1148 398Q1148 377 1133 298Q1110 183 1110 138Q1110 123 1117 114Q1125 105 1137 105Q1156 105 1183 129Q1210 154 1256 209Q1268 223 1283 223Q1296 223 1303 211Q1311 199 1311 178Q1311 138 1292 116Q1251 65 1205 30Q1159 -5 1116 -5Q1083 -5 1055 17Q1028 40 1014 79Q962 -5 883 -5ZM919 96Q941 96 961 122Q981 148 990 191L1027 375Q985 374 949 343Q914 313 893 263Q872 213 872 157Q872 126 884 111Q897 96 919 96ZM1301 -5Q1263 -5 1247 35Q1232 75 1232 163Q1232 293 1269 410Q1278 439 1298 452Q1319 466 1356 466Q1376 466 1384 461Q1392 456 1392 442Q1392 426 1377 370Q1367 330 1361 300Q1355 271 1351 227Q1378 305 1415 359Q1453 413 1492 439Q1532 466 1567 466Q1602 466 1616 450Q1631 434 1631 401Q1631 369 1612 285Q1604 249 1601 231Q1651 354 1712 410Q1773 466 1826 466Q1891 466 1891 401Q1891 362 1869 260Q1850 173 1850 145Q1850 105 1879 105Q1899 105 1926 129Q1954 154 2000 209Q2012 223 2027 223Q2040 223 2047 211Q2055 199 2055 178Q2055 138 2036 116Q1993 63 1943 29Q1894 -5 1831 -5Q1780 -5 1754 24Q1728 54 1728 110Q1728 138 1742 210Q1755 273 1755 297Q1755 313 1744 313Q1731 313 1707 279Q1683 246 1659 191Q1635 136 1620 75Q1609 27 1594 11Q1580 -5 1548 -5Q1515 -5 1498 26Q1482 58 1482 103Q1482 141 1492 213Q1500 277 1500 297Q1500 313 1489 313Q1474 313 1451 277Q1428 241 1406 185Q1385 129 1372 75Q1361 28 1346 11Q1332 -5 1301 -5ZM2484 307Q2497 307 2504 294Q2511 281 2511 261Q2511 213 2482 204Q2422 183 2350 180Q2331 96 2275 45Q2219 -5 2148 -5Q2088 -5 2045 24Q2003 53 1981 101Q1959 149 1959 205Q1959 281 1988 340Q2017 400 2068 433Q2119 467 2181 467Q2257 467 2303 414Q2350 362 2358 285Q2405 288 2470 305Q2478 307 2484 307ZM2156 101Q2188 101 2211 127Q2235 153 2243 202Q2212 223 2195 257Q2179 291 2179 329Q2179 345 2182 361L2177 361Q2137 361 2110 322Q2084 284 2084 214Q2084 159 2105 130Q2127 101 2156 101ZM2527 -5Q2482 -5 2453 36Q2425 78 2425 140Q2425 215 2435 277Q2445 340 2468 410Q2478 440 2496 453Q2514 466 2553 466Q2575 466 2583 459Q2592 452 2592 438Q2592 430 2581 384Q2571 347 2565 317Q2545 212 2545 177Q2545 156 2550 147Q2555 139 2566 139Q2581 139 2603 169Q2626 199 2651 260Q2677 321 2701 410Q2709 440 2725 453Q2742 466 2775 466Q2798 466 2807 460Q2816 455 2816 440Q2816 415 2791 303Q2763 175 2763 145Q2763 126 2771 115Q2779 105 2792 105Q2812 105 2839 129Q2867 154 2913 209Q2925 223 2940 223Q2953 223 2960 211Q2968 199 2968 178Q2968 138 2949 116Q2906 63 2856 29Q2807 -5 2744 -5Q2696 -5 2673 32Q2651 69 2651 136Q2634 68 2600 31Q2566 -5 2527 -5ZM3073 -27Q3021 -27 2993 -3Q2966 21 2966 51Q2966 77 2985 96Q3004 115 3041 115Q3054 115 3071 112Q3089 110 3098 109Q3097 135 3086 158Q3076 181 3060 202Q3044 224 3030 240Q2999 181 2968 142Q2938 103 2902 68Q2884 50 2864 50Q2848 50 2838 61Q2828 73 2828 90Q2828 110 2842 127L2855 143Q2910 211 2938 255Q2955 284 2978 332Q3001 381 3023 433Q3042 477 3102 477Q3130 477 3141 472Q3152 467 3152 456Q3152 450 3148 437Q3144 424 3137 411Q3119 375 3119 350Q3119 335 3129 317Q3140 299 3162 272Q3194 230 3210 200Q3227 171 3227 136Q3227 126 3225 108Q3274 127 3340 209Q3352 223 3367 223Q3380 223 3387 211Q3395 199 3395 178Q3395 140 3376 116Q3326 54 3280 31Q3235 9 3168 7Q3128 -27 3073 -27ZM4423 221Q4436 221 4443 208Q4451 196 4451 177Q4451 154 4444 141Q4437 128 4422 118Q4363 79 4234 -10Q4195 -217 4133 -336Q4071 -455 3976 -455Q3925 -455 3893 -424Q3861 -392 3861 -341Q3861 -294 3882 -246Q3903 -198 3960 -135Q4018 -72 4123 9L4126 28Q4047 -5 3971 -5Q3859 -5 3774 38Q3689 82 3642 162Q3595 242 3595 348Q3595 496 3651 609Q3707 723 3805 785Q3904 848 4026 848Q4143 848 4201 793Q4260 739 4260 649Q4260 590 4238 554Q4217 519 4177 519Q4150 519 4133 532Q4117 545 4117 568Q4117 578 4121 602Q4127 630 4127 646Q4127 688 4101 711Q4076 734 4016 734Q3943 734 3880 692Q3818 650 3780 566Q3742 483 3742 366Q3742 246 3807 180Q3873 115 3997 115Q4066 115 4141 146L4155 268L4053 268Q4025 268 4010 281Q3995 295 3995 326Q3995 354 4010 370Q4025 386 4050 386L4237 386Q4259 386 4273 371Q4288 357 4285 330Q4282 298 4265 185L4254 109Q4334 169 4400 213Q4413 221 4423 221ZM3987 -358Q4013 -358 4044 -299Q4075 -240 4102 -109Q4026 -174 3992 -227Q3959 -279 3959 -319Q3959 -358 3987 -358ZM4769 223Q4782 223 4789 211Q4797 199 4797 178Q4797 138 4778 116Q4735 63 4684 29Q4634 -5 4570 -5Q4482 -5 4439 75Q4397 155 4397 282Q4397 404 4428 560Q4460 716 4521 828Q4583 940 4668 940Q4716 940 4743 895Q4771 851 4771 768Q4771 649 4705 492Q4639 335 4526 181Q4533 140 4549 122Q4565 105 4591 105Q4632 105 4663 128Q4694 152 4742 209Q4754 223 4769 223ZM4646 841Q4623 841 4594 758Q4565 675 4543 552Q4521 429 4519 316Q4590 433 4632 550Q4674 668 4674 765Q4674 841 4646 841ZM4839 -5Q4777 -5 4740 40Q4703 85 4703 158Q4703 238 4740 309Q4777 381 4838 424Q4900 468 4969 468Q4991 468 4998 459Q5006 451 5011 429Q5032 433 5055 433Q5104 433 5104 398Q5104 377 5089 298Q5066 183 5066 138Q5066 123 5073 114Q5081 105 5093 105Q5112 105 5139 129Q5166 154 5212 209Q5224 223 5239 223Q5252 223 5259 211Q5267 199 5267 178Q5267 138 5248 116Q5207 65 5161 30Q5115 -5 5072 -5Q5039 -5 5011 17Q4984 40 4970 79Q4918 -5 4839 -5ZM4875 96Q4897 96 4917 122Q4937 148 4946 191L4983 375Q4941 374 4905 343Q4870 313 4849 263Q4828 213 4828 157Q4828 126 4840 111Q4853 96 4875 96ZM5372 -27Q5320 -27 5292 -3Q5265 21 5265 51Q5265 77 5284 96Q5303 115 5340 115Q5353 115 5370 112Q5388 110 5397 109Q5396 135 5385 158Q5375 181 5359 202Q5343 224 5329 240Q5298 181 5267 142Q5237 103 5201 68Q5183 50 5163 50Q5147 50 5137 61Q5127 73 5127 90Q5127 110 5141 127L5154 143Q5209 211 5237 255Q5254 284 5277 332Q5300 381 5322 433Q5341 477 5401 477Q5429 477 5440 472Q5451 467 5451 456Q5451 450 5447 437Q5443 424 5436 411Q5418 375 5418 350Q5418 335 5428 317Q5439 299 5461 272Q5493 230 5509 200Q5526 171 5526 136Q5526 126 5524 108Q5573 127 5639 209Q5651 223 5666 223Q5679 223 5686 211Q5694 199 5694 178Q5694 140 5675 116Q5625 54 5579 31Q5534 9 5467 7Q5427 -27 5372 -27ZM5799 -27Q5747 -27 5719 -3Q5692 21 5692 51Q5692 77 5711 96Q5730 115 5767 115Q5780 115 5797 112Q5815 110 5824 109Q5823 135 5812 158Q5802 181 5786 202Q5770 224 5756 240Q5725 181 5694 142Q5664 103 5628 68Q5610 50 5590 50Q5574 50 5564 61Q5554 73 5554 90Q5554 110 5568 127L5581 143Q5636 211 5664 255Q5681 284 5704 332Q5727 381 5749 433Q5768 477 5828 477Q5856 477 5867 472Q5878 467 5878 456Q5878 450 5874 437Q5870 424 5863 411Q5845 375 5845 350Q5845 335 5855 317Q5866 299 5888 272Q5920 230 5936 200Q5953 171 5953 136Q5953 126 5951 108Q6000 127 6066 209Q6078 223 6093 223Q6106 223 6113 211Q6121 199 6121 178Q6121 140 6102 116Q6052 54 6006 31Q5961 9 5894 7Q5854 -27 5799 -27ZM7231 223Q7244 223 7251 211Q7259 199 7259 178Q7259 139 7240 116Q7141 -5 7029 -5Q6932 -5 6874 70Q6816 145 6816 285Q6816 319 6819 353Q6753 341 6675 335Q6623 331 6604 330Q6584 228 6548 80Q6527 -7 6468 -7Q6404 -7 6404 51Q6404 64 6409 87Q6443 224 6463 319L6415 317Q6382 317 6367 328Q6352 340 6352 366Q6352 399 6371 414Q6390 430 6434 432L6487 434Q6513 575 6513 649Q6513 696 6499 713Q6485 730 6462 730Q6392 730 6304 613Q6291 596 6275 596Q6261 596 6251 609Q6241 622 6241 642Q6241 673 6266 708Q6310 769 6377 808Q6444 848 6513 848Q6578 848 6613 803Q6649 759 6649 665Q6649 582 6625 440L6723 445Q6786 448 6831 455Q6849 565 6886 661Q6923 757 6978 817Q7033 877 7101 877Q7151 877 7180 837Q7209 798 7209 734Q7209 486 6956 390Q6953 350 6953 307Q6953 202 6979 158Q7005 114 7052 114Q7093 114 7127 135Q7161 157 7204 209Q7216 223 7231 223ZM7096 790Q7074 790 7049 750Q7025 710 7003 641Q6981 572 6968 490Q7048 523 7086 584Q7124 645 7124 741Q7124 764 7116 777Q7108 790 7096 790ZM7688 307Q7701 307 7708 294Q7715 281 7715 261Q7715 213 7686 204Q7626 183 7554 180Q7535 96 7479 45Q7423 -5 7352 -5Q7292 -5 7249 24Q7207 53 7185 101Q7163 149 7163 205Q7163 281 7192 340Q7221 400 7272 433Q7323 467 7385 467Q7461 467 7507 414Q7554 362 7562 285Q7609 288 7674 305Q7682 307 7688 307ZM7360 101Q7392 101 7415 127Q7439 153 7447 202Q7416 223 7399 257Q7383 291 7383 329Q7383 345 7386 361L7381 361Q7341 361 7314 322Q7288 284 7288 214Q7288 159 7309 130Q7331 101 7360 101ZM7731 -5Q7686 -5 7657 36Q7629 78 7629 140Q7629 215 7639 277Q7649 340 7672 410Q7682 440 7700 453Q7718 466 7757 466Q7779 466 7787 459Q7796 452 7796 438Q7796 430 7785 384Q7775 347 7769 317Q7749 212 7749 177Q7749 156 7754 147Q7759 139 7770 139Q7785 139 7807 169Q7830 199 7855 260Q7881 321 7905 410Q7913 440 7929 453Q7946 466 7979 466Q8002 466 8011 460Q8020 455 8020 440Q8020 415 7995 303Q7967 175 7967 145Q7967 126 7975 115Q7983 105 7996 105Q8016 105 8043 129Q8071 154 8117 209Q8129 223 8144 223Q8157 223 8164 211Q8172 199 8172 178Q8172 138 8153 116Q8110 63 8060 29Q8011 -5 7948 -5Q7900 -5 7877 32Q7855 69 7855 136Q7838 68 7804 31Q7770 -5 7731 -5ZM8277 -27Q8225 -27 8197 -3Q8170 21 8170 51Q8170 77 8189 96Q8208 115 8245 115Q8258 115 8275 112Q8293 110 8302 109Q8301 135 8290 158Q8280 181 8264 202Q8248 224 8234 240Q8203 181 8172 142Q8142 103 8106 68Q8088 50 8068 50Q8052 50 8042 61Q8032 73 8032 90Q8032 110 8046 127L8059 143Q8114 211 8142 255Q8159 284 8182 332Q8205 381 8227 433Q8246 477 8306 477Q8334 477 8345 472Q8356 467 8356 456Q8356 450 8352 437Q8348 424 8341 411Q8323 375 8323 350Q8323 335 8333 317Q8344 299 8366 272Q8398 230 8414 200Q8431 171 8431 136Q8431 126 8429 108Q8478 127 8544 209Q8556 223 8571 223Q8584 223 8591 211Q8599 199 8599 178Q8599 140 8580 116Q8530 54 8484 31Q8439 9 8372 7Q8332 -27 8277 -27ZM8964 223Q8977 223 8984 211Q8992 199 8992 178Q8992 138 8973 116Q8936 71 8868 33Q8801 -5 8724 -5Q8619 -5 8561 52Q8503 109 8503 208Q8503 277 8532 336Q8561 396 8612 431Q8664 466 8729 466Q8787 466 8822 431Q8857 397 8857 338Q8857 269 8807 219Q8758 170 8640 141Q8665 95 8735 95Q8780 95 8837 126Q8895 158 8937 209Q8949 223 8964 223ZM8712 368Q8675 368 8649 325Q8624 282 8624 221L8624 219Q8683 233 8717 261Q8751 289 8751 326Q8751 345 8740 356Q8730 368 8712 368ZM8980 -5Q8936 -5 8913 19Q8891 43 8891 82Q8891 127 8916 154Q8942 181 8988 181Q9032 181 9054 159Q9077 138 9077 96Q9077 50 9051 22Q9025 -5 8980 -5ZM9299 532Q9257 532 9236 551Q9215 571 9215 606Q9215 641 9242 664Q9270 688 9311 688Q9348 688 9371 670Q9394 652 9394 619Q9394 579 9368 555Q9342 532 9299 532ZM9291 -5Q9226 -5 9196 41Q9167 87 9167 163Q9167 208 9178 278Q9190 349 9208 410Q9217 442 9232 454Q9247 466 9280 466Q9331 466 9331 432Q9331 407 9312 316Q9288 206 9288 167Q9288 137 9296 121Q9304 105 9323 105Q9341 105 9368 130Q9395 155 9440 209Q9452 223 9467 223Q9480 223 9487 211Q9495 199 9495 178Q9495 138 9476 116Q9377 -5 9291 -5ZM9485 -5Q9447 -5 9431 35Q9416 75 9416 163Q9416 293 9453 410Q9462 439 9482 452Q9503 466 9540 466Q9560 466 9568 461Q9576 456 9576 442Q9576 426 9561 370Q9551 330 9545 300Q9539 270 9535 226Q9568 312 9609 366Q9650 420 9689 443Q9729 466 9762 466Q9827 466 9827 401Q9827 362 9805 260Q9786 173 9786 145Q9786 105 9815 105Q9835 105 9862 129Q9890 154 9936 209Q9948 223 9963 223Q9976 223 9983 211Q9991 199 9991 178Q9991 138 9972 116Q9929 63 9879 29Q9830 -5 9767 -5Q9716 -5 9690 24Q9664 54 9664 110Q9664 138 9678 210Q9691 273 9691 297Q9691 313 9680 313Q9667 313 9643 279Q9620 246 9595 191Q9571 136 9556 75Q9545 28 9530 11Q9516 -5 9485 -5Z" fill="#00203f" style=""></path></g></g><g transform="matrix(0.75,0,0,0.75,3.584,1356.8001)"><g transform="matrix(1.024,0,0,-1.024,0,0)"><path d="M181 0L-6 0L-6 33Q24 33 40 49Q56 65 66 93Q77 121 91 158L297 719L321 719L544 150Q552 129 562 96Q572 63 570 40Q587 41 604 42Q621 43 638 44L638 0L409 0L409 33Q447 34 459 50Q471 66 468 88Q465 110 458 128L423 222L163 216L128 109Q121 85 115 71Q110 57 103 40Q123 41 142 42Q162 43 181 44L181 0ZM249 460L178 259L409 259L338 450Q327 481 315 511Q304 542 293 573L291 573Q281 545 270 517Q260 489 249 460ZM1138 -16Q1088 -16 1049 -3Q1010 11 985 28L989 -7L947 -7L941 165L972 165Q974 124 995 91Q1016 59 1049 41Q1082 23 1120 23Q1146 23 1171 31Q1196 40 1213 57Q1230 75 1230 102Q1230 130 1213 148Q1197 167 1170 181Q1143 195 1112 207Q1082 219 1052 232Q1022 245 996 263Q971 281 956 307Q941 333 941 371Q941 392 949 417Q957 442 976 464Q995 487 1028 501Q1061 516 1112 516Q1139 516 1172 507Q1205 498 1236 473L1234 511L1276 511L1276 336L1244 336Q1242 371 1228 403Q1214 436 1187 457Q1160 479 1117 479Q1071 479 1045 456Q1019 433 1019 403Q1019 372 1038 351Q1058 331 1089 316Q1120 301 1155 287Q1193 271 1229 252Q1265 233 1288 204Q1311 176 1311 131Q1311 81 1285 48Q1260 15 1220 -1Q1181 -16 1138 -16ZM1717 0L1717 30Q1748 30 1760 45Q1772 61 1774 88Q1776 116 1776 152L1776 292Q1776 378 1748 421Q1721 464 1662 463Q1625 462 1589 445Q1554 428 1532 401L1532 106Q1532 86 1531 70Q1530 55 1527 38Q1543 39 1558 39Q1574 40 1590 41L1590 0L1386 0L1386 30Q1417 30 1429 45Q1441 61 1443 88Q1446 116 1446 152L1446 625Q1446 641 1446 655Q1447 670 1449 690Q1431 689 1413 688Q1396 687 1378 686L1378 728Q1422 728 1446 732Q1471 736 1483 742Q1496 748 1503 755L1532 755L1532 450Q1554 469 1581 483Q1609 498 1638 507Q1668 516 1696 516Q1783 516 1821 461Q1860 407 1861 292L1862 106Q1862 86 1861 70Q1861 55 1858 38Q1874 39 1889 39Q1905 40 1921 41L1921 0L1717 0ZM2243 -16Q2173 -16 2116 16Q2059 49 2025 106Q1992 164 1992 238Q1992 317 2025 380Q2058 443 2115 479Q2172 516 2243 516Q2313 516 2370 482Q2427 449 2461 392Q2495 335 2495 262Q2495 185 2461 121Q2428 58 2371 21Q2314 -16 2243 -16ZM2251 24Q2304 24 2335 54Q2366 84 2379 132Q2393 180 2393 233Q2393 278 2384 321Q2376 365 2358 400Q2340 436 2311 457Q2283 478 2243 478Q2191 478 2158 448Q2125 418 2109 370Q2094 322 2094 267Q2094 205 2111 149Q2128 94 2163 59Q2198 24 2251 24ZM2775 -255L2571 -255L2571 -225Q2602 -225 2614 -210Q2626 -194 2628 -167Q2630 -139 2630 -103L2632 380Q2632 396 2632 412Q2633 428 2636 445Q2618 444 2600 443Q2583 442 2565 441L2565 483Q2609 483 2631 487Q2654 491 2664 497Q2675 503 2682 510L2712 510Q2713 500 2714 486Q2715 473 2716 456Q2746 483 2787 499Q2829 516 2871 516Q2929 516 2979 486Q3029 456 3060 400Q3091 345 3091 268Q3091 183 3055 119Q3020 55 2962 19Q2904 -16 2836 -16Q2801 -16 2771 -8Q2742 1 2716 17L2716 -149Q2716 -169 2715 -185Q2715 -200 2712 -217Q2728 -216 2743 -216Q2759 -215 2775 -214L2775 -255ZM2834 24Q2882 24 2916 53Q2951 83 2969 134Q2988 186 2988 252Q2988 306 2972 355Q2957 405 2923 436Q2890 467 2835 467Q2801 467 2769 450Q2738 434 2717 411Q2717 407 2717 399Q2718 392 2718 373Q2718 355 2718 318Q2718 282 2717 220Q2717 158 2717 63Q2742 44 2771 34Q2801 24 2834 24ZM3503 500L3503 521Q3503 632 3543 696Q3584 760 3683 760Q3705 760 3729 752Q3754 745 3772 728Q3790 712 3790 686Q3790 667 3779 654Q3769 641 3749 641Q3725 640 3715 655Q3706 671 3706 682Q3706 688 3707 694Q3708 700 3711 707Q3704 716 3691 720Q3679 724 3668 724Q3637 724 3620 706Q3603 688 3596 661Q3589 634 3589 605L3589 500L3724 500L3724 461L3589 458L3590 106Q3590 86 3589 70Q3589 55 3586 38Q3602 39 3617 39Q3633 40 3649 41L3649 0L3445 0L3445 30Q3476 30 3488 45Q3500 61 3502 88Q3504 116 3504 152L3503 457L3421 455L3421 500L3503 500ZM4026 -16Q3956 -16 3899 16Q3842 49 3808 106Q3775 164 3775 238Q3775 317 3808 380Q3841 443 3898 479Q3955 516 4026 516Q4096 516 4153 482Q4210 449 4244 392Q4278 335 4278 262Q4278 185 4244 121Q4211 58 4154 21Q4097 -16 4026 -16ZM4034 24Q4087 24 4118 54Q4149 84 4162 132Q4176 180 4176 233Q4176 278 4167 321Q4159 365 4141 400Q4123 436 4094 457Q4066 478 4026 478Q3974 478 3941 448Q3908 418 3892 370Q3877 322 3877 267Q3877 205 3894 149Q3911 94 3946 59Q3981 24 4034 24ZM4363 0L4363 30Q4394 30 4406 45Q4418 61 4420 88Q4422 116 4422 152L4422 380Q4422 396 4422 412Q4423 428 4426 445Q4408 444 4390 443Q4373 443 4355 442L4355 483L4386 483Q4429 483 4445 491Q4462 500 4473 510L4502 510Q4504 494 4505 470Q4506 447 4507 411Q4522 436 4548 460Q4574 484 4606 500Q4639 516 4675 516Q4703 516 4724 501Q4745 486 4745 453Q4745 445 4740 433Q4735 422 4724 413Q4713 405 4695 405Q4673 406 4660 422Q4647 439 4650 461Q4625 462 4598 448Q4572 434 4549 409Q4526 385 4508 352L4509 106Q4509 86 4508 70Q4508 55 4505 38Q4521 39 4536 39Q4552 40 4568 41L4568 0L4363 0ZM5576 -255L5372 -255L5372 -225Q5403 -225 5415 -210Q5427 -194 5429 -167Q5431 -139 5431 -103L5431 47Q5405 17 5367 0Q5329 -16 5281 -16Q5219 -16 5168 15Q5117 47 5087 104Q5057 162 5057 239Q5057 323 5091 385Q5126 447 5184 481Q5243 516 5314 516Q5356 516 5390 505Q5425 494 5450 494Q5461 494 5470 497Q5480 501 5488 510L5516 510L5517 -149Q5517 -169 5516 -185Q5516 -200 5513 -217Q5529 -216 5544 -216Q5560 -215 5576 -214L5576 -255ZM5317 33Q5350 33 5380 51Q5411 69 5431 97L5431 359Q5431 399 5420 425Q5409 452 5384 465Q5359 479 5316 479Q5268 479 5233 452Q5198 425 5179 376Q5160 328 5160 263Q5160 199 5178 147Q5197 95 5232 64Q5268 33 5317 33ZM5846 -16Q5792 -16 5755 4Q5719 24 5700 72Q5682 120 5682 202L5682 380Q5682 396 5682 412Q5683 428 5686 445Q5669 444 5651 443Q5634 443 5617 442L5617 483L5648 483Q5691 483 5710 491Q5730 500 5741 510L5770 510L5770 205Q5770 119 5794 76Q5819 34 5878 35Q5916 36 5950 58Q5985 81 6006 112L6006 369Q6006 393 6007 410Q6008 428 6011 445Q5993 444 5975 443Q5957 443 5939 442L5939 483L5970 483Q6013 483 6032 491Q6052 500 6063 510L6092 510L6091 132Q6091 116 6090 87Q6089 58 6087 38Q6105 39 6123 40Q6141 41 6159 42L6159 0L6016 0Q6013 17 6011 32Q6010 47 6009 60Q5978 29 5934 6Q5890 -16 5846 -16ZM6679 0L6536 0Q6533 17 6532 30Q6531 43 6529 57Q6495 23 6455 3Q6416 -16 6372 -16Q6296 -16 6259 18Q6222 53 6222 103Q6222 149 6250 182Q6279 216 6324 237Q6370 259 6423 269Q6477 280 6527 279L6527 341Q6527 376 6521 407Q6515 438 6495 458Q6475 478 6431 479Q6402 480 6371 468Q6341 456 6327 427Q6335 419 6337 408Q6340 398 6340 389Q6340 377 6330 361Q6320 346 6295 347Q6274 347 6263 361Q6252 376 6252 396Q6252 430 6277 457Q6303 484 6348 500Q6393 516 6450 516Q6534 516 6574 471Q6614 427 6613 331Q6613 294 6613 256Q6613 219 6612 181Q6612 144 6612 106Q6612 90 6611 74Q6610 58 6608 38Q6626 39 6643 40Q6661 41 6679 42L6679 0ZM6527 245Q6493 244 6455 236Q6418 229 6386 214Q6355 199 6335 174Q6316 150 6317 115Q6319 78 6341 59Q6364 41 6395 41Q6436 41 6466 56Q6497 72 6527 100Q6526 111 6526 124Q6526 137 6526 151Q6526 156 6526 183Q6527 210 6527 245ZM6738 0L6738 30Q6769 30 6781 45Q6793 61 6795 88Q6797 116 6797 152L6797 625Q6797 641 6797 655Q6798 670 6800 690Q6782 689 6764 688Q6747 687 6729 686L6729 728Q6773 728 6797 732Q6822 736 6834 742Q6847 748 6854 755L6883 755L6884 106Q6884 86 6883 70Q6882 55 6879 38Q6895 39 6910 39Q6926 40 6942 41L6942 0L6738 0ZM7020 0L7020 30Q7051 30 7063 45Q7075 61 7077 88Q7079 116 7079 152L7079 380Q7079 396 7080 410Q7081 425 7083 445Q7065 444 7047 443Q7030 442 7012 441L7012 483Q7056 483 7080 487Q7104 491 7116 497Q7129 503 7136 510L7165 510L7165 106Q7165 86 7164 70Q7164 55 7161 38Q7177 39 7192 39Q7208 40 7224 41L7224 0L7020 0ZM7117 609Q7096 609 7080 626Q7064 643 7064 668Q7064 693 7080 710Q7097 728 7118 728Q7141 728 7156 710Q7172 693 7172 668Q7172 643 7155 626Q7139 609 7117 609ZM7489 -16Q7466 -16 7442 -10Q7418 -3 7397 16Q7377 35 7365 71Q7353 108 7353 168L7355 458L7278 457L7278 500Q7304 501 7331 519Q7358 538 7379 570Q7401 602 7409 640L7443 640L7443 500L7611 500L7611 461L7443 459L7441 181Q7441 136 7448 104Q7456 73 7473 57Q7490 41 7517 41Q7545 41 7569 57Q7594 73 7613 101L7640 79Q7618 46 7596 27Q7575 8 7555 -2Q7535 -11 7518 -14Q7501 -16 7489 -16ZM7765 -271Q7734 -271 7712 -256Q7690 -241 7690 -210Q7690 -192 7702 -177Q7714 -162 7733 -162Q7757 -161 7765 -177Q7774 -193 7774 -205Q7774 -208 7774 -212Q7774 -215 7773 -219Q7776 -221 7784 -221Q7796 -221 7810 -211Q7824 -201 7835 -182Q7848 -160 7865 -116Q7883 -72 7905 -11L7749 323Q7723 379 7711 412Q7700 445 7696 461L7648 459L7648 500L7855 500L7855 470L7851 470Q7809 467 7805 438Q7801 410 7828 352L7945 101Q7968 165 7989 227Q8010 290 8031 352Q8039 374 8047 397Q8056 421 8064 439Q8073 458 8080 463L8011 459L8011 500L8168 500L8168 470Q8131 456 8112 423Q8094 391 8075 340L7950 -9Q7920 -93 7895 -152Q7870 -210 7840 -241Q7810 -271 7765 -271ZM8674 0L8470 0L8470 30Q8501 30 8512 45Q8524 61 8526 88Q8528 116 8528 152L8529 625Q8529 641 8529 655Q8530 670 8532 690Q8514 689 8496 688Q8479 687 8461 686L8461 728Q8505 728 8529 732Q8553 736 8565 742Q8578 748 8585 755L8614 755L8614 282L8654 282L8776 410Q8793 427 8807 440Q8821 454 8835 463L8767 460L8767 500L8949 500L8949 470Q8915 467 8885 448Q8856 430 8831 407Q8807 384 8789 365L8711 283Q8731 274 8745 260Q8759 246 8773 229L8844 138Q8849 132 8861 115Q8874 98 8891 78Q8909 58 8928 44Q8948 30 8965 30L8965 0L8874 0Q8846 0 8821 29Q8796 58 8768 94Q8742 130 8721 159Q8701 189 8684 211Q8668 233 8655 245L8614 243L8614 106Q8614 86 8613 70Q8613 55 8610 38Q8626 39 8642 39Q8658 40 8674 41L8674 0ZM9016 0L9016 30Q9047 30 9059 45Q9071 61 9073 88Q9075 116 9075 152L9075 380Q9075 396 9076 410Q9077 425 9079 445Q9061 444 9043 443Q9026 442 9008 441L9008 483Q9052 483 9076 487Q9100 491 9112 497Q9125 503 9132 510L9161 510L9161 106Q9161 86 9160 70Q9160 55 9157 38Q9173 39 9188 39Q9204 40 9220 41L9220 0L9016 0ZM9113 609Q9092 609 9076 626Q9060 643 9060 668Q9060 693 9076 710Q9093 728 9114 728Q9137 728 9152 710Q9168 693 9168 668Q9168 643 9151 626Q9135 609 9113 609ZM9485 -16Q9462 -16 9438 -10Q9414 -3 9393 16Q9373 35 9361 71Q9349 108 9349 168L9351 458L9274 457L9274 500Q9300 501 9327 519Q9354 538 9375 570Q9397 602 9405 640L9439 640L9439 500L9607 500L9607 461L9439 459L9437 181Q9437 136 9444 104Q9452 73 9469 57Q9486 41 9513 41Q9541 41 9565 57Q9590 73 9609 101L9636 79Q9614 46 9592 27Q9571 8 9551 -2Q9531 -11 9514 -14Q9497 -16 9485 -16ZM9928 -16Q9861 -16 9804 14Q9748 45 9714 102Q9681 160 9681 241Q9681 293 9700 342Q9719 391 9753 430Q9788 470 9836 493Q9884 516 9942 516Q9998 516 10039 499Q10081 482 10104 454Q10127 426 10127 393Q10127 371 10115 355Q10103 340 10080 340Q10055 339 10044 355Q10034 372 10034 385Q10034 395 10037 405Q10040 416 10049 425Q10041 449 10021 460Q10001 472 9979 475Q9958 479 9944 479Q9876 479 9829 424Q9783 370 9783 266Q9783 199 9804 147Q9826 95 9865 65Q9904 36 9955 36Q10002 36 10045 61Q10088 86 10112 122L10138 102Q10112 60 10075 34Q10039 8 10000 -4Q9962 -16 9928 -16ZM10537 0L10537 30Q10568 30 10580 45Q10592 61 10594 88Q10596 116 10596 152L10596 292Q10596 378 10568 421Q10541 464 10482 463Q10445 462 10409 445Q10374 428 10352 401L10352 106Q10352 86 10351 70Q10350 55 10347 38Q10363 39 10378 39Q10394 40 10410 41L10410 0L10206 0L10206 30Q10237 30 10249 45Q10261 61 10263 88Q10266 116 10266 152L10266 625Q10266 641 10266 655Q10267 670 10269 690Q10251 689 10233 688Q10216 687 10198 686L10198 728Q10242 728 10266 732Q10291 736 10303 742Q10316 748 10323 755L10352 755L10352 450Q10374 469 10401 483Q10429 498 10458 507Q10488 516 10516 516Q10603 516 10641 461Q10680 407 10681 292L10682 106Q10682 86 10681 70Q10681 55 10678 38Q10694 39 10709 39Q10725 40 10741 41L10741 0L10537 0ZM11057 -16Q10988 -16 10932 16Q10877 49 10845 108Q10813 168 10813 249Q10813 319 10844 380Q10876 441 10933 478Q10990 516 11065 516Q11107 516 11143 502Q11180 489 11208 461Q11236 434 11252 392Q11268 351 11268 295L10916 289Q10916 213 10932 155Q10949 98 10986 66Q11023 35 11081 35Q11112 35 11144 46Q11177 57 11205 76Q11233 95 11250 118L11274 98Q11247 56 11209 31Q11171 6 11131 -5Q11091 -16 11057 -16ZM10919 331L11174 331Q11174 367 11163 400Q11153 434 11129 455Q11105 477 11066 477Q11008 477 10969 442Q10931 408 10919 331ZM11561 0L11357 0L11357 30Q11388 30 11400 45Q11412 61 11414 88Q11416 116 11416 152L11417 380Q11417 396 11417 412Q11418 428 11421 445Q11403 444 11385 443Q11368 442 11350 441L11350 483Q11394 483 11416 487Q11439 491 11450 497Q11461 503 11468 510L11497 510Q11498 503 11498 494Q11499 485 11500 474Q11501 463 11501 449Q11523 468 11549 483Q11576 498 11605 507Q11635 516 11664 516Q11751 516 11791 461Q11831 407 11831 292L11831 106Q11831 86 11830 70Q11830 55 11827 38Q11843 39 11858 39Q11874 40 11890 41L11890 0L11686 0L11686 30Q11717 30 11729 45Q11741 61 11743 88Q11745 116 11745 152L11745 292Q11744 378 11716 422Q11689 466 11630 465Q11594 464 11559 446Q11525 428 11502 400Q11503 392 11503 382Q11503 372 11503 361L11502 106Q11502 86 11501 70Q11501 55 11498 38Q11514 39 11529 39Q11545 40 11561 41L11561 0ZM12674 0L12531 0Q12528 17 12527 30Q12526 43 12524 57Q12490 23 12450 3Q12411 -16 12367 -16Q12291 -16 12254 18Q12217 53 12217 103Q12217 149 12245 182Q12274 216 12319 237Q12365 259 12418 269Q12472 280 12522 279L12522 341Q12522 376 12516 407Q12510 438 12490 458Q12470 478 12426 479Q12397 480 12366 468Q12336 456 12322 427Q12330 419 12332 408Q12335 398 12335 389Q12335 377 12325 361Q12315 346 12290 347Q12269 347 12258 361Q12247 376 12247 396Q12247 430 12272 457Q12298 484 12343 500Q12388 516 12445 516Q12529 516 12569 471Q12609 427 12608 331Q12608 294 12608 256Q12608 219 12607 181Q12607 144 12607 106Q12607 90 12606 74Q12605 58 12603 38Q12621 39 12638 40Q12656 41 12674 42L12674 0ZM12522 245Q12488 244 12450 236Q12413 229 12381 214Q12350 199 12330 174Q12311 150 12312 115Q12314 78 12336 59Q12359 41 12390 41Q12431 41 12461 56Q12492 72 12522 100Q12521 111 12521 124Q12521 137 12521 151Q12521 156 12521 183Q12522 210 12522 245ZM12938 -255L12734 -255L12734 -225Q12765 -225 12777 -210Q12789 -194 12791 -167Q12793 -139 12793 -103L12795 380Q12795 396 12795 412Q12796 428 12799 445Q12781 444 12763 443Q12746 442 12728 441L12728 483Q12772 483 12794 487Q12817 491 12827 497Q12838 503 12845 510L12875 510Q12876 500 12877 486Q12878 473 12879 456Q12909 483 12950 499Q12992 516 13034 516Q13092 516 13142 486Q13192 456 13223 400Q13254 345 13254 268Q13254 183 13218 119Q13183 55 13125 19Q13067 -16 12999 -16Q12964 -16 12934 -8Q12905 1 12879 17L12879 -149Q12879 -169 12878 -185Q12878 -200 12875 -217Q12891 -216 12906 -216Q12922 -215 12938 -214L12938 -255ZM12997 24Q13045 24 13079 53Q13114 83 13132 134Q13151 186 13151 252Q13151 306 13135 355Q13120 405 13086 436Q13053 467 12998 467Q12964 467 12932 450Q12901 434 12880 411Q12880 407 12880 399Q12881 392 12881 373Q12881 355 12881 318Q12881 282 12880 220Q12880 158 12880 63Q12905 44 12934 34Q12964 24 12997 24ZM13535 -255L13331 -255L13331 -225Q13362 -225 13374 -210Q13386 -194 13388 -167Q13390 -139 13390 -103L13392 380Q13392 396 13392 412Q13393 428 13396 445Q13378 444 13360 443Q13343 442 13325 441L13325 483Q13369 483 13391 487Q13414 491 13424 497Q13435 503 13442 510L13472 510Q13473 500 13474 486Q13475 473 13476 456Q13506 483 13547 499Q13589 516 13631 516Q13689 516 13739 486Q13789 456 13820 400Q13851 345 13851 268Q13851 183 13815 119Q13780 55 13722 19Q13664 -16 13596 -16Q13561 -16 13531 -8Q13502 1 13476 17L13476 -149Q13476 -169 13475 -185Q13475 -200 13472 -217Q13488 -216 13503 -216Q13519 -215 13535 -214L13535 -255ZM13594 24Q13642 24 13676 53Q13711 83 13729 134Q13748 186 13748 252Q13748 306 13732 355Q13717 405 13683 436Q13650 467 13595 467Q13561 467 13529 450Q13498 434 13477 411Q13477 407 13477 399Q13478 392 13478 373Q13478 355 13478 318Q13478 282 13477 220Q13477 158 13477 63Q13502 44 13531 34Q13561 24 13594 24ZM13927 0L13927 30Q13958 30 13970 45Q13982 61 13984 88Q13986 116 13986 152L13986 625Q13986 641 13986 655Q13987 670 13989 690Q13971 689 13953 688Q13936 687 13918 686L13918 728Q13962 728 13986 732Q14011 736 14023 742Q14036 748 14043 755L14072 755L14073 106Q14073 86 14072 70Q14071 55 14068 38Q14084 39 14099 39Q14115 40 14131 41L14131 0L13927 0ZM14209 0L14209 30Q14240 30 14252 45Q14264 61 14266 88Q14268 116 14268 152L14268 380Q14268 396 14269 410Q14270 425 14272 445Q14254 444 14236 443Q14219 442 14201 441L14201 483Q14245 483 14269 487Q14293 491 14305 497Q14318 503 14325 510L14354 510L14354 106Q14354 86 14353 70Q14353 55 14350 38Q14366 39 14381 39Q14397 40 14413 41L14413 0L14209 0ZM14306 609Q14285 609 14269 626Q14253 643 14253 668Q14253 693 14269 710Q14286 728 14307 728Q14330 728 14345 710Q14361 693 14361 668Q14361 643 14344 626Q14328 609 14306 609ZM14937 0L14794 0Q14791 17 14790 30Q14789 43 14787 57Q14753 23 14713 3Q14674 -16 14630 -16Q14554 -16 14517 18Q14480 53 14480 103Q14480 149 14508 182Q14537 216 14582 237Q14628 259 14681 269Q14735 280 14785 279L14785 341Q14785 376 14779 407Q14773 438 14753 458Q14733 478 14689 479Q14660 480 14629 468Q14599 456 14585 427Q14593 419 14595 408Q14598 398 14598 389Q14598 377 14588 361Q14578 346 14553 347Q14532 347 14521 361Q14510 376 14510 396Q14510 430 14535 457Q14561 484 14606 500Q14651 516 14708 516Q14792 516 14832 471Q14872 427 14871 331Q14871 294 14871 256Q14871 219 14870 181Q14870 144 14870 106Q14870 90 14869 74Q14868 58 14866 38Q14884 39 14901 40Q14919 41 14937 42L14937 0ZM14785 245Q14751 244 14713 236Q14676 229 14644 214Q14613 199 14593 174Q14574 150 14575 115Q14577 78 14599 59Q14622 41 14653 41Q14694 41 14724 56Q14755 72 14785 100Q14784 111 14784 124Q14784 137 14784 151Q14784 156 14784 183Q14785 210 14785 245ZM15210 0L15006 0L15006 30Q15037 30 15049 45Q15061 61 15063 88Q15065 116 15065 152L15066 380Q15066 396 15066 412Q15067 428 15070 445Q15052 444 15034 443Q15017 442 14999 441L14999 483Q15043 483 15065 487Q15088 491 15099 497Q15110 503 15117 510L15146 510Q15147 503 15147 494Q15148 485 15149 474Q15150 463 15150 449Q15172 468 15198 483Q15225 498 15254 507Q15284 516 15313 516Q15400 516 15440 461Q15480 407 15480 292L15480 106Q15480 86 15479 70Q15479 55 15476 38Q15492 39 15507 39Q15523 40 15539 41L15539 0L15335 0L15335 30Q15366 30 15378 45Q15390 61 15392 88Q15394 116 15394 152L15394 292Q15393 378 15365 422Q15338 466 15279 465Q15243 464 15208 446Q15174 428 15151 400Q15152 392 15152 382Q15152 372 15152 361L15151 106Q15151 86 15150 70Q15150 55 15147 38Q15163 39 15178 39Q15194 40 15210 41L15210 0ZM15857 -16Q15790 -16 15733 14Q15677 45 15643 102Q15610 160 15610 241Q15610 293 15629 342Q15648 391 15682 430Q15717 470 15765 493Q15813 516 15871 516Q15927 516 15968 499Q16010 482 16033 454Q16056 426 16056 393Q16056 371 16044 355Q16032 340 16009 340Q15984 339 15973 355Q15963 372 15963 385Q15963 395 15966 405Q15969 416 15978 425Q15970 449 15950 460Q15930 472 15908 475Q15887 479 15873 479Q15805 479 15758 424Q15712 370 15712 266Q15712 199 15733 147Q15755 95 15794 65Q15833 36 15884 36Q15931 36 15974 61Q16017 86 16041 122L16067 102Q16041 60 16004 34Q15968 8 15929 -4Q15891 -16 15857 -16ZM16387 -16Q16318 -16 16262 16Q16207 49 16175 108Q16143 168 16143 249Q16143 319 16174 380Q16206 441 16263 478Q16320 516 16395 516Q16437 516 16473 502Q16510 489 16538 461Q16566 434 16582 392Q16598 351 16598 295L16246 289Q16246 213 16262 155Q16279 98 16316 66Q16353 35 16411 35Q16442 35 16474 46Q16507 57 16535 76Q16563 95 16580 118L16604 98Q16577 56 16539 31Q16501 6 16461 -5Q16421 -16 16387 -16ZM16249 331L16504 331Q16504 367 16493 400Q16483 434 16459 455Q16435 477 16396 477Q16338 477 16299 442Q16261 408 16249 331ZM16892 -16Q16842 -16 16803 -3Q16764 11 16739 28L16743 -7L16701 -7L16695 165L16726 165Q16728 124 16749 91Q16770 59 16803 41Q16836 23 16874 23Q16900 23 16925 31Q16950 40 16967 57Q16984 75 16984 102Q16984 130 16967 148Q16951 167 16924 181Q16897 195 16866 207Q16836 219 16806 232Q16776 245 16750 263Q16725 281 16710 307Q16695 333 16695 371Q16695 392 16703 417Q16711 442 16730 464Q16749 487 16782 501Q16815 516 16866 516Q16893 516 16926 507Q16959 498 16990 473L16988 511L17030 511L17030 336L16998 336Q16996 371 16982 403Q16968 436 16941 457Q16914 479 16871 479Q16825 479 16799 456Q16773 433 16773 403Q16773 372 16792 351Q16812 331 16843 316Q16874 301 16909 287Q16947 271 16983 252Q17019 233 17042 204Q17065 176 17065 131Q17065 81 17039 48Q17014 15 16974 -1Q16935 -16 16892 -16Z" fill="#00203f" style=""></path></g></g></g></svg>