<svg version="1.1" xmlns="http://www.w3.org/2000/svg" viewBox="-2966.8061284489336 -1234.7 12322.506128448933 2966.85"><desc>Created with Snap</desc><defs></defs><g><g transform="matrix(26.1379,0,0,26.1379,-2790.2964,-1058.1622)"><g transform="translate(0,-952.36218)"><path style="" d="m 45.719885,957.36164 3.18651,38.66594 c -0.0104,0.002 -0.0207,0.005 -0.0312,0.007 -0.004,7.7e-4 -0.008,0.002 -0.0117,0.003 -0.0463,0.009 -0.093,0.0154 -0.13911,0.0247 -0.004,7.6e-4 -0.008,0.002 -0.0116,0.003 -0.0493,0.01 -0.0979,0.0214 -0.14692,0.0325 -0.006,9.5e-4 -0.0104,0.003 -0.0156,0.004 -0.2469,0.0566 -0.49069,0.12668 -0.72935,0.21192 -0.0121,0.005 -0.0243,0.009 -0.0364,0.013 -0.0131,0.005 -0.026,0.009 -0.039,0.0143 l -16.53063,-35.06206 -7.4261,4.25388 22.0885,31.88727 c -0.0888,0.0738 -0.17625,0.14988 -0.26131,0.22881 -0.007,0.007 -0.0138,0.013 -0.0208,0.0195 -0.0278,0.026 -0.0546,0.0528 -0.082,0.0793 -0.0108,0.0104 -0.0218,0.0207 -0.0325,0.0312 -0.027,0.0265 -0.054,0.0535 -0.0806,0.0806 -0.12959,0.13168 -0.25391,0.2685 -0.37052,0.40953 l -31.84697,-22.10018 -4.30459,7.3975 35.07899,16.57354 c -0.003,0.01 -0.006,0.016 -0.009,0.025 -0.0102,0.028 -0.0201,0.055 -0.0299,0.083 -0.004,0.012 -0.008,0.023 -0.0116,0.035 -0.01,0.029 -0.0205,0.057 -0.0299,0.086 -0.008,0.023 -0.0149,0.046 -0.0221,0.069 -0.0107,0.034 -0.0211,0.068 -0.0312,0.1014 -0.005,0.015 -0.009,0.029 -0.013,0.044 -0.009,0.032 -0.0187,0.063 -0.0273,0.095 -0.005,0.019 -0.009,0.037 -0.0143,0.056 -0.007,0.023 -0.0123,0.047 -0.0182,0.07 -0.004,0.015 -0.007,0.029 -0.0104,0.044 -0.0341,0.1397 -0.0639,0.2792 -0.0884,0.4199 l -38.65164,-3.1839 0.0299,8.5572 38.61653,-3.2138 c 0.0675,0.4021 0.1727,0.7969 0.31462,1.1792 l -35.06208,16.5293 4.25389,7.4274 31.88726,-22.0898 c 0.25307,0.3044 0.53719,0.5885 0.85027,0.8463 l -22.10152,31.8496 7.3975,4.3046 16.57354,-35.0803 c 0.37654,0.1391 0.76017,0.2403 1.14668,0.3055 l -3.18652,38.6634 8.55848,-0.03 -3.21511,-38.6374 c 0.0264,-0 0.053,-0.01 0.0793,-0.014 0.0321,-0.01 0.0642,-0.012 0.0962,-0.018 0.0335,-0.01 0.0668,-0.014 0.10011,-0.021 0.29999,-0.063 0.59199,-0.1459 0.87496,-0.2496 l 16.57481,35.0816 7.39621,-4.3046 -22.1015,-31.8496 c 0.30851,-0.2541 0.59265,-0.5371 0.84895,-0.8437 l 31.88727,22.0898 4.25388,-7.4274 -35.05427,-16.5268 c 0.14193,-0.3794 0.24892,-0.7761 0.31722,-1.1856 l 38.63343,3.2151 0.0299,-8.55722 -38.66854,3.18522 c -0.0674,-0.3924 -0.17038,-0.773 -0.30551,-1.1376 l 35.06857,-16.56831 -4.30458,-7.3975 -31.84437,22.0989 c -0.0287,-0.0346 -0.0565,-0.0688 -0.0858,-0.1027 -0.10171,-0.11774 -0.20865,-0.23059 -0.31853,-0.34063 -9.4e-4,-9.5e-4 -0.002,-0.003 -0.003,-0.004 -0.0341,-0.0341 -0.0691,-0.068 -0.104,-0.10142 -0.002,-0.002 -0.005,-0.005 -0.007,-0.007 -0.035,-0.0333 -0.071,-0.0663 -0.10661,-0.0988 -0.002,-0.002 -0.004,-0.005 -0.007,-0.007 -0.0357,-0.0325 -0.0714,-0.0633 -0.10791,-0.0949 -0.002,-0.002 -0.004,-0.005 -0.007,-0.007 -0.0335,-0.0291 -0.0686,-0.0575 -0.1027,-0.0858 l 22.08718,-31.88469 -7.42611,-4.25387 -16.52802,35.05687 c -0.37416,-0.13875 -0.76416,-0.24216 -1.16748,-0.30943 l 3.2151,-38.63342 -8.55848,-0.0299 z" fill="#143d59" fill-opacity="1" fill-rule="nonzero" stroke="none"></path></g><desc>Created with Snap</desc><defs></defs></g><g><g transform="matrix(0.5,0,0,-0.5,0,0)"><path d="M1231 776L1231 688L836 688L836 131Q836 54 795 19Q755 -16 672 -16Q588 -16 548 19Q508 54 508 131L508 688L352 688L352 776L508 776L508 1405Q476 1402 434 1393Q393 1385 349 1369Q306 1354 264 1333Q222 1312 189 1284Q156 1256 135 1221Q115 1187 115 1147Q115 1115 123 1096Q132 1077 143 1067Q154 1058 165 1055Q177 1053 182 1053Q207 1053 223 1061Q239 1070 252 1079Q265 1089 276 1097Q288 1106 303 1106Q315 1106 328 1100Q342 1095 353 1083Q365 1071 373 1051Q381 1032 381 1004Q381 964 365 934Q350 905 325 886Q301 867 269 857Q238 848 207 848Q159 848 120 864Q82 881 55 910Q28 939 14 977Q0 1016 0 1061Q0 1178 64 1260Q129 1342 241 1394Q353 1447 502 1471Q651 1495 821 1495Q890 1495 965 1493Q1040 1492 1106 1489Q1173 1486 1224 1482Q1275 1478 1296 1473Q1316 1468 1328 1462Q1340 1456 1346 1448Q1352 1440 1354 1429Q1356 1419 1356 1405Q1356 1393 1353 1378Q1350 1364 1344 1351Q1338 1339 1329 1330Q1320 1321 1307 1321Q1299 1321 1289 1328Q1280 1335 1262 1346Q1245 1357 1215 1369Q1186 1381 1136 1392Q1087 1403 1013 1410Q940 1417 836 1417L836 776L1231 776ZM2320 145L2240 422L1863 422Q1821 290 1772 193Q1724 96 1665 32Q1606 -32 1535 -63Q1465 -94 1378 -94Q1330 -94 1285 -86Q1241 -77 1207 -62Q1173 -47 1152 -27Q1132 -6 1132 18Q1132 36 1137 54Q1143 73 1153 88Q1163 104 1177 113Q1192 123 1210 123Q1226 123 1238 101Q1250 79 1268 52Q1287 26 1316 4Q1345 -18 1396 -18Q1448 -18 1495 7Q1542 32 1585 85Q1629 139 1669 222Q1709 305 1747 422L1511 422L1511 510L1773 510Q1806 622 1837 736Q1869 850 1897 955Q1925 1060 1947 1151Q1969 1243 1984 1311Q1964 1367 1929 1386Q1895 1405 1837 1405Q1783 1405 1725 1388Q1668 1372 1621 1341Q1574 1311 1543 1266Q1513 1222 1513 1167Q1513 1135 1521 1116Q1530 1097 1541 1087Q1553 1078 1564 1075Q1575 1073 1581 1073Q1605 1073 1621 1081Q1638 1090 1650 1099Q1663 1109 1675 1117Q1687 1126 1702 1126Q1713 1126 1726 1120Q1740 1115 1751 1103Q1763 1091 1771 1071Q1779 1052 1779 1024Q1779 984 1763 955Q1748 926 1723 906Q1699 887 1667 877Q1636 868 1605 868Q1557 868 1518 885Q1480 903 1453 933Q1426 963 1412 1003Q1398 1043 1398 1087Q1398 1153 1420 1208Q1442 1264 1481 1309Q1520 1355 1573 1389Q1626 1424 1687 1447Q1749 1471 1816 1483Q1883 1495 1951 1495Q2047 1495 2113 1479Q2180 1464 2225 1433Q2270 1403 2297 1356Q2325 1310 2343 1249L2558 510L2775 510L2775 422L2582 422L2660 160Q2664 145 2668 132Q2672 119 2677 109Q2683 100 2691 94Q2700 88 2713 88Q2741 88 2765 97Q2789 107 2807 117L2824 80Q2806 67 2778 50Q2751 34 2715 19Q2680 4 2637 -6Q2594 -16 2545 -16Q2477 -16 2435 1Q2394 18 2370 43Q2347 68 2336 96Q2326 124 2320 145ZM2216 510L2046 1098Q2005 931 1966 784Q1928 637 1890 510L2216 510ZM3952 358L3854 358L3494 1075L3481 834Q3475 729 3470 625Q3466 522 3454 428Q3442 335 3416 255Q3391 175 3342 116Q3294 58 3216 25Q3139 -8 3023 -8Q2972 -8 2925 0Q2878 9 2842 24Q2806 39 2784 59Q2763 80 2763 104Q2763 122 2768 140Q2773 159 2783 174Q2793 190 2807 199Q2822 209 2840 209Q2851 209 2859 198Q2868 187 2877 170Q2886 154 2897 135Q2909 116 2927 99Q2946 83 2972 72Q2998 61 3037 61Q3114 61 3166 87Q3219 114 3253 164Q3287 214 3305 285Q3323 356 3332 446Q3336 496 3340 542Q3344 589 3348 635Q3352 681 3355 728Q3359 776 3363 829Q3368 906 3372 975Q3376 1045 3378 1105Q3381 1165 3382 1213Q3384 1261 3385 1296Q3368 1331 3355 1352Q3342 1374 3328 1385Q3314 1397 3297 1401Q3280 1405 3256 1405Q3236 1405 3206 1397Q3177 1390 3145 1376Q3114 1362 3082 1341Q3051 1321 3026 1294Q3002 1268 2986 1236Q2971 1204 2971 1167Q2971 1135 2979 1116Q2988 1097 2999 1087Q3011 1078 3022 1075Q3034 1073 3039 1073Q3064 1073 3080 1081Q3096 1090 3109 1099Q3122 1109 3133 1117Q3145 1126 3160 1126Q3172 1126 3185 1120Q3199 1115 3210 1103Q3222 1091 3230 1071Q3238 1052 3238 1024Q3238 984 3222 955Q3207 926 3182 906Q3158 887 3126 877Q3095 868 3064 868Q3016 868 2977 884Q2939 901 2912 930Q2885 959 2871 998Q2857 1037 2857 1081Q2857 1185 2905 1262Q2953 1340 3031 1392Q3109 1444 3207 1469Q3306 1495 3408 1495Q3490 1495 3545 1478Q3600 1462 3637 1434Q3674 1407 3698 1370Q3722 1333 3742 1292L4006 756Q4109 959 4193 1119Q4278 1280 4350 1402Q4422 1524 4484 1610Q4547 1696 4605 1750Q4664 1805 4721 1830Q4779 1855 4841 1855Q4894 1855 4927 1832Q4960 1810 4960 1765Q4960 1725 4947 1699Q4934 1673 4911 1673Q4892 1673 4882 1687Q4872 1702 4862 1719Q4853 1736 4839 1750Q4825 1765 4798 1765Q4782 1765 4759 1756Q4736 1747 4711 1729Q4687 1711 4663 1684Q4639 1657 4621 1621Q4603 1585 4593 1539Q4583 1493 4587 1438Q4591 1375 4598 1290Q4605 1206 4613 1109Q4622 1013 4631 910Q4641 807 4651 707Q4661 607 4670 515Q4680 423 4688 348Q4696 274 4703 222Q4710 171 4714 152Q4720 123 4730 105Q4740 88 4766 88Q4793 88 4817 97Q4841 107 4860 117L4876 80Q4858 67 4830 50Q4803 34 4767 19Q4732 4 4689 -6Q4647 -16 4598 -16Q4529 -16 4489 1Q4449 19 4427 44Q4406 70 4398 98Q4391 127 4387 150Q4378 201 4368 273Q4358 345 4348 427Q4339 510 4330 597Q4321 685 4313 768Q4306 852 4300 926Q4294 1000 4290 1055Q4260 1006 4234 960Q4209 915 4185 867Q4161 820 4136 768Q4111 716 4083 655Q4056 594 4023 521Q3991 448 3952 358ZM5523 1178Q5523 1143 5534 1120Q5545 1098 5561 1082Q5578 1067 5597 1057Q5616 1047 5632 1036Q5649 1025 5660 1011Q5671 997 5671 975Q5671 938 5645 918Q5619 899 5585 899Q5553 899 5525 919Q5498 939 5477 973Q5457 1008 5445 1054Q5433 1101 5433 1153Q5433 1217 5453 1275Q5473 1334 5512 1378Q5551 1423 5608 1449Q5666 1475 5740 1475Q5790 1475 5849 1458Q5908 1442 5966 1406Q6025 1370 6079 1313Q6134 1256 6176 1174Q6219 1092 6244 984Q6269 876 6269 739Q6269 562 6216 422Q6164 282 6074 184Q5985 87 5867 35Q5749 -16 5617 -16Q5486 -16 5367 29Q5248 74 5157 166Q5067 259 5013 401Q4960 544 4960 739Q4960 890 5000 1014Q5041 1138 5109 1234Q5178 1330 5269 1395Q5360 1461 5462 1495L5496 1452Q5467 1423 5442 1392Q5417 1361 5396 1321Q5375 1282 5358 1230Q5342 1179 5331 1109Q5320 1040 5314 949Q5308 858 5308 739Q5308 585 5324 476Q5341 367 5367 293Q5394 220 5427 176Q5461 133 5495 111Q5529 89 5561 82Q5593 76 5617 76Q5641 76 5672 82Q5704 89 5737 111Q5771 133 5804 176Q5837 220 5862 293Q5888 367 5904 476Q5920 585 5920 739Q5920 874 5908 974Q5896 1074 5876 1145Q5857 1216 5831 1261Q5806 1307 5778 1333Q5751 1360 5723 1370Q5696 1380 5673 1380Q5637 1380 5609 1363Q5581 1346 5562 1317Q5543 1289 5533 1252Q5523 1216 5523 1178ZM7762 -16Q7711 -16 7678 -7Q7645 3 7624 19Q7604 35 7594 54Q7584 74 7580 94Q7517 48 7435 16Q7353 -16 7250 -16Q7158 -16 7079 10Q7001 36 6942 90Q6884 145 6851 230Q6818 316 6818 436Q6818 524 6821 594Q6824 664 6828 725Q6833 787 6838 844Q6844 901 6848 963Q6853 1025 6856 1096Q6859 1167 6859 1257Q6859 1285 6853 1310Q6848 1336 6835 1355Q6823 1375 6801 1387Q6779 1399 6746 1399Q6714 1399 6666 1383Q6618 1368 6573 1338Q6529 1309 6497 1265Q6466 1222 6466 1167Q6466 1135 6474 1116Q6483 1097 6494 1087Q6505 1078 6516 1075Q6528 1073 6533 1073Q6558 1073 6574 1081Q6590 1090 6603 1099Q6616 1109 6627 1117Q6639 1126 6654 1126Q6666 1126 6679 1120Q6693 1115 6704 1103Q6716 1091 6724 1071Q6732 1052 6732 1024Q6732 984 6716 955Q6701 926 6676 906Q6652 887 6620 877Q6589 868 6558 868Q6510 868 6471 884Q6433 901 6406 930Q6379 959 6365 998Q6351 1037 6351 1081Q6351 1150 6374 1207Q6397 1265 6437 1311Q6477 1357 6529 1391Q6582 1426 6642 1449Q6702 1472 6765 1483Q6828 1495 6888 1495Q6957 1495 7005 1480Q7054 1466 7087 1443Q7121 1420 7140 1392Q7160 1364 7170 1337Q7181 1311 7184 1289Q7187 1268 7187 1257Q7187 1176 7184 1108Q7181 1041 7176 979Q7172 917 7166 857Q7161 798 7156 733Q7152 669 7149 596Q7146 524 7146 436Q7146 327 7167 260Q7189 194 7221 158Q7253 122 7289 110Q7326 98 7355 98Q7410 98 7466 116Q7523 134 7576 168L7576 1327Q7576 1356 7563 1373Q7551 1391 7525 1391Q7497 1391 7473 1381Q7449 1371 7430 1362L7414 1399Q7439 1412 7475 1428Q7511 1445 7552 1460Q7593 1475 7636 1485Q7679 1495 7717 1495Q7785 1495 7822 1477Q7860 1460 7878 1434Q7896 1409 7899 1380Q7903 1351 7903 1329L7903 152Q7903 123 7916 105Q7929 88 7955 88Q7982 88 8006 97Q8030 107 8049 117L8065 80Q8040 67 8004 50Q7968 34 7927 19Q7886 4 7843 -6Q7800 -16 7762 -16ZM8503 -145Q8543 -145 8582 -131Q8621 -116 8651 -83Q8682 -49 8701 5Q8720 59 8720 137Q8720 221 8678 300Q8637 379 8574 455Q8512 532 8439 607Q8367 683 8304 761Q8242 840 8200 923Q8159 1007 8159 1098Q8159 1189 8192 1262Q8226 1336 8283 1387Q8341 1439 8417 1467Q8494 1495 8581 1495Q8674 1495 8746 1475Q8819 1456 8869 1422Q8920 1389 8946 1343Q8972 1298 8972 1247Q8972 1223 8965 1197Q8958 1172 8943 1151Q8928 1130 8905 1116Q8882 1102 8851 1102Q8814 1102 8796 1124Q8779 1147 8770 1180Q8762 1213 8756 1252Q8750 1292 8737 1325Q8724 1358 8698 1380Q8672 1403 8622 1403Q8595 1403 8568 1391Q8542 1379 8520 1354Q8499 1330 8486 1292Q8473 1254 8473 1202Q8473 1142 8498 1085Q8523 1028 8564 972Q8605 917 8657 861Q8710 806 8764 749Q8819 693 8871 633Q8924 574 8965 510Q9006 446 9031 376Q9056 306 9056 229Q9056 116 9012 27Q8969 -61 8894 -122Q8820 -182 8720 -214Q8620 -246 8507 -246Q8405 -246 8326 -221Q8248 -195 8194 -153Q8140 -111 8112 -58Q8085 -4 8085 53Q8085 77 8092 104Q8100 132 8114 155Q8129 178 8151 193Q8173 209 8202 209Q8232 209 8250 194Q8269 179 8280 154Q8291 129 8298 97Q8305 65 8313 32Q8321 -1 8333 -33Q8345 -65 8366 -90Q8387 -115 8420 -130Q8453 -145 8503 -145ZM10927 705L10927 616L10783 616L10783 29Q10783 -107 10737 -209Q10691 -310 10608 -378Q10526 -445 10413 -479Q10300 -512 10167 -512Q10116 -512 10069 -504Q10022 -495 9986 -480Q9950 -465 9928 -445Q9907 -424 9907 -399Q9907 -381 9912 -363Q9917 -344 9927 -329Q9937 -314 9951 -305Q9966 -295 9984 -295Q9996 -295 10004 -306Q10012 -317 10021 -333Q10030 -349 10042 -369Q10054 -388 10072 -404Q10090 -420 10116 -431Q10142 -442 10181 -442Q10258 -442 10317 -414Q10376 -386 10415 -336Q10455 -285 10475 -215Q10496 -144 10496 -59L10496 2Q10454 -7 10411 -12Q10369 -16 10316 -16Q10180 -16 10061 25Q9942 67 9853 154Q9765 241 9714 376Q9663 511 9663 698Q9663 828 9691 938Q9719 1048 9769 1136Q9819 1225 9887 1292Q9956 1359 10036 1404Q10117 1449 10206 1472Q10296 1495 10388 1495Q10475 1495 10550 1478Q10625 1462 10680 1430Q10736 1399 10768 1352Q10800 1306 10800 1247Q10800 1220 10790 1190Q10781 1161 10763 1136Q10745 1112 10717 1096Q10690 1081 10654 1081Q10611 1081 10590 1105Q10570 1130 10559 1166Q10549 1202 10544 1245Q10539 1288 10527 1324Q10515 1360 10490 1384Q10466 1409 10419 1409Q10384 1409 10340 1392Q10296 1375 10251 1338Q10206 1302 10162 1245Q10119 1189 10085 1110Q10052 1031 10031 928Q10011 826 10011 698Q10011 556 10029 455Q10047 355 10076 287Q10106 220 10144 180Q10183 141 10224 121Q10265 101 10305 95Q10346 90 10380 90Q10415 90 10444 95Q10473 101 10496 111L10496 616L10320 616L10320 705L10927 705ZM11783 1356L11783 227Q11783 184 11793 157Q11804 131 11824 116Q11844 101 11874 95Q11905 90 11946 90Q12012 90 12065 103Q12118 117 12158 133Q12198 150 12225 164Q12253 178 12268 178Q12287 178 12298 166Q12309 154 12309 131Q12309 91 12301 73Q12293 56 12268 47Q12177 15 12063 -1Q11949 -16 11805 -16Q11698 -16 11630 -7Q11562 3 11523 27Q11484 51 11469 92Q11455 134 11455 199L11455 1335Q11455 1357 11450 1370Q11445 1383 11436 1390Q11427 1398 11414 1400Q11402 1403 11387 1403Q11365 1403 11332 1396Q11300 1389 11264 1375Q11228 1361 11191 1340Q11155 1320 11126 1294Q11098 1268 11080 1236Q11062 1204 11062 1167Q11062 1135 11070 1116Q11079 1097 11090 1087Q11101 1078 11112 1075Q11124 1073 11129 1073Q11154 1073 11170 1081Q11186 1090 11199 1099Q11212 1109 11223 1117Q11235 1126 11250 1126Q11262 1126 11275 1120Q11289 1115 11300 1103Q11312 1091 11320 1071Q11328 1052 11328 1024Q11328 984 11312 955Q11297 926 11272 906Q11248 887 11216 877Q11185 868 11154 868Q11106 868 11067 884Q11029 901 11002 930Q10975 959 10961 998Q10947 1037 10947 1081Q10947 1150 10972 1207Q10997 1265 11040 1311Q11084 1357 11142 1391Q11201 1426 11269 1449Q11337 1472 11411 1483Q11485 1495 11559 1495Q11641 1495 11686 1479Q11732 1464 11753 1442Q11775 1420 11779 1396Q11783 1372 11783 1356ZM13312 145L13232 422L12855 422Q12813 290 12764 193Q12716 96 12657 32Q12598 -32 12527 -63Q12457 -94 12370 -94Q12322 -94 12277 -86Q12233 -77 12199 -62Q12165 -47 12144 -27Q12124 -6 12124 18Q12124 36 12129 54Q12135 73 12145 88Q12155 104 12169 113Q12184 123 12202 123Q12218 123 12230 101Q12242 79 12260 52Q12279 26 12308 4Q12337 -18 12388 -18Q12440 -18 12487 7Q12534 32 12577 85Q12621 139 12661 222Q12701 305 12739 422L12503 422L12503 510L12765 510Q12798 622 12829 736Q12861 850 12889 955Q12917 1060 12939 1151Q12961 1243 12976 1311Q12956 1367 12921 1386Q12887 1405 12829 1405Q12775 1405 12717 1388Q12660 1372 12613 1341Q12566 1311 12535 1266Q12505 1222 12505 1167Q12505 1135 12513 1116Q12522 1097 12533 1087Q12545 1078 12556 1075Q12567 1073 12573 1073Q12597 1073 12613 1081Q12630 1090 12642 1099Q12655 1109 12667 1117Q12679 1126 12694 1126Q12705 1126 12718 1120Q12732 1115 12743 1103Q12755 1091 12763 1071Q12771 1052 12771 1024Q12771 984 12755 955Q12740 926 12715 906Q12691 887 12659 877Q12628 868 12597 868Q12549 868 12510 885Q12472 903 12445 933Q12418 963 12404 1003Q12390 1043 12390 1087Q12390 1153 12412 1208Q12434 1264 12473 1309Q12512 1355 12565 1389Q12618 1424 12679 1447Q12741 1471 12808 1483Q12875 1495 12943 1495Q13039 1495 13105 1479Q13172 1464 13217 1433Q13262 1403 13289 1356Q13317 1310 13335 1249L13550 510L13767 510L13767 422L13574 422L13652 160Q13656 145 13660 132Q13664 119 13669 109Q13675 100 13683 94Q13692 88 13705 88Q13733 88 13757 97Q13781 107 13799 117L13816 80Q13798 67 13770 50Q13743 34 13707 19Q13672 4 13629 -6Q13586 -16 13537 -16Q13469 -16 13427 1Q13386 18 13362 43Q13339 68 13328 96Q13318 124 13312 145ZM13208 510L13038 1098Q12997 931 12958 784Q12920 637 12882 510L13208 510ZM14252 -145Q14292 -145 14331 -131Q14370 -116 14400 -83Q14431 -49 14450 5Q14469 59 14469 137Q14469 221 14427 300Q14386 379 14323 455Q14261 532 14188 607Q14116 683 14053 761Q13991 840 13949 923Q13908 1007 13908 1098Q13908 1189 13941 1262Q13975 1336 14032 1387Q14090 1439 14166 1467Q14243 1495 14330 1495Q14423 1495 14495 1475Q14568 1456 14618 1422Q14669 1389 14695 1343Q14721 1298 14721 1247Q14721 1223 14714 1197Q14707 1172 14692 1151Q14677 1130 14654 1116Q14631 1102 14600 1102Q14563 1102 14545 1124Q14528 1147 14519 1180Q14511 1213 14505 1252Q14499 1292 14486 1325Q14473 1358 14447 1380Q14421 1403 14371 1403Q14344 1403 14317 1391Q14291 1379 14269 1354Q14248 1330 14235 1292Q14222 1254 14222 1202Q14222 1142 14247 1085Q14272 1028 14313 972Q14354 917 14406 861Q14459 806 14513 749Q14568 693 14620 633Q14673 574 14714 510Q14755 446 14780 376Q14805 306 14805 229Q14805 116 14761 27Q14718 -61 14643 -122Q14569 -182 14469 -214Q14369 -246 14256 -246Q14154 -246 14075 -221Q13997 -195 13943 -153Q13889 -111 13861 -58Q13834 -4 13834 53Q13834 77 13841 104Q13849 132 13863 155Q13878 178 13900 193Q13922 209 13951 209Q13981 209 13999 194Q14018 179 14029 154Q14040 129 14047 97Q14054 65 14062 32Q14070 -1 14082 -33Q14094 -65 14115 -90Q14136 -115 14169 -130Q14202 -145 14252 -145ZM15305 -145Q15345 -145 15384 -131Q15423 -116 15453 -83Q15484 -49 15503 5Q15522 59 15522 137Q15522 221 15480 300Q15439 379 15376 455Q15314 532 15241 607Q15169 683 15106 761Q15044 840 15002 923Q14961 1007 14961 1098Q14961 1189 14994 1262Q15028 1336 15085 1387Q15143 1439 15219 1467Q15296 1495 15383 1495Q15476 1495 15548 1475Q15621 1456 15671 1422Q15722 1389 15748 1343Q15774 1298 15774 1247Q15774 1223 15767 1197Q15760 1172 15745 1151Q15730 1130 15707 1116Q15684 1102 15653 1102Q15616 1102 15598 1124Q15581 1147 15572 1180Q15564 1213 15558 1252Q15552 1292 15539 1325Q15526 1358 15500 1380Q15474 1403 15424 1403Q15397 1403 15370 1391Q15344 1379 15322 1354Q15301 1330 15288 1292Q15275 1254 15275 1202Q15275 1142 15300 1085Q15325 1028 15366 972Q15407 917 15459 861Q15512 806 15566 749Q15621 693 15673 633Q15726 574 15767 510Q15808 446 15833 376Q15858 306 15858 229Q15858 116 15814 27Q15771 -61 15696 -122Q15622 -182 15522 -214Q15422 -246 15309 -246Q15207 -246 15128 -221Q15050 -195 14996 -153Q14942 -111 14914 -58Q14887 -4 14887 53Q14887 77 14894 104Q14902 132 14916 155Q14931 178 14953 193Q14975 209 15004 209Q15034 209 15052 194Q15071 179 15082 154Q15093 129 15100 97Q15107 65 15115 32Q15123 -1 15135 -33Q15147 -65 15168 -90Q15189 -115 15222 -130Q15255 -145 15305 -145ZM16045 152Q16045 187 16058 218Q16071 249 16093 272Q16116 295 16147 308Q16178 322 16213 322Q16248 322 16279 308Q16310 295 16333 272Q16356 249 16369 218Q16383 187 16383 152Q16383 116 16369 85Q16356 55 16333 32Q16310 10 16279 -3Q16248 -16 16213 -16Q16178 -16 16147 -3Q16116 10 16093 32Q16071 55 16058 85Q16045 116 16045 152ZM16950 872L16950 90Q16950 77 16945 58Q16941 40 16924 23Q16908 7 16877 -5Q16846 -16 16793 -16Q16740 -16 16710 -4Q16680 9 16665 26Q16650 43 16646 61Q16643 79 16643 90L16643 862Q16643 891 16629 912Q16616 934 16584 934Q16567 934 16555 928Q16543 922 16529 911L16508 936Q16531 955 16559 973Q16588 992 16621 1006Q16654 1020 16692 1029Q16730 1038 16772 1038Q16837 1038 16873 1020Q16909 1003 16926 977Q16943 952 16946 923Q16950 894 16950 872ZM16612 1266Q16612 1294 16624 1319Q16637 1345 16659 1364Q16682 1383 16711 1394Q16741 1405 16776 1405Q16810 1405 16839 1394Q16869 1383 16891 1364Q16913 1345 16925 1319Q16938 1294 16938 1266Q16938 1237 16925 1212Q16913 1187 16891 1168Q16869 1150 16839 1139Q16810 1128 16776 1128Q16741 1128 16711 1139Q16682 1150 16659 1168Q16637 1187 16624 1212Q16612 1237 16612 1266ZM17790 498Q17790 624 17778 699Q17767 775 17748 814Q17729 854 17706 866Q17683 879 17659 879Q17630 879 17607 863Q17585 848 17568 828Q17552 808 17540 788Q17529 768 17521 758L17521 90Q17521 77 17517 58Q17513 40 17497 23Q17482 7 17451 -5Q17421 -16 17368 -16Q17315 -16 17284 -4Q17254 9 17238 26Q17222 43 17218 61Q17214 79 17214 90L17214 862Q17214 891 17200 912Q17187 934 17155 934Q17138 934 17126 928Q17114 922 17100 911L17079 936Q17102 955 17130 973Q17159 992 17192 1006Q17225 1020 17263 1029Q17301 1038 17343 1038Q17408 1038 17444 1016Q17480 995 17497 965Q17514 935 17517 902Q17521 870 17521 848Q17558 901 17605 943Q17624 961 17647 978Q17671 995 17697 1008Q17724 1022 17753 1030Q17783 1038 17814 1038Q17882 1038 17934 1012Q17987 986 18023 925Q18059 864 18078 763Q18097 663 18097 514Q18097 369 18071 262Q18045 155 18003 80Q17961 5 17908 -43Q17855 -90 17801 -117Q17747 -144 17697 -155Q17648 -165 17612 -166L17601 -125Q17631 -118 17656 -103Q17682 -88 17703 -59Q17724 -30 17740 14Q17756 59 17767 126Q17779 193 17784 284Q17790 376 17790 498Z" fill="#143d59" style=""></path></g></g><g transform="matrix(0.75,0,0,0.75,-25.5,1108.45)"><g transform="matrix(0.5,0,0,-0.5,0,0)"><path d="M492 788Q454 788 427 814Q401 840 401 891Q401 902 402 913Q404 925 407 934Q410 944 414 950Q419 956 424 956Q429 956 433 953Q438 950 445 946Q453 942 466 939Q479 936 502 936Q557 936 615 953Q673 971 720 1003Q768 1036 798 1082Q829 1128 829 1186Q829 1207 822 1227Q815 1247 801 1262Q787 1278 765 1288Q744 1298 715 1298Q635 1298 568 1263Q502 1228 448 1168Q394 1109 353 1031Q313 953 286 866Q259 780 245 691Q231 602 231 522Q231 426 243 344Q255 263 282 204Q309 145 354 111Q399 78 465 78Q525 78 571 108Q617 139 651 191Q686 243 710 312Q735 382 753 461Q771 540 784 624Q797 708 807 788Q810 808 836 818Q862 829 891 829Q903 829 916 826Q929 823 938 817Q948 811 952 801Q957 791 954 776Q946 736 937 649Q928 563 928 442Q928 341 929 268Q931 195 934 142Q937 89 940 53Q943 18 946 -6Q952 -15 952 -20Q952 -30 942 -39Q932 -48 917 -55Q902 -62 883 -66Q865 -70 848 -70Q821 -70 807 -59Q793 -48 786 -23Q780 3 778 45Q776 88 774 150Q751 101 717 59Q683 17 641 -15Q599 -46 549 -64Q500 -82 446 -82Q362 -82 292 -50Q223 -18 173 53Q123 124 95 238Q68 353 68 518Q68 631 89 744Q111 858 151 962Q192 1066 250 1156Q309 1246 382 1312Q455 1378 541 1416Q628 1454 725 1454Q788 1454 837 1434Q887 1414 921 1378Q955 1343 973 1295Q991 1248 991 1194Q991 1105 948 1030Q905 956 835 902Q765 848 675 818Q585 788 492 788ZM1655 281Q1647 249 1625 241Q1603 234 1581 243Q1560 252 1545 274Q1531 296 1537 322Q1552 390 1580 472Q1609 555 1637 637Q1622 660 1613 683Q1604 707 1604 733Q1604 759 1623 787Q1643 816 1670 840Q1698 864 1727 879Q1757 895 1778 895Q1815 895 1833 870Q1852 845 1852 803Q1852 780 1844 757Q1837 735 1828 715Q1819 696 1811 682Q1804 668 1803 664Q1839 600 1878 551Q1917 502 1949 454Q1982 406 2003 352Q2024 298 2024 225Q2024 207 2021 188Q2019 169 2014 152Q2050 159 2077 174Q2105 189 2125 208Q2146 228 2159 251Q2173 274 2182 299Q2193 328 2204 341Q2215 354 2229 354Q2242 354 2255 345Q2269 337 2279 324Q2290 311 2296 297Q2303 283 2303 272Q2303 257 2295 236Q2287 215 2273 193Q2260 171 2243 150Q2226 130 2208 115Q2160 76 2095 49Q2030 23 1934 16Q1897 -16 1846 -37Q1796 -57 1733 -57Q1701 -57 1667 -49Q1634 -41 1603 -29Q1573 -16 1548 -1Q1523 14 1508 29Q1470 65 1459 101Q1448 138 1453 167Q1459 196 1475 214Q1491 233 1508 233Q1518 233 1539 224Q1561 216 1589 202Q1617 189 1650 174Q1683 159 1716 145Q1749 132 1780 123Q1812 115 1838 115Q1855 135 1869 168Q1883 201 1883 240Q1883 288 1870 329Q1857 370 1836 405Q1815 440 1788 470Q1762 501 1735 528Q1711 469 1693 411Q1675 354 1655 281ZM2192 33L2192 1262Q2192 1284 2188 1297Q2185 1310 2181 1317Q2178 1325 2174 1329Q2171 1334 2171 1339Q2171 1345 2177 1349Q2183 1353 2193 1356Q2203 1359 2214 1360Q2226 1362 2237 1362Q2288 1362 2317 1335Q2347 1309 2347 1272L2347 600Q2368 643 2392 680Q2417 717 2445 744Q2474 772 2506 787Q2539 803 2577 803Q2628 803 2661 784Q2694 765 2713 735Q2732 705 2739 668Q2747 631 2747 596L2747 172Q2747 165 2748 149Q2749 134 2754 118Q2759 102 2769 90Q2780 78 2800 78Q2831 78 2853 100Q2876 122 2892 155Q2909 188 2919 226Q2930 265 2937 299Q2943 330 2955 344Q2968 358 2982 359Q2997 361 3012 352Q3027 343 3038 328Q3049 314 3054 296Q3060 278 3056 262Q3042 211 3019 155Q2997 99 2962 52Q2927 5 2878 -26Q2829 -57 2763 -57Q2722 -57 2690 -42Q2659 -26 2636 0Q2614 26 2602 61Q2591 96 2591 135L2591 551Q2591 575 2590 596Q2589 617 2584 633Q2580 649 2571 658Q2563 668 2548 668Q2526 668 2494 638Q2462 608 2431 560Q2400 512 2376 451Q2353 391 2347 330L2347 31Q2347 16 2346 0Q2346 -15 2340 -28Q2335 -40 2323 -49Q2312 -57 2290 -57Q2275 -57 2257 -54Q2240 -50 2225 -41Q2211 -31 2201 -14Q2192 4 2192 33ZM3695 338Q3697 350 3708 358Q3720 366 3735 369Q3750 372 3766 369Q3783 366 3795 355Q3808 345 3813 326Q3819 308 3812 279Q3803 237 3782 200Q3762 164 3731 136Q3700 108 3658 92Q3616 76 3564 76Q3536 76 3511 79Q3487 82 3464 90Q3426 24 3366 -17Q3306 -57 3218 -57Q3140 -57 3084 -27Q3028 4 2991 56Q2954 109 2936 178Q2919 247 2919 324Q2919 437 2945 526Q2972 616 3007 678Q3042 741 3076 774Q3111 807 3128 807Q3148 807 3164 789Q3181 772 3188 748Q3196 725 3192 701Q3189 677 3169 664Q3157 645 3140 620Q3124 595 3109 557Q3095 520 3085 466Q3075 412 3075 336Q3075 271 3086 223Q3098 175 3118 142Q3139 110 3165 94Q3192 78 3222 78Q3266 78 3294 99Q3323 121 3343 156Q3271 218 3233 313Q3196 409 3196 520Q3196 568 3206 611Q3217 655 3237 688Q3258 721 3289 740Q3320 760 3361 760Q3397 760 3429 734Q3461 708 3485 662Q3509 616 3522 553Q3536 490 3536 416Q3536 359 3529 303Q3522 247 3507 195Q3518 191 3527 190Q3537 190 3548 190Q3581 190 3606 202Q3632 214 3650 234Q3668 254 3679 281Q3690 308 3695 338ZM3304 528Q3304 459 3325 397Q3347 335 3382 289Q3388 338 3388 383Q3388 435 3386 479Q3385 524 3379 556Q3374 588 3364 606Q3355 625 3339 625Q3304 625 3304 528ZM3950 -78Q3912 -78 3888 -70Q3864 -61 3851 -47L3851 -713Q3851 -741 3840 -759Q3829 -776 3812 -786Q3796 -796 3777 -800Q3758 -803 3743 -803Q3712 -803 3704 -787Q3696 -771 3696 -748L3696 682Q3696 704 3692 717Q3689 730 3685 737Q3682 745 3678 749Q3675 754 3675 760Q3675 765 3681 769Q3687 773 3697 776Q3707 779 3718 780Q3730 782 3741 782Q3790 782 3819 755Q3849 729 3851 694Q3883 741 3928 772Q3973 803 4038 803Q4098 803 4142 775Q4187 747 4216 698Q4246 650 4260 584Q4275 518 4275 442Q4275 356 4260 277Q4245 199 4222 143Q4273 146 4306 157Q4339 168 4361 187Q4384 207 4400 235Q4417 263 4435 299Q4449 328 4458 341Q4468 354 4482 354Q4495 354 4508 346Q4522 338 4532 326Q4543 314 4549 300Q4556 287 4556 276Q4556 241 4532 196Q4508 151 4458 111Q4409 71 4333 43Q4258 16 4156 16Q4114 -29 4059 -54Q4004 -78 3950 -78ZM3986 666Q3964 666 3943 653Q3923 640 3905 617Q3887 595 3873 563Q3860 531 3851 494L3851 51Q3873 83 3923 100Q3973 117 4044 123Q4062 150 4075 187Q4089 225 4098 265Q4107 305 4111 343Q4116 381 4116 410Q4116 480 4105 529Q4095 578 4077 608Q4059 639 4035 652Q4012 666 3986 666ZM5277 586L5041 600L5041 555Q5111 470 5167 380Q5224 291 5263 192Q5303 93 5324 -17Q5346 -127 5346 -254Q5346 -382 5326 -491Q5307 -599 5271 -678Q5236 -756 5185 -800Q5135 -844 5074 -844Q5020 -844 4984 -818Q4948 -791 4926 -748Q4905 -704 4895 -649Q4886 -594 4886 -537L4886 565Q4883 568 4879 572Q4876 576 4873 580Q4849 604 4829 624Q4810 645 4810 670Q4810 685 4821 700Q4832 716 4857 719Q4862 719 4869 720Q4876 721 4886 721L4886 1303Q4886 1325 4882 1338Q4879 1351 4875 1358Q4872 1366 4868 1370Q4865 1375 4865 1380Q4865 1386 4871 1390Q4877 1394 4887 1397Q4897 1400 4908 1401Q4920 1403 4931 1403Q4982 1403 5011 1376Q5041 1350 5041 1313L5041 733Q5077 736 5113 738Q5149 741 5183 743Q5217 746 5245 747Q5274 748 5295 748Q5329 748 5354 735Q5379 722 5379 690Q5379 679 5376 658Q5374 637 5369 615Q5365 593 5357 577Q5350 561 5340 561Q5335 561 5332 564Q5330 568 5324 572Q5319 576 5308 580Q5298 584 5277 586ZM5191 -254Q5191 -184 5181 -110Q5172 -35 5153 41Q5134 118 5106 193Q5078 269 5041 340L5041 -537Q5041 -561 5043 -589Q5045 -617 5050 -640Q5056 -663 5065 -679Q5075 -694 5090 -694Q5112 -694 5131 -662Q5150 -630 5163 -572Q5176 -513 5183 -433Q5191 -352 5191 -254ZM6184 338Q6186 350 6197 358Q6209 366 6224 369Q6239 372 6255 369Q6272 366 6284 355Q6297 345 6302 326Q6308 308 6301 279Q6292 237 6271 200Q6251 164 6220 136Q6189 108 6147 92Q6105 76 6053 76Q6025 76 6000 79Q5976 82 5953 90Q5915 24 5855 -17Q5795 -57 5707 -57Q5629 -57 5573 -27Q5517 4 5480 56Q5443 109 5425 178Q5408 247 5408 324Q5408 437 5434 526Q5461 616 5496 678Q5531 741 5565 774Q5600 807 5617 807Q5637 807 5653 789Q5670 772 5677 748Q5685 725 5681 701Q5678 677 5658 664Q5646 645 5629 620Q5613 595 5598 557Q5584 520 5574 466Q5564 412 5564 336Q5564 271 5575 223Q5587 175 5607 142Q5628 110 5654 94Q5681 78 5711 78Q5755 78 5783 99Q5812 121 5832 156Q5760 218 5722 313Q5685 409 5685 520Q5685 568 5695 611Q5706 655 5726 688Q5747 721 5778 740Q5809 760 5850 760Q5886 760 5918 734Q5950 708 5974 662Q5998 616 6011 553Q6025 490 6025 416Q6025 359 6018 303Q6011 247 5996 195Q6007 191 6016 190Q6026 190 6037 190Q6070 190 6095 202Q6121 214 6139 234Q6157 254 6168 281Q6179 308 6184 338ZM5793 528Q5793 459 5814 397Q5836 335 5871 289Q5877 338 5877 383Q5877 435 5875 479Q5874 524 5868 556Q5863 588 5853 606Q5844 625 5828 625Q5793 625 5793 528ZM6631 -57Q6595 -57 6557 -46Q6520 -35 6489 -8Q6459 19 6439 63Q6420 108 6420 176Q6420 275 6446 385Q6473 496 6523 629L6367 629L6344 629Q6343 599 6340 553Q6338 507 6332 455Q6326 403 6316 350Q6307 297 6293 252Q6283 220 6261 215Q6240 210 6219 222Q6198 235 6185 259Q6172 283 6179 309Q6187 340 6193 384Q6199 429 6202 478Q6206 528 6208 577Q6210 627 6211 666Q6173 687 6148 719Q6123 752 6123 797Q6123 818 6131 835Q6140 853 6154 865Q6168 878 6187 884Q6206 891 6226 891Q6244 891 6263 886Q6283 881 6300 868Q6318 855 6332 834Q6346 813 6355 782Q6380 779 6397 777Q6415 776 6427 775Q6439 774 6447 774Q6455 774 6463 774L6570 774Q6579 774 6596 763Q6614 752 6631 734Q6648 717 6659 697Q6671 677 6668 659Q6668 653 6661 630Q6654 607 6644 572Q6634 537 6622 491Q6610 446 6600 396Q6590 346 6583 292Q6576 239 6576 188Q6576 167 6581 147Q6586 127 6596 111Q6606 96 6621 87Q6637 78 6658 78Q6693 78 6718 100Q6743 122 6760 155Q6777 188 6787 226Q6798 265 6805 299Q6811 331 6825 345Q6839 360 6854 360Q6866 360 6879 352Q6892 345 6902 333Q6913 321 6919 306Q6926 291 6926 276Q6926 271 6925 268Q6924 265 6924 262Q6910 211 6887 155Q6865 99 6830 52Q6795 5 6746 -26Q6697 -57 6631 -57ZM7474 -57Q7414 -57 7368 -33Q7323 -9 7292 32Q7261 74 7245 130Q7230 187 7230 252Q7230 380 7271 482Q7312 584 7380 655Q7448 727 7535 765Q7623 803 7717 803Q7759 803 7785 780Q7811 757 7811 717Q7811 691 7805 680Q7800 670 7785 670Q7771 670 7756 672Q7741 674 7725 674Q7667 674 7607 648Q7547 623 7498 570Q7450 518 7419 437Q7388 357 7388 246Q7388 165 7419 121Q7450 78 7504 78Q7535 78 7558 96Q7581 114 7598 142Q7615 170 7625 203Q7636 237 7642 268L7642 500Q7642 515 7640 525Q7639 535 7637 542Q7636 549 7634 554Q7633 560 7633 565Q7633 581 7649 590Q7665 600 7687 600Q7738 600 7767 573Q7797 547 7797 510L7797 -55Q7860 10 7914 95Q7969 180 8004 299Q8013 331 8025 345Q8038 360 8053 360Q8065 360 8078 352Q8091 345 8101 333Q8112 321 8118 306Q8125 291 8125 276Q8125 274 8125 268Q8125 262 8123 256Q8099 175 8068 110Q8037 46 8001 -6Q7966 -58 7927 -99Q7889 -140 7850 -174Q7896 -225 7933 -273Q7970 -320 7995 -368Q8021 -416 8035 -466Q8049 -516 8049 -571Q8049 -632 8032 -682Q8016 -732 7988 -768Q7961 -804 7924 -824Q7887 -844 7846 -844Q7742 -844 7692 -772Q7642 -699 7642 -573L7642 18Q7611 -14 7570 -36Q7529 -57 7474 -57ZM7904 -594Q7904 -557 7899 -520Q7895 -483 7883 -446Q7871 -409 7850 -370Q7829 -331 7797 -289L7797 -592Q7797 -628 7802 -651Q7808 -674 7816 -687Q7824 -699 7833 -704Q7842 -709 7850 -709Q7870 -709 7887 -682Q7904 -654 7904 -594ZM8576 -57Q8541 -57 8512 -46Q8484 -35 8462 -16Q8441 4 8427 30Q8413 57 8408 88Q8371 23 8321 -18Q8271 -59 8203 -59Q8152 -59 8111 -38Q8071 -17 8043 21Q8015 60 8000 114Q7986 169 7986 236Q7986 317 7997 399Q8009 481 8023 547Q8039 624 8060 696Q8065 709 8067 722Q8070 736 8079 747Q8088 758 8107 765Q8127 772 8168 772Q8206 772 8217 758Q8228 745 8225 727Q8223 709 8213 690Q8204 671 8201 659Q8187 602 8176 555Q8165 508 8157 460Q8150 413 8146 361Q8142 310 8142 246Q8142 162 8166 119Q8191 76 8236 76Q8267 76 8293 99Q8320 122 8341 160Q8363 199 8379 248Q8395 298 8404 352L8404 682Q8404 704 8400 717Q8397 730 8393 737Q8390 745 8386 749Q8383 754 8383 760Q8383 765 8389 769Q8395 773 8405 776Q8415 779 8426 780Q8438 782 8449 782Q8500 782 8529 755Q8559 729 8559 692L8559 172Q8559 165 8560 149Q8561 134 8566 118Q8571 102 8582 90Q8593 78 8613 78Q8644 78 8666 100Q8689 122 8705 155Q8722 188 8732 226Q8743 265 8750 299Q8756 331 8770 345Q8784 360 8799 360Q8811 360 8824 352Q8837 345 8847 333Q8858 321 8864 306Q8871 291 8871 276Q8871 274 8871 271Q8871 268 8869 262Q8855 211 8832 155Q8810 99 8775 52Q8740 5 8691 -26Q8642 -57 8576 -57ZM9337 78Q9368 78 9390 100Q9413 122 9429 155Q9446 188 9456 226Q9467 265 9474 299Q9481 331 9494 345Q9508 360 9524 360Q9536 360 9548 352Q9561 345 9571 333Q9582 321 9588 306Q9595 291 9595 276Q9595 274 9595 271Q9595 268 9593 262Q9580 211 9557 155Q9535 99 9500 52Q9465 5 9415 -26Q9366 -57 9300 -57Q9246 -57 9206 -34Q9166 -11 9143 27Q9112 -8 9068 -33Q9025 -57 8967 -57Q8907 -57 8861 -33Q8816 -9 8785 32Q8754 74 8738 130Q8723 187 8723 252Q8723 380 8764 482Q8805 584 8873 655Q8941 727 9028 765Q9116 803 9210 803Q9252 803 9278 780Q9304 757 9304 717Q9304 691 9298 680Q9293 670 9278 670Q9264 670 9249 672Q9234 674 9218 674Q9160 674 9100 648Q9040 623 8991 570Q8943 518 8912 437Q8881 357 8881 246Q8881 165 8912 121Q8943 78 8997 78Q9039 78 9067 109Q9095 141 9112 184L9112 500Q9112 515 9110 525Q9109 535 9107 542Q9106 549 9105 554Q9104 560 9104 565Q9104 581 9119 590Q9135 600 9157 600Q9208 600 9238 573Q9268 547 9268 510L9268 172Q9268 155 9272 138Q9276 122 9284 108Q9292 95 9305 86Q9319 78 9337 78ZM9638 1190L9638 606Q9649 627 9659 662Q9670 698 9679 741Q9689 784 9697 831Q9705 878 9711 923Q9717 968 9720 1007Q9724 1047 9724 1075Q9724 1177 9709 1224Q9694 1272 9669 1272Q9661 1272 9655 1264Q9649 1256 9645 1243Q9641 1231 9639 1216Q9638 1202 9638 1190ZM9929 297Q9935 327 9947 340Q9960 354 9974 355Q9989 357 10004 348Q10019 340 10030 326Q10041 312 10046 294Q10052 277 10048 260Q10034 219 10008 164Q9982 109 9942 60Q9902 11 9848 -23Q9794 -57 9724 -57Q9665 -57 9620 -38Q9575 -18 9544 17Q9514 53 9498 102Q9483 152 9483 213L9483 1145Q9483 1202 9497 1250Q9512 1299 9537 1333Q9563 1368 9597 1387Q9631 1407 9669 1407Q9714 1407 9745 1390Q9776 1374 9796 1347Q9816 1320 9827 1285Q9839 1250 9844 1213Q9849 1177 9850 1141Q9851 1106 9851 1077Q9851 1002 9837 919Q9823 837 9801 757Q9780 677 9754 603Q9729 530 9705 473Q9682 416 9663 380Q9645 344 9638 338L9638 219Q9638 157 9664 117Q9690 78 9747 78Q9782 78 9812 99Q9843 121 9866 153Q9890 186 9906 224Q9922 263 9929 297ZM10042 985Q10017 985 9994 995Q9972 1005 9955 1022Q9939 1039 9929 1061Q9919 1084 9919 1110Q9919 1137 9929 1160Q9939 1183 9955 1199Q9972 1216 9994 1225Q10017 1235 10042 1235Q10069 1235 10092 1225Q10115 1216 10131 1199Q10148 1183 10157 1160Q10167 1137 10167 1110Q10167 1084 10157 1061Q10148 1039 10131 1022Q10115 1005 10092 995Q10069 985 10042 985ZM10089 692L10089 172Q10089 165 10090 149Q10091 134 10096 118Q10101 102 10112 90Q10123 78 10143 78Q10173 78 10195 100Q10218 122 10234 155Q10251 188 10262 226Q10273 265 10280 299Q10286 330 10298 344Q10311 358 10325 359Q10340 361 10354 352Q10369 343 10380 328Q10392 314 10397 296Q10403 278 10399 262Q10385 211 10362 155Q10340 99 10305 52Q10270 5 10221 -26Q10172 -57 10106 -57Q10065 -57 10033 -42Q10001 -26 9979 0Q9957 26 9945 61Q9934 96 9934 135L9934 682Q9934 711 9929 724Q9925 737 9925 748Q9925 763 9941 772Q9957 782 9979 782Q10030 782 10059 755Q10089 729 10089 692ZM10103 963Q10126 961 10154 960Q10178 958 10212 957Q10246 957 10288 956L10288 1303Q10288 1325 10284 1338Q10281 1351 10277 1358Q10274 1366 10270 1370Q10267 1375 10267 1380Q10267 1386 10273 1390Q10279 1394 10289 1397Q10299 1400 10310 1401Q10322 1403 10333 1403Q10384 1403 10413 1376Q10443 1350 10443 1313L10443 954Q10537 954 10641 956Q10746 958 10851 963Q10865 978 10873 974Q10882 970 10884 955Q10887 940 10885 918Q10883 896 10877 875Q10871 855 10860 840Q10850 825 10837 825Q10714 822 10619 821Q10525 821 10443 821L10443 172Q10443 122 10462 100Q10481 78 10513 78Q10544 78 10566 100Q10589 122 10605 155Q10622 188 10632 226Q10643 265 10650 299Q10656 331 10670 345Q10684 360 10699 360Q10711 360 10724 352Q10737 345 10747 333Q10758 321 10764 306Q10771 291 10771 276Q10771 274 10771 271Q10771 268 10769 262Q10756 211 10733 155Q10711 99 10675 52Q10640 5 10591 -26Q10542 -57 10476 -57Q10435 -57 10400 -45Q10366 -32 10341 -5Q10316 23 10302 66Q10288 109 10288 170L10288 821Q10254 821 10227 821Q10201 822 10183 823Q10162 824 10146 825Q10122 825 10103 846Q10085 868 10077 894Q10070 920 10075 941Q10081 963 10103 963ZM11386 299Q11395 331 11407 345Q11419 360 11435 360Q11447 360 11460 352Q11473 345 11483 333Q11494 321 11500 306Q11507 291 11507 276Q11507 274 11507 268Q11507 262 11505 256Q11479 167 11444 98Q11410 30 11370 -24Q11331 -78 11289 -121Q11247 -163 11205 -199L11205 -553Q11205 -634 11186 -690Q11168 -745 11138 -780Q11108 -814 11070 -829Q11032 -844 10993 -844Q10950 -844 10914 -826Q10878 -807 10851 -775Q10825 -743 10810 -700Q10796 -657 10796 -608Q10796 -530 10816 -470Q10837 -410 10872 -360Q10907 -310 10953 -267Q10999 -223 11050 -178L11050 82Q11013 20 10964 -20Q10915 -59 10849 -59Q10798 -59 10757 -38Q10717 -17 10689 21Q10661 60 10646 114Q10632 169 10632 236Q10632 317 10643 399Q10655 481 10669 547Q10685 624 10706 696Q10711 709 10713 722Q10716 736 10725 747Q10734 758 10753 765Q10773 772 10814 772Q10852 772 10863 758Q10874 745 10871 727Q10869 709 10859 690Q10850 671 10847 659Q10833 602 10822 555Q10811 508 10803 460Q10796 413 10792 361Q10788 310 10788 246Q10788 162 10812 119Q10837 76 10882 76Q10913 76 10939 99Q10966 122 10987 160Q11009 199 11025 248Q11041 298 11050 352L11050 682Q11050 711 11046 724Q11042 737 11042 748Q11042 763 11057 772Q11073 782 11095 782Q11146 782 11175 755Q11205 729 11205 692L11205 -27Q11261 35 11308 114Q11355 193 11386 299ZM10993 -715Q11017 -715 11029 -695Q11041 -675 11045 -649Q11050 -622 11050 -595Q11050 -568 11050 -553L11050 -334Q11000 -384 10969 -447Q10939 -510 10939 -602Q10939 -650 10953 -683Q10968 -715 10993 -715ZM11845 33L11845 1262Q11845 1284 11841 1297Q11838 1310 11834 1317Q11831 1325 11827 1329Q11824 1334 11824 1339Q11824 1345 11830 1349Q11836 1353 11846 1356Q11856 1359 11867 1360Q11879 1362 11890 1362Q11941 1362 11970 1335Q12000 1309 12000 1272L12000 633Q12025 667 12052 697Q12080 728 12110 751Q12140 775 12172 789Q12205 803 12240 803Q12288 803 12322 784Q12356 766 12378 735Q12401 704 12411 664Q12422 625 12422 582Q12422 523 12403 471Q12384 420 12355 378Q12326 336 12291 303Q12257 270 12226 248Q12233 215 12245 184Q12258 154 12276 130Q12294 106 12317 92Q12341 78 12371 78Q12406 78 12436 99Q12467 121 12490 153Q12514 186 12530 224Q12546 263 12553 297Q12559 328 12571 342Q12584 356 12598 357Q12613 359 12628 350Q12643 341 12654 326Q12665 312 12670 294Q12676 276 12672 260Q12658 219 12632 164Q12606 109 12566 60Q12526 11 12472 -23Q12418 -57 12348 -57Q12288 -57 12238 -26Q12189 5 12153 52Q12118 99 12099 155Q12080 211 12080 262Q12080 278 12094 294Q12108 311 12129 330Q12151 350 12175 374Q12200 398 12221 428Q12243 458 12257 495Q12271 533 12271 580Q12271 618 12252 642Q12234 666 12205 666Q12187 666 12161 652Q12136 639 12108 606Q12080 573 12052 518Q12024 464 12000 383L12000 31Q12000 16 11999 0Q11999 -15 11993 -28Q11988 -40 11976 -49Q11965 -57 11943 -57Q11928 -57 11910 -54Q11893 -50 11878 -41Q11864 -31 11854 -14Q11845 4 11845 33ZM12670 985Q12645 985 12622 995Q12600 1005 12583 1022Q12567 1039 12557 1061Q12547 1084 12547 1110Q12547 1137 12557 1160Q12567 1183 12583 1199Q12600 1216 12622 1225Q12645 1235 12670 1235Q12697 1235 12720 1225Q12743 1216 12759 1199Q12776 1183 12785 1160Q12795 1137 12795 1110Q12795 1084 12785 1061Q12776 1039 12759 1022Q12743 1005 12720 995Q12697 985 12670 985ZM12717 692L12717 172Q12717 165 12718 149Q12719 134 12724 118Q12729 102 12740 90Q12751 78 12771 78Q12801 78 12823 100Q12846 122 12862 155Q12879 188 12890 226Q12901 265 12908 299Q12914 330 12926 344Q12939 358 12953 359Q12968 361 12982 352Q12997 343 13008 328Q13020 314 13025 296Q13031 278 13027 262Q13013 211 12990 155Q12968 99 12933 52Q12898 5 12849 -26Q12800 -57 12734 -57Q12693 -57 12661 -42Q12629 -26 12607 0Q12585 26 12573 61Q12562 96 12562 135L12562 682Q12562 711 12557 724Q12553 737 12553 748Q12553 763 12569 772Q12585 782 12607 782Q12658 782 12687 755Q12717 729 12717 692ZM12731 963Q12754 961 12782 960Q12806 958 12840 957Q12874 957 12916 956L12916 1303Q12916 1325 12912 1338Q12909 1351 12905 1358Q12902 1366 12898 1370Q12895 1375 12895 1380Q12895 1386 12901 1390Q12907 1394 12917 1397Q12927 1400 12938 1401Q12950 1403 12961 1403Q13012 1403 13041 1376Q13071 1350 13071 1313L13071 954Q13165 954 13269 956Q13374 958 13479 963Q13493 978 13501 974Q13510 970 13512 955Q13515 940 13513 918Q13511 896 13505 875Q13499 855 13488 840Q13478 825 13465 825Q13342 822 13247 821Q13153 821 13071 821L13071 172Q13071 122 13090 100Q13109 78 13141 78Q13172 78 13194 100Q13217 122 13233 155Q13250 188 13260 226Q13271 265 13278 299Q13284 331 13298 345Q13312 360 13327 360Q13339 360 13352 352Q13365 345 13375 333Q13386 321 13392 306Q13399 291 13399 276Q13399 274 13399 271Q13399 268 13397 262Q13384 211 13361 155Q13339 99 13303 52Q13268 5 13219 -26Q13170 -57 13104 -57Q13063 -57 13028 -45Q12994 -32 12969 -5Q12944 23 12930 66Q12916 109 12916 170L12916 821Q12882 821 12855 821Q12829 822 12811 823Q12790 824 12774 825Q12750 825 12731 846Q12713 868 12705 894Q12698 920 12703 941Q12709 963 12731 963ZM13614 -57Q13546 -57 13482 -32Q13418 -7 13368 42Q13319 91 13289 163Q13260 235 13260 330Q13260 418 13285 503Q13310 588 13354 654Q13398 721 13459 762Q13521 803 13594 803Q13647 803 13684 781Q13721 760 13744 729Q13767 699 13777 664Q13788 629 13788 602Q13788 582 13777 566Q13767 550 13752 539Q13737 528 13719 522Q13701 517 13687 518Q13673 519 13664 528Q13656 537 13659 555Q13655 568 13651 587Q13648 606 13639 623Q13631 641 13616 653Q13601 666 13575 666Q13547 666 13520 639Q13494 613 13473 567Q13453 521 13440 460Q13428 399 13428 330Q13428 269 13443 222Q13459 175 13487 143Q13515 111 13553 94Q13592 78 13637 78Q13697 78 13741 100Q13786 123 13817 160Q13848 197 13867 243Q13886 289 13895 336Q13902 370 13923 381Q13945 393 13967 387Q13990 381 14006 361Q14023 342 14020 315Q14016 284 14005 244Q13995 204 13975 163Q13955 122 13924 82Q13894 43 13850 12Q13806 -19 13747 -38Q13689 -57 13614 -57ZM13895 33L13895 1262Q13895 1284 13891 1297Q13888 1310 13884 1317Q13881 1325 13877 1329Q13874 1334 13874 1339Q13874 1345 13880 1349Q13886 1353 13896 1356Q13906 1359 13917 1360Q13929 1362 13940 1362Q13991 1362 14020 1335Q14050 1309 14050 1272L14050 600Q14071 643 14095 680Q14120 717 14148 744Q14177 772 14209 787Q14242 803 14280 803Q14331 803 14364 784Q14397 765 14416 735Q14435 705 14442 668Q14450 631 14450 596L14450 172Q14450 165 14451 149Q14452 134 14457 118Q14462 102 14472 90Q14483 78 14503 78Q14534 78 14556 100Q14579 122 14595 155Q14612 188 14622 226Q14633 265 14640 299Q14646 330 14658 344Q14671 358 14685 359Q14700 361 14715 352Q14730 343 14741 328Q14752 314 14757 296Q14763 278 14759 262Q14745 211 14722 155Q14700 99 14665 52Q14630 5 14581 -26Q14532 -57 14466 -57Q14425 -57 14393 -42Q14362 -26 14339 0Q14317 26 14305 61Q14294 96 14294 135L14294 551Q14294 575 14293 596Q14292 617 14287 633Q14283 649 14274 658Q14266 668 14251 668Q14229 668 14197 638Q14165 608 14134 560Q14103 512 14079 451Q14056 391 14050 330L14050 31Q14050 16 14049 0Q14049 -15 14043 -28Q14038 -40 14026 -49Q14015 -57 13993 -57Q13978 -57 13960 -54Q13943 -50 13928 -41Q13914 -31 13904 -14Q13895 4 13895 33ZM15120 596Q15120 539 15100 479Q15081 419 15042 365Q15004 312 14947 269Q14891 227 14817 205Q14827 179 14843 155Q14860 132 14883 115Q14906 98 14936 88Q14967 78 15007 78Q15067 78 15110 100Q15153 123 15182 160Q15212 197 15230 243Q15248 289 15257 336Q15264 370 15285 381Q15307 393 15329 387Q15352 381 15368 361Q15385 342 15382 315Q15378 284 15368 244Q15359 204 15340 163Q15321 122 15291 82Q15262 43 15219 12Q15176 -19 15118 -38Q15060 -57 14985 -57Q14915 -57 14849 -30Q14784 -2 14733 49Q14683 101 14652 176Q14622 252 14622 348Q14622 445 14649 528Q14676 612 14720 673Q14764 734 14820 768Q14876 803 14935 803Q14978 803 15012 788Q15047 773 15071 745Q15095 718 15107 680Q15120 642 15120 596ZM14790 354Q14790 345 14791 336Q14792 327 14792 317Q14830 335 14861 363Q14892 391 14914 427Q14936 463 14948 505Q14960 548 14960 594Q14960 628 14948 647Q14937 666 14917 666Q14892 666 14872 649Q14853 632 14838 604Q14824 577 14814 542Q14805 508 14799 473Q14793 438 14791 406Q14789 375 14790 354ZM15257 33L15257 682Q15257 711 15252 724Q15248 737 15248 748Q15248 763 15264 772Q15280 782 15302 782Q15353 782 15382 755Q15412 729 15412 692L15412 600Q15433 643 15457 680Q15482 717 15510 744Q15539 772 15571 787Q15604 803 15642 803Q15693 803 15726 784Q15759 765 15778 735Q15797 705 15804 668Q15812 631 15812 596L15812 172Q15812 165 15813 149Q15814 134 15819 118Q15824 102 15834 90Q15845 78 15865 78Q15896 78 15918 100Q15941 122 15957 155Q15974 188 15984 226Q15995 265 16002 299Q16008 331 16022 345Q16036 360 16051 360Q16063 360 16076 352Q16089 345 16099 333Q16110 321 16116 306Q16123 291 16123 276Q16123 274 16123 271Q16123 268 16121 262Q16108 211 16085 155Q16063 99 16027 52Q15992 5 15943 -26Q15894 -57 15828 -57Q15787 -57 15755 -42Q15724 -26 15701 0Q15679 26 15667 61Q15656 96 15656 135L15656 551Q15656 575 15655 596Q15654 617 15649 633Q15645 649 15636 658Q15628 668 15613 668Q15591 668 15559 638Q15527 608 15496 560Q15465 512 15441 451Q15418 391 15412 330L15412 31Q15412 16 15411 0Q15411 -15 15405 -28Q15400 -40 15388 -49Q15377 -57 15355 -57Q15340 -57 15322 -54Q15305 -50 15290 -41Q15276 -31 15266 -14Q15257 4 15257 33ZM17026 78Q17057 78 17079 100Q17102 122 17118 155Q17135 188 17145 226Q17156 265 17163 299Q17170 331 17183 345Q17197 360 17213 360Q17225 360 17237 352Q17250 345 17260 333Q17271 321 17277 306Q17284 291 17284 276Q17284 274 17284 271Q17284 268 17282 262Q17269 211 17246 155Q17224 99 17189 52Q17154 5 17104 -26Q17055 -57 16989 -57Q16935 -57 16895 -34Q16855 -11 16832 27Q16801 -8 16757 -33Q16714 -57 16656 -57Q16596 -57 16550 -33Q16505 -9 16474 32Q16443 74 16427 130Q16412 187 16412 252Q16412 380 16453 482Q16494 584 16562 655Q16630 727 16717 765Q16805 803 16899 803Q16941 803 16967 780Q16993 757 16993 717Q16993 691 16987 680Q16982 670 16967 670Q16953 670 16938 672Q16923 674 16907 674Q16849 674 16789 648Q16729 623 16680 570Q16632 518 16601 437Q16570 357 16570 246Q16570 165 16601 121Q16632 78 16686 78Q16728 78 16756 109Q16784 141 16801 184L16801 500Q16801 515 16799 525Q16798 535 16796 542Q16795 549 16794 554Q16793 560 16793 565Q16793 581 16808 590Q16824 600 16846 600Q16897 600 16927 573Q16957 547 16957 510L16957 172Q16957 155 16961 138Q16965 122 16973 108Q16981 95 16994 86Q17008 78 17026 78ZM17426 -78Q17388 -78 17364 -70Q17340 -61 17327 -47L17327 -713Q17327 -741 17316 -759Q17305 -776 17288 -786Q17272 -796 17253 -800Q17234 -803 17219 -803Q17188 -803 17180 -787Q17172 -771 17172 -748L17172 682Q17172 704 17168 717Q17165 730 17161 737Q17158 745 17154 749Q17151 754 17151 760Q17151 765 17157 769Q17163 773 17173 776Q17183 779 17194 780Q17206 782 17217 782Q17266 782 17295 755Q17325 729 17327 694Q17359 741 17404 772Q17449 803 17514 803Q17574 803 17618 775Q17663 747 17692 698Q17722 650 17736 584Q17751 518 17751 442Q17751 356 17736 277Q17721 199 17698 143Q17749 146 17782 157Q17815 168 17837 187Q17860 207 17876 235Q17893 263 17911 299Q17925 328 17934 341Q17944 354 17958 354Q17971 354 17984 346Q17998 338 18008 326Q18019 314 18025 300Q18032 287 18032 276Q18032 241 18008 196Q17984 151 17934 111Q17885 71 17809 43Q17734 16 17632 16Q17590 -29 17535 -54Q17480 -78 17426 -78ZM17462 666Q17440 666 17419 653Q17399 640 17381 617Q17363 595 17349 563Q17336 531 17327 494L17327 51Q17349 83 17399 100Q17449 117 17520 123Q17538 150 17551 187Q17565 225 17574 265Q17583 305 17587 343Q17592 381 17592 410Q17592 480 17581 529Q17571 578 17553 608Q17535 639 17511 652Q17488 666 17462 666ZM18165 -78Q18127 -78 18103 -70Q18079 -61 18066 -47L18066 -713Q18066 -741 18055 -759Q18044 -776 18027 -786Q18011 -796 17992 -800Q17973 -803 17958 -803Q17927 -803 17919 -787Q17911 -771 17911 -748L17911 682Q17911 704 17907 717Q17904 730 17900 737Q17897 745 17893 749Q17890 754 17890 760Q17890 765 17896 769Q17902 773 17912 776Q17922 779 17933 780Q17945 782 17956 782Q18005 782 18034 755Q18064 729 18066 694Q18098 741 18143 772Q18188 803 18253 803Q18313 803 18357 775Q18402 747 18431 698Q18461 650 18475 584Q18490 518 18490 442Q18490 356 18475 277Q18460 199 18437 143Q18488 146 18521 157Q18554 168 18576 187Q18599 207 18615 235Q18632 263 18650 299Q18664 328 18673 341Q18683 354 18697 354Q18710 354 18723 346Q18737 338 18747 326Q18758 314 18764 300Q18771 287 18771 276Q18771 241 18747 196Q18723 151 18673 111Q18624 71 18548 43Q18473 16 18371 16Q18329 -29 18274 -54Q18219 -78 18165 -78ZM18201 666Q18179 666 18158 653Q18138 640 18120 617Q18102 595 18088 563Q18075 531 18066 494L18066 51Q18088 83 18138 100Q18188 117 18259 123Q18277 150 18290 187Q18304 225 18313 265Q18322 305 18326 343Q18331 381 18331 410Q18331 480 18320 529Q18310 578 18292 608Q18274 639 18250 652Q18227 666 18201 666ZM18805 1190L18805 606Q18816 627 18826 662Q18837 698 18846 741Q18856 784 18864 831Q18872 878 18878 923Q18884 968 18887 1007Q18891 1047 18891 1075Q18891 1177 18876 1224Q18861 1272 18836 1272Q18828 1272 18822 1264Q18816 1256 18812 1243Q18808 1231 18806 1216Q18805 1202 18805 1190ZM19096 297Q19102 327 19114 340Q19127 354 19141 355Q19156 357 19171 348Q19186 340 19197 326Q19208 312 19213 294Q19219 277 19215 260Q19201 219 19175 164Q19149 109 19109 60Q19069 11 19015 -23Q18961 -57 18891 -57Q18832 -57 18787 -38Q18742 -18 18711 17Q18681 53 18665 102Q18650 152 18650 213L18650 1145Q18650 1202 18664 1250Q18679 1299 18704 1333Q18730 1368 18764 1387Q18798 1407 18836 1407Q18881 1407 18912 1390Q18943 1374 18963 1347Q18983 1320 18994 1285Q19006 1250 19011 1213Q19016 1177 19017 1141Q19018 1106 19018 1077Q19018 1002 19004 919Q18990 837 18968 757Q18947 677 18921 603Q18896 530 18872 473Q18849 416 18830 380Q18812 344 18805 338L18805 219Q18805 157 18831 117Q18857 78 18914 78Q18949 78 18979 99Q19010 121 19033 153Q19057 186 19073 224Q19089 263 19096 297ZM19209 985Q19184 985 19161 995Q19139 1005 19122 1022Q19106 1039 19096 1061Q19086 1084 19086 1110Q19086 1137 19096 1160Q19106 1183 19122 1199Q19139 1216 19161 1225Q19184 1235 19209 1235Q19236 1235 19259 1225Q19282 1216 19298 1199Q19315 1183 19324 1160Q19334 1137 19334 1110Q19334 1084 19324 1061Q19315 1039 19298 1022Q19282 1005 19259 995Q19236 985 19209 985ZM19256 692L19256 172Q19256 165 19257 149Q19258 134 19263 118Q19268 102 19279 90Q19290 78 19310 78Q19340 78 19362 100Q19385 122 19401 155Q19418 188 19429 226Q19440 265 19447 299Q19453 330 19465 344Q19478 358 19492 359Q19507 361 19521 352Q19536 343 19547 328Q19559 314 19564 296Q19570 278 19566 262Q19552 211 19529 155Q19507 99 19472 52Q19437 5 19388 -26Q19339 -57 19273 -57Q19232 -57 19200 -42Q19168 -26 19146 0Q19124 26 19112 61Q19101 96 19101 135L19101 682Q19101 711 19096 724Q19092 737 19092 748Q19092 763 19108 772Q19124 782 19146 782Q19197 782 19226 755Q19256 729 19256 692ZM20034 78Q20065 78 20087 100Q20110 122 20126 155Q20143 188 20153 226Q20164 265 20171 299Q20178 331 20191 345Q20205 360 20221 360Q20233 360 20245 352Q20258 345 20268 333Q20279 321 20285 306Q20292 291 20292 276Q20292 274 20292 271Q20292 268 20290 262Q20277 211 20254 155Q20232 99 20197 52Q20162 5 20112 -26Q20063 -57 19997 -57Q19943 -57 19903 -34Q19863 -11 19840 27Q19809 -8 19765 -33Q19722 -57 19664 -57Q19604 -57 19558 -33Q19513 -9 19482 32Q19451 74 19435 130Q19420 187 19420 252Q19420 380 19461 482Q19502 584 19570 655Q19638 727 19725 765Q19813 803 19907 803Q19949 803 19975 780Q20001 757 20001 717Q20001 691 19995 680Q19990 670 19975 670Q19961 670 19946 672Q19931 674 19915 674Q19857 674 19797 648Q19737 623 19688 570Q19640 518 19609 437Q19578 357 19578 246Q19578 165 19609 121Q19640 78 19694 78Q19736 78 19764 109Q19792 141 19809 184L19809 500Q19809 515 19807 525Q19806 535 19804 542Q19803 549 19802 554Q19801 560 19801 565Q19801 581 19816 590Q19832 600 19854 600Q19905 600 19935 573Q19965 547 19965 510L19965 172Q19965 155 19969 138Q19973 122 19981 108Q19989 95 20002 86Q20016 78 20034 78ZM20180 33L20180 682Q20180 711 20175 724Q20171 737 20171 748Q20171 763 20187 772Q20203 782 20225 782Q20276 782 20305 755Q20335 729 20335 692L20335 600Q20356 643 20380 680Q20405 717 20433 744Q20462 772 20494 787Q20527 803 20565 803Q20616 803 20649 784Q20682 765 20701 735Q20720 705 20727 668Q20735 631 20735 596L20735 172Q20735 165 20736 149Q20737 134 20742 118Q20747 102 20757 90Q20768 78 20788 78Q20819 78 20841 100Q20864 122 20880 155Q20897 188 20907 226Q20918 265 20925 299Q20931 331 20945 345Q20959 360 20974 360Q20986 360 20999 352Q21012 345 21022 333Q21033 321 21039 306Q21046 291 21046 276Q21046 274 21046 271Q21046 268 21044 262Q21031 211 21008 155Q20986 99 20950 52Q20915 5 20866 -26Q20817 -57 20751 -57Q20710 -57 20678 -42Q20647 -26 20624 0Q20602 26 20590 61Q20579 96 20579 135L20579 551Q20579 575 20578 596Q20577 617 20572 633Q20568 649 20559 658Q20551 668 20536 668Q20514 668 20482 638Q20450 608 20419 560Q20388 512 20364 451Q20341 391 20335 330L20335 31Q20335 16 20334 0Q20334 -15 20328 -28Q20323 -40 20311 -49Q20300 -57 20278 -57Q20263 -57 20245 -54Q20228 -50 20213 -41Q20199 -31 20189 -14Q20180 4 20180 33ZM21246 -57Q21178 -57 21114 -32Q21050 -7 21000 42Q20951 91 20921 163Q20892 235 20892 330Q20892 418 20917 503Q20942 588 20986 654Q21030 721 21091 762Q21153 803 21226 803Q21279 803 21316 781Q21353 760 21376 729Q21399 699 21409 664Q21420 629 21420 602Q21420 582 21409 566Q21399 550 21384 539Q21369 528 21351 522Q21333 517 21319 518Q21305 519 21296 528Q21288 537 21291 555Q21287 568 21283 587Q21280 606 21271 623Q21263 641 21248 653Q21233 666 21207 666Q21179 666 21152 639Q21126 613 21105 567Q21085 521 21072 460Q21060 399 21060 330Q21060 269 21075 222Q21091 175 21119 143Q21147 111 21185 94Q21224 78 21269 78Q21329 78 21373 100Q21418 123 21449 160Q21480 197 21499 243Q21518 289 21527 336Q21534 370 21555 381Q21577 393 21599 387Q21622 381 21638 361Q21655 342 21652 315Q21648 284 21637 244Q21627 204 21607 163Q21587 122 21556 82Q21526 43 21482 12Q21438 -19 21379 -38Q21321 -57 21246 -57ZM21998 596Q21998 539 21978 479Q21959 419 21920 365Q21882 312 21825 269Q21769 227 21695 205Q21705 179 21721 155Q21738 132 21761 115Q21784 98 21814 88Q21845 78 21885 78Q21945 78 21988 100Q22031 123 22060 160Q22090 197 22108 243Q22126 289 22135 336Q22142 370 22163 381Q22185 393 22207 387Q22230 381 22246 361Q22263 342 22260 315Q22256 284 22246 244Q22237 204 22218 163Q22199 122 22169 82Q22140 43 22097 12Q22054 -19 21996 -38Q21938 -57 21863 -57Q21793 -57 21727 -30Q21662 -2 21611 49Q21561 101 21530 176Q21500 252 21500 348Q21500 445 21527 528Q21554 612 21598 673Q21642 734 21698 768Q21754 803 21813 803Q21856 803 21890 788Q21925 773 21949 745Q21973 718 21985 680Q21998 642 21998 596ZM21668 354Q21668 345 21669 336Q21670 327 21670 317Q21708 335 21739 363Q21770 391 21792 427Q21814 463 21826 505Q21838 548 21838 594Q21838 628 21826 647Q21815 666 21795 666Q21770 666 21750 649Q21731 632 21716 604Q21702 577 21692 542Q21683 508 21677 473Q21671 438 21669 406Q21667 375 21668 354ZM22251 281Q22243 249 22221 241Q22199 234 22177 243Q22156 252 22141 274Q22127 296 22133 322Q22148 390 22176 472Q22205 555 22233 637Q22218 660 22209 683Q22200 707 22200 733Q22200 759 22219 787Q22239 816 22266 840Q22294 864 22323 879Q22353 895 22374 895Q22411 895 22429 870Q22448 845 22448 803Q22448 780 22440 757Q22433 735 22424 715Q22415 696 22407 682Q22400 668 22399 664Q22435 600 22474 551Q22513 502 22545 454Q22578 406 22599 352Q22620 298 22620 225Q22620 207 22617 188Q22615 169 22610 152Q22646 159 22673 174Q22701 189 22721 208Q22742 228 22755 251Q22769 274 22778 299Q22789 328 22800 341Q22811 354 22825 354Q22838 354 22851 345Q22865 337 22875 324Q22886 311 22892 297Q22899 283 22899 272Q22899 257 22891 236Q22883 215 22869 193Q22856 171 22839 150Q22822 130 22804 115Q22756 76 22691 49Q22626 23 22530 16Q22493 -16 22442 -37Q22392 -57 22329 -57Q22297 -57 22263 -49Q22230 -41 22199 -29Q22169 -16 22144 -1Q22119 14 22104 29Q22066 65 22055 101Q22044 138 22049 167Q22055 196 22071 214Q22087 233 22104 233Q22114 233 22135 224Q22157 216 22185 202Q22213 189 22246 174Q22279 159 22312 145Q22345 132 22376 123Q22408 115 22434 115Q22451 135 22465 168Q22479 201 22479 240Q22479 288 22466 329Q22453 370 22432 405Q22411 440 22384 470Q22358 501 22331 528Q22307 469 22289 411Q22271 354 22251 281Z" fill="#143d59" style=""></path></g></g></g></svg>