<svg version="1.1" xmlns="http://www.w3.org/2000/svg" viewBox="-1808.8961088180542 -3448.904077148437 12929.025 5040.272094726562"><desc>Created with Snap</desc><defs></defs><g><g transform="matrix(39.2016,0,0,39.2016,2685.7187,-4086.8144)"><path d="M54.042,24.109l37.912,21.888v8.756  L54.042,76.641v-8.755l30.331-17.511l-30.331-17.51V24.109z" fill="#00203f" style=""></path><path d="M54.042,41.62l15.166,8.755l-15.166,8.755  V41.62z" fill="#00203f" style=""></path><polygon points="46.459,24.109 8.547,45.997 8.547,54.752 38.876,37.243 38.876,72.263 46.459,76.641 " fill="#00203f" style=""></polygon><polygon points="31.294,50.375 16.129,59.13 31.294,67.885 " fill="#00203f" style=""></polygon><desc>Created with Snap</desc><defs></defs></g><g><g transform="matrix(1.024,0,0,-1.024,0,0)"><path d="M88 0L232 668Q169 666 135 620Q102 574 102 461Q102 424 109 409Q116 395 116 393Q62 393 35 415Q9 438 9 490Q9 561 44 619Q79 678 155 714Q232 750 350 750Q374 750 414 745Q486 738 516 738Q569 738 606 750Q603 741 595 710Q587 680 566 658Q546 637 511 630Q452 630 371 649L329 450L475 450L459 376L313 376L232 0L88 0ZM579 -6Q522 -6 484 33Q446 72 446 155Q446 229 475 310Q505 392 563 448Q622 505 703 505Q744 505 764 491Q784 477 784 454L784 447L795 500L939 500L867 160Q863 145 863 128Q863 85 904 85Q932 85 952 111Q973 137 985 179L1027 179Q990 71 935 32Q881 -6 826 -6Q784 -6 758 17Q733 41 728 86Q699 45 663 19Q628 -6 579 -6ZM644 91Q669 91 693 114Q718 138 727 179L775 405Q775 418 765 430Q755 443 734 443Q694 443 662 396Q630 350 612 284Q594 219 594 169Q594 119 608 105Q623 91 644 91ZM1593 -6Q1532 -6 1503 26Q1475 59 1475 107Q1475 128 1480 154Q1485 181 1490 206Q1496 231 1498 238Q1506 273 1513 307Q1520 341 1520 362Q1520 413 1484 413Q1458 413 1438 387Q1418 362 1406 321L1338 0L1194 0L1267 345Q1270 357 1270 370Q1270 414 1240 414Q1212 414 1191 388Q1171 363 1159 321L1091 0L947 0L1053 500L1197 500L1186 448Q1237 505 1308 505Q1396 505 1411 419Q1466 504 1550 504Q1601 504 1631 476Q1661 448 1661 391Q1661 362 1654 326Q1647 291 1634 240Q1626 209 1619 179Q1613 150 1613 133Q1613 113 1622 102Q1631 91 1653 91Q1683 91 1701 112Q1719 134 1737 179L1779 179Q1742 69 1693 31Q1645 -6 1593 -6ZM1883 -4Q1809 -4 1766 34Q1723 72 1723 154Q1723 222 1751 305Q1779 388 1841 448Q1903 509 1997 509Q2125 509 2125 349L2125 348Q2128 347 2136 347Q2169 347 2212 364Q2255 382 2290 407L2299 380Q2270 349 2223 327Q2177 306 2122 297Q2114 206 2081 138Q2048 70 1996 33Q1944 -4 1883 -4ZM1923 86Q1947 86 1971 113Q1995 141 2013 188Q2031 236 2039 294Q2012 300 2012 336Q2012 377 2043 390Q2041 423 2033 435Q2025 448 2005 448Q1972 448 1941 400Q1910 352 1891 285Q1872 218 1872 167Q1872 119 1883 102Q1894 86 1923 86ZM2275 -6Q2227 -6 2197 24Q2168 54 2168 114Q2168 139 2176 179L2244 500L2388 500L2316 160Q2313 145 2313 132Q2313 91 2343 91Q2371 91 2391 114Q2411 138 2423 179L2491 500L2635 500L2563 160Q2559 145 2559 128Q2559 108 2568 99Q2578 91 2600 91Q2628 91 2648 115Q2669 139 2681 179L2723 179Q2686 71 2631 32Q2577 -6 2522 -6Q2479 -6 2453 18Q2428 42 2423 89Q2389 34 2351 14Q2314 -6 2275 -6ZM2795 -6Q2747 -6 2714 12Q2681 31 2665 60Q2649 90 2649 122Q2649 155 2664 179Q2680 204 2702 215Q2741 285 2770 356Q2799 428 2825 511L2973 531Q2978 403 2990 254Q2995 194 2995 167Q2995 144 2991 129Q3038 156 3063 179L3105 179Q3041 105 2952 54Q2923 23 2880 8Q2838 -6 2795 -6ZM2763 73Q2800 73 2825 95Q2850 117 2850 166Q2850 196 2844 250Q2834 364 2831 403Q2807 324 2750 214Q2773 202 2773 179Q2773 160 2760 145Q2748 130 2729 130Q2708 130 2702 143Q2702 107 2716 90Q2731 73 2763 73ZM3511 -207Q3438 -207 3393 -170Q3349 -132 3349 -71Q3349 -33 3367 -1Q3385 31 3416 49Q3447 68 3484 68Q3522 68 3545 49Q3569 30 3569 -1Q3569 -25 3558 -39Q3549 -27 3533 -20Q3518 -13 3501 -13Q3471 -13 3452 -33Q3433 -53 3433 -85Q3433 -117 3451 -137Q3470 -157 3498 -157Q3533 -157 3558 -126Q3583 -95 3596 -34L3646 187L3642 187Q3615 149 3576 129Q3538 109 3492 109Q3434 109 3390 140Q3346 171 3322 228Q3299 286 3299 362Q3299 472 3347 562Q3395 653 3479 705Q3563 757 3664 757Q3749 757 3798 720Q3848 683 3848 619Q3848 576 3827 550Q3806 524 3772 524Q3753 524 3736 532Q3720 540 3709 555Q3727 567 3739 593Q3752 620 3752 647Q3752 677 3734 693Q3717 710 3685 710Q3627 710 3573 658Q3519 607 3486 524Q3453 441 3453 350Q3453 275 3477 235Q3501 196 3546 196Q3600 196 3641 253Q3683 310 3708 419L3826 418L3753 82Q3721 -67 3662 -137Q3604 -207 3511 -207ZM3957 -6Q3909 -6 3879 24Q3850 54 3850 114Q3850 139 3858 179L3965 680L4113 700L3998 160Q3994 145 3994 128Q3994 108 4003 99Q4013 91 4035 91Q4064 91 4089 115Q4114 140 4125 179L4167 179Q4130 71 4072 32Q4014 -6 3957 -6ZM4245 -6Q4188 -6 4150 33Q4112 72 4112 155Q4112 229 4141 310Q4171 392 4229 448Q4288 505 4369 505Q4410 505 4430 491Q4450 477 4450 454L4450 447L4461 500L4605 500L4533 160Q4529 145 4529 128Q4529 85 4570 85Q4598 85 4618 111Q4639 137 4651 179L4693 179Q4656 71 4601 32Q4547 -6 4492 -6Q4450 -6 4424 17Q4399 41 4394 86Q4365 45 4329 19Q4294 -6 4245 -6ZM4310 91Q4335 91 4359 114Q4384 138 4393 179L4441 405Q4441 418 4431 430Q4421 443 4400 443Q4360 443 4328 396Q4296 350 4278 284Q4260 219 4260 169Q4260 119 4274 105Q4289 91 4310 91ZM4765 -6Q4717 -6 4684 12Q4651 31 4635 60Q4619 90 4619 122Q4619 155 4634 179Q4650 204 4672 215Q4711 285 4740 356Q4769 428 4795 511L4943 531Q4948 403 4960 254Q4965 194 4965 167Q4965 144 4961 129Q5008 156 5033 179L5075 179Q5011 105 4922 54Q4893 23 4850 8Q4808 -6 4765 -6ZM4733 73Q4770 73 4795 95Q4820 117 4820 166Q4820 196 4814 250Q4804 364 4801 403Q4777 324 4720 214Q4743 202 4743 179Q4743 160 4730 145Q4718 130 4699 130Q4678 130 4672 143Q4672 107 4686 90Q4701 73 4733 73ZM5147 -6Q5099 -6 5066 12Q5033 31 5017 60Q5001 90 5001 122Q5001 155 5016 179Q5032 204 5054 215Q5093 285 5122 356Q5151 428 5177 511L5325 531Q5330 403 5342 254Q5347 194 5347 167Q5347 144 5343 129Q5390 156 5415 179L5457 179Q5393 105 5304 54Q5275 23 5232 8Q5190 -6 5147 -6ZM5115 73Q5152 73 5177 95Q5202 117 5202 166Q5202 196 5196 250Q5186 364 5183 403Q5159 324 5102 214Q5125 202 5125 179Q5125 160 5112 145Q5100 130 5081 130Q5060 130 5054 143Q5054 107 5068 90Q5083 73 5115 73ZM5732 0L5877 680Q5810 652 5773 596Q5737 540 5737 461Q5737 424 5744 409Q5751 395 5751 393Q5697 393 5670 415Q5644 438 5644 490Q5644 554 5696 614Q5749 675 5831 712Q5913 750 5995 750Q6009 750 6035 748L5971 450L6118 450L6182 748L6326 748L6167 0L6023 0L6103 376L5956 376L5876 0L5732 0ZM6443 -4Q6369 -4 6326 34Q6283 72 6283 154Q6283 222 6311 305Q6339 388 6401 448Q6463 509 6557 509Q6685 509 6685 349L6685 348Q6688 347 6696 347Q6729 347 6772 364Q6815 382 6850 407L6859 380Q6830 349 6783 327Q6737 306 6682 297Q6674 206 6641 138Q6608 70 6556 33Q6504 -4 6443 -4ZM6483 86Q6507 86 6531 113Q6555 141 6573 188Q6591 236 6599 294Q6572 300 6572 336Q6572 377 6603 390Q6601 423 6593 435Q6585 448 6565 448Q6532 448 6501 400Q6470 352 6451 285Q6432 218 6432 167Q6432 119 6443 102Q6454 86 6483 86ZM6835 -6Q6787 -6 6757 24Q6728 54 6728 114Q6728 139 6736 179L6804 500L6948 500L6876 160Q6873 145 6873 132Q6873 91 6903 91Q6931 91 6951 114Q6971 138 6983 179L7051 500L7195 500L7123 160Q7119 145 7119 128Q7119 108 7128 99Q7138 91 7160 91Q7188 91 7208 115Q7229 139 7241 179L7283 179Q7246 71 7191 32Q7137 -6 7082 -6Q7039 -6 7013 18Q6988 42 6983 89Q6949 34 6911 14Q6874 -6 6835 -6ZM7355 -6Q7307 -6 7274 12Q7241 31 7225 60Q7209 90 7209 122Q7209 155 7224 179Q7240 204 7262 215Q7301 285 7330 356Q7359 428 7385 511L7533 531Q7538 403 7550 254Q7555 194 7555 167Q7555 144 7551 129Q7598 156 7623 179L7665 179Q7601 105 7512 54Q7483 23 7440 8Q7398 -6 7355 -6ZM7323 73Q7360 73 7385 95Q7410 117 7410 166Q7410 196 7404 250Q7394 364 7391 403Q7367 324 7310 214Q7333 202 7333 179Q7333 160 7320 145Q7308 130 7289 130Q7268 130 7262 143Q7262 107 7276 90Q7291 73 7323 73ZM7766 -6Q7692 -6 7651 32Q7610 71 7610 153Q7610 222 7637 305Q7664 388 7725 448Q7786 509 7880 509Q7990 509 7990 413Q7990 357 7958 310Q7926 263 7873 234Q7820 206 7760 202Q7758 172 7758 162Q7758 113 7775 95Q7792 78 7830 78Q7884 78 7922 103Q7961 128 8007 179L8041 179Q7930 -6 7766 -6ZM7768 250Q7805 252 7838 276Q7872 300 7892 337Q7913 374 7913 415Q7913 456 7888 456Q7852 456 7817 393Q7783 330 7768 250ZM8117 -4Q8084 -4 8061 19Q8038 42 8038 75Q8038 108 8061 131Q8084 155 8117 155Q8150 155 8173 131Q8197 108 8197 75Q8197 42 8173 19Q8150 -4 8117 -4ZM8437 554Q8404 554 8381 577Q8358 600 8358 633Q8358 666 8381 689Q8404 713 8437 713Q8470 713 8493 689Q8517 666 8517 633Q8517 600 8493 577Q8470 554 8437 554ZM8369 -6Q8321 -6 8291 24Q8262 54 8262 114Q8262 139 8270 179L8338 500L8482 500L8410 160Q8406 145 8406 128Q8406 108 8415 99Q8425 91 8447 91Q8476 91 8501 115Q8526 140 8537 179L8579 179Q8542 71 8484 32Q8426 -6 8369 -6ZM8898 -6Q8837 -6 8808 26Q8780 59 8780 107Q8780 128 8785 154Q8790 181 8795 206Q8801 231 8803 238Q8811 273 8818 307Q8825 341 8825 362Q8825 413 8789 413Q8763 413 8743 387Q8723 362 8711 321L8643 0L8499 0L8605 500L8749 500L8738 448Q8788 504 8855 504Q8906 504 8936 476Q8966 448 8966 391Q8966 362 8959 326Q8952 291 8939 240Q8931 209 8924 179Q8918 150 8918 133Q8918 113 8927 102Q8936 91 8958 91Q8988 91 9006 112Q9024 134 9042 179L9084 179Q9047 69 8998 31Q8950 -6 8898 -6Z" fill="#00203f" style=""></path></g></g><g transform="matrix(0.75,0,0,0.75,-1526.4461,1115.418)"><g transform="matrix(0.5,0,0,-0.5,0,0)"><path d="M1162 0L813 0Q826 63 826 100Q826 138 824 157Q823 176 820 197Q818 219 814 245Q811 272 808 307Q785 546 645 700Q583 768 511 803Q439 839 392 839Q346 839 321 833Q265 665 265 482Q265 320 282 240Q309 120 365 -1L66 -1Q90 59 90 251Q90 444 119 611Q148 779 194 910Q241 1041 298 1139Q356 1238 413 1311Q471 1385 522 1437Q573 1490 607 1530L922 1530Q879 1481 879 1393Q879 1353 892 1262L917 1080Q1054 136 1162 0ZM362 939Q401 954 444 954Q487 954 521 948Q556 942 590 928Q663 900 712 839Q663 1096 652 1153L617 1328L560 1260Q440 1116 362 939ZM2574 1069Q2601 1009 2601 948Q2601 887 2595 847Q2590 807 2579 770Q2554 686 2508 641Q2477 796 2440 842Q2404 888 2367 904Q2331 920 2290 920Q2249 920 2223 912Q2197 904 2178 889Q2135 856 2135 814Q2135 772 2156 741Q2177 711 2211 684Q2246 658 2290 633L2380 582Q2496 517 2539 474Q2624 389 2624 295Q2624 172 2540 88Q2434 -20 2222 -20Q2029 -20 1932 70Q1904 96 1892 122Q1900 197 1959 263Q2016 327 2070 337Q2066 324 2066 298Q2066 272 2081 233Q2096 195 2124 162Q2187 86 2266 86Q2345 86 2382 122Q2419 158 2419 204Q2419 250 2398 281Q2377 312 2342 339Q2308 366 2264 391L2174 442Q2059 510 2016 558Q1930 654 1930 767Q1930 886 2030 960Q2125 1030 2267 1030L2443 1018Q2507 1018 2532 1033Q2557 1049 2574 1069ZM3731 0L3436 0Q3482 158 3482 543Q3482 704 3465 757Q3448 811 3422 835Q3397 860 3354 860Q3312 860 3277 844Q3243 828 3216 802Q3165 754 3133 674L3133 483Q3133 202 3144 135Q3157 47 3171 0L2876 0Q2900 84 2908 223Q2926 571 2926 735Q2926 900 2925 960Q2924 1021 2922 1081Q2917 1299 2902 1354Q2888 1410 2875 1435Q2863 1461 2848 1482L2814 1529L3179 1529Q3151 1428 3146 1341Q3142 1254 3140 1199Q3138 1145 3136 1085Q3133 945 3133 838Q3212 971 3342 1014Q3388 1030 3445 1030Q3502 1030 3548 1005Q3595 981 3626 936Q3690 845 3690 687L3690 580Q3690 274 3698 196Q3707 119 3710 94Q3717 50 3731 0ZM4427 930Q4337 930 4297 840Q4258 750 4258 537Q4258 80 4427 80Q4517 80 4556 202Q4596 324 4596 537Q4596 750 4556 840Q4517 930 4427 930ZM4006 575Q4006 1030 4427 1030Q4848 1030 4848 575Q4848 299 4732 138Q4619 -20 4427 -20Q4235 -20 4122 138Q4006 299 4006 575ZM5308 946Q5420 1030 5588 1030Q5826 1030 5899 833Q5923 768 5923 669Q5923 571 5900 477Q5878 384 5838 309Q5798 234 5743 177Q5689 120 5625 82Q5497 5 5353 1Q5355 -53 5359 -105L5369 -211Q5378 -319 5431 -394L5465 -440L5100 -440Q5128 -344 5132 -248Q5137 -152 5139 -84Q5142 -15 5143 58Q5147 228 5147 356Q5147 768 5121 860Q5105 917 5080 951L5038 1010L5307 1010Q5301 990 5308 946ZM5673 643Q5673 930 5528 930Q5456 930 5408 866Q5356 797 5356 677L5349 203L5349 148Q5349 121 5350 93Q5495 115 5585 267Q5673 417 5673 643ZM7209 0L6844 0Q6891 161 6891 650Q6891 736 6889 761Q6887 787 6871 790Q6805 805 6792 866Q6789 882 6784 900L6848 900Q6876 900 6882 912Q6889 925 6889 983Q6889 1096 6880 1205Q6872 1314 6889 1370Q6906 1426 6942 1466Q7018 1550 7157 1550Q7209 1550 7252 1540Q7295 1530 7335 1530Q7375 1530 7405 1541Q7435 1552 7458 1590Q7471 1575 7482 1536Q7493 1498 7493 1452Q7493 1407 7486 1356Q7480 1306 7468 1258Q7443 1158 7398 1099Q7374 1303 7353 1353Q7333 1403 7308 1421Q7284 1440 7236 1440Q7188 1440 7150 1389Q7113 1339 7113 1251L7113 1219Q7113 1019 7124 977Q7135 936 7154 923Q7173 910 7208 910L7392 910Q7367 820 7330 794Q7312 780 7289 780Q7267 780 7254 783Q7241 786 7229 790Q7199 800 7174 800Q7150 800 7137 793Q7124 787 7116 775Q7104 755 7104 711L7104 540Q7104 229 7126 151Q7142 93 7167 59L7209 0ZM7998 930Q7908 930 7868 840Q7829 750 7829 537Q7829 80 7998 80Q8088 80 8127 202Q8167 324 8167 537Q8167 750 8127 840Q8088 930 7998 930ZM7577 575Q7577 1030 7998 1030Q8419 1030 8419 575Q8419 299 8303 138Q8190 -20 7998 -20Q7806 -20 7693 138Q7577 299 7577 575ZM8979 0L8684 0Q8730 158 8730 543Q8730 817 8686 917Q8668 958 8622 1010L8977 1010Q8959 947 8948 837Q9042 955 9210 1004Q9282 1025 9315 1070Q9348 991 9348 934Q9348 877 9342 828Q9336 780 9324 734Q9298 635 9255 580Q9218 775 9140 808Q9050 847 8964 702Q8946 672 8934 638Q8933 615 8933 591Q8933 567 8933 543Q8933 158 8979 0ZM10701 39Q10594 -20 10462 -20Q10308 -20 10219 69Q10127 161 10127 328Q10127 655 10313 842Q10482 1010 10716 1010L10974 1010Q10940 935 10931 882Q10923 829 10919 783Q10916 737 10913 680Q10910 623 10907 565Q10902 437 10902 348Q10902 259 10903 170Q10905 82 10907 8Q10911 -141 10918 -199Q10925 -257 10934 -289Q10944 -321 10955 -346Q10973 -385 11014 -440L10659 -440Q10690 -347 10695 -258Q10704 -119 10704 -83Q10704 -9 10701 39ZM10694 334L10697 638Q10697 821 10684 914Q10543 884 10460 736Q10377 589 10377 368Q10377 235 10397 182Q10418 129 10446 104Q10475 80 10515 80Q10556 80 10587 96Q10618 112 10642 144Q10694 213 10694 334ZM11998 964L11998 916L11983 469Q11983 196 12031 94Q12048 57 12091 0L11813 0Q11790 68 11783 172Q11667 -20 11484 -20Q11358 -20 11291 74Q11225 165 11225 324L11225 459Q11225 504 11225 551L11223 642Q11222 729 11217 777Q11213 826 11207 858Q11202 891 11194 916Q11186 942 11176 964L11154 1010L11443 1010Q11444 994 11444 980L11444 951Q11444 951 11427 449Q11427 302 11446 249Q11465 196 11491 173Q11518 150 11562 150Q11681 150 11755 280Q11775 317 11788 355Q11790 411 11790 482Q11790 847 11736 964L11714 1010L11999 1010Q11998 985 11998 964ZM13037 534L13034 342Q13034 163 13067 98Q13087 59 13114 38L13161 0L12871 0L12840 116Q12727 -20 12518 -20Q12399 -20 12326 60Q12262 132 12262 230Q12262 328 12308 401Q12355 474 12431 522Q12581 615 12808 619L12808 630Q12808 873 12733 915Q12706 930 12663 930Q12621 930 12579 902Q12537 874 12503 830Q12435 741 12406 620Q12317 673 12317 823Q12317 884 12333 960Q12371 960 12405 971L12482 995Q12595 1030 12703 1030Q12811 1030 12875 998Q12940 966 12976 903Q13037 796 13037 534ZM12478 210Q12478 148 12506 114Q12535 80 12578 80Q12621 80 12661 102Q12701 125 12733 164Q12808 253 12808 373L12808 521Q12668 508 12577 428Q12478 342 12478 210ZM13588 720L13587 458Q13587 134 13626 0L13331 0Q13359 97 13366 229Q13381 548 13381 724Q13381 900 13380 960Q13379 1021 13378 1082Q13372 1299 13357 1355Q13343 1412 13330 1437Q13318 1463 13302 1484L13269 1530L13634 1530Q13606 1429 13601 1336Q13597 1244 13594 1173Q13592 1102 13590 1025Q13588 897 13588 720ZM14188 1279Q14168 1246 14139 1223Q14110 1201 14073 1201Q14036 1201 14007 1223Q13978 1246 13958 1279Q13917 1347 13917 1423Q13917 1515 14001 1546Q14031 1557 14074 1557Q14193 1557 14222 1473Q14231 1449 14231 1419Q14231 1390 14220 1351Q14209 1312 14188 1279ZM14212 0L13917 0Q13963 158 13963 543Q13963 814 13915 916Q13903 942 13888 964L13855 1010L14210 1010Q14166 845 14166 501Q14166 158 14212 0ZM14761 1410Q14740 1333 14740 1225Q14740 1118 14744 1088Q14749 1058 14759 1040Q14778 1010 14833 1010L15101 1010Q15101 954 15074 924Q15025 870 14954 870Q14919 870 14892 880Q14843 900 14816 900Q14789 900 14772 889Q14755 879 14745 859Q14727 823 14727 702Q14727 581 14734 454Q14742 327 14772 241Q14802 156 14863 113Q14924 70 15031 70Q15031 39 14989 -4Q14978 -16 14970 -20Q14793 -20 14705 22Q14604 72 14561 200Q14518 330 14518 585Q14518 808 14506 848Q14494 889 14484 902Q14472 917 14426 939Q14488 986 14549 1114L14599 1219Q14652 1339 14689 1374Q14727 1410 14761 1410ZM15758 301L15758 331L15759 553Q15759 762 15748 826Q15737 890 15730 915Q15724 941 15715 963L15696 1010L15991 1010L15986 964Q15980 916 15978 824L15974 672Q15969 497 15969 345Q15969 193 15950 85Q15932 -23 15901 -105Q15870 -187 15830 -247Q15790 -306 15746 -346Q15670 -418 15576 -450Q15556 -442 15537 -421Q15519 -399 15515 -380Q15603 -335 15656 -242Q15731 -110 15751 139Q15635 -20 15466 -20Q15346 -20 15280 74Q15217 165 15217 324L15217 459Q15217 504 15216 551L15216 642Q15214 729 15209 777Q15205 826 15199 858Q15194 891 15186 916Q15178 942 15168 964L15146 1010L15451 1010Q15425 867 15425 469Q15425 307 15442 253Q15459 199 15484 174Q15510 150 15550 150Q15590 150 15620 162Q15651 175 15676 196Q15725 234 15758 301ZM15790 386L15796 410L15790 386ZM17164 498L17164 424Q17164 134 17203 0L16908 0Q16936 97 16943 229Q16958 548 16958 724Q16958 900 16957 960Q16956 1021 16955 1082Q16949 1297 16934 1355Q16920 1414 16907 1440Q16888 1482 16846 1530L17211 1530Q17183 1429 17178 1339L17171 1194Q17164 1029 17164 943Q17164 857 17165 827Q17167 797 17173 778Q17185 738 17233 740Q17282 742 17321 760Q17360 779 17385 808Q17435 864 17435 927Q17435 990 17420 1010L17709 1010Q17697 986 17687 961Q17678 937 17667 912Q17596 754 17443 683Q17453 476 17579 268Q17698 75 17841 0L17506 0Q17406 48 17344 322Q17323 415 17316 501Q17309 587 17294 613Q17279 640 17240 640Q17164 640 17164 498ZM18194 1279Q18174 1246 18145 1223Q18116 1201 18079 1201Q18042 1201 18013 1223Q17984 1246 17964 1279Q17923 1347 17923 1423Q17923 1515 18007 1546Q18037 1557 18080 1557Q18199 1557 18228 1473Q18237 1449 18237 1419Q18237 1390 18226 1351Q18215 1312 18194 1279ZM18218 0L17923 0Q17969 158 17969 543Q17969 814 17921 916Q17909 942 17894 964L17861 1010L18216 1010Q18172 845 18172 501Q18172 158 18218 0ZM18767 1410Q18746 1333 18746 1225Q18746 1118 18750 1088Q18755 1058 18765 1040Q18784 1010 18839 1010L19107 1010Q19107 954 19080 924Q19031 870 18960 870Q18925 870 18898 880Q18849 900 18822 900Q18795 900 18778 889Q18761 879 18751 859Q18733 823 18733 702Q18733 581 18740 454Q18748 327 18778 241Q18808 156 18869 113Q18930 70 19037 70Q19037 39 18995 -4Q18984 -16 18976 -20Q18799 -20 18711 22Q18610 72 18567 200Q18524 330 18524 585Q18524 808 18512 848Q18500 889 18490 902Q18478 917 18432 939Q18494 986 18555 1114L18605 1219Q18658 1339 18695 1374Q18733 1410 18767 1410ZM19863 1070Q19888 1010 19888 938Q19888 867 19883 820Q19878 773 19868 729Q19847 636 19803 580Q19759 852 19660 910Q19625 930 19584 930Q19544 930 19514 911Q19484 892 19463 856Q19420 784 19420 669Q19420 555 19443 472Q19466 390 19503 324Q19541 259 19588 211Q19636 164 19684 132Q19781 70 19856 70Q19852 44 19830 19Q19808 -6 19782 -20Q19676 -20 19539 52Q19284 187 19195 446Q19162 541 19162 640Q19162 740 19185 808Q19208 877 19252 926Q19342 1030 19502 1030Q19556 1030 19607 1023Q19703 1010 19741 1010Q19780 1010 19810 1020Q19840 1031 19863 1070ZM20967 0L20672 0Q20718 158 20718 543Q20718 704 20701 757Q20684 811 20658 835Q20633 860 20590 860Q20548 860 20513 844Q20479 828 20452 802Q20401 754 20369 674L20369 483Q20369 202 20380 135Q20393 47 20407 0L20112 0Q20136 84 20144 223Q20162 571 20162 735Q20162 900 20161 960Q20160 1021 20158 1081Q20153 1299 20138 1354Q20124 1410 20111 1435Q20099 1461 20084 1482L20050 1529L20415 1529Q20387 1428 20382 1341Q20378 1254 20376 1199Q20374 1145 20372 1085Q20369 945 20369 838Q20448 971 20578 1014Q20624 1030 20681 1030Q20738 1030 20784 1005Q20831 981 20862 936Q20926 845 20926 687L20926 580Q20926 274 20934 196Q20943 119 20946 94Q20953 50 20967 0ZM21921 340Q21957 316 21957 256Q21957 197 21941 152Q21925 107 21885 68Q21795 -20 21611 -20Q21397 -20 21285 138Q21186 279 21186 519Q21186 761 21320 899Q21447 1030 21664 1030Q21815 1030 21900 942Q21967 872 21967 780Q21967 689 21931 615Q21896 542 21827 489Q21685 379 21430 373Q21451 172 21556 104Q21594 80 21657 80Q21720 80 21791 146Q21862 212 21921 340ZM21424 499L21424 468Q21740 489 21740 774Q21740 881 21676 918Q21654 930 21618 930Q21582 930 21545 908Q21509 886 21482 836Q21424 727 21424 499ZM22474 0L22187 0Q22233 158 22233 543Q22233 817 22185 917Q22173 942 22158 964L22125 1010L22472 1010Q22457 960 22452 916L22444 844Q22565 1030 22752 1030Q22873 1030 22941 936Q23007 844 23007 687L23007 580Q23007 305 23012 244Q23017 183 23020 151Q23023 119 23027 94Q23034 47 23048 0L22755 0Q22801 158 22801 543Q22801 697 22781 754Q22762 811 22735 835Q22708 860 22664 860Q22583 860 22517 796Q22460 741 22430 656Q22428 629 22428 600L22428 543Q22428 158 22474 0ZM24720 534L24717 342Q24717 163 24750 98Q24770 59 24797 38L24844 0L24554 0L24523 116Q24410 -20 24201 -20Q24082 -20 24009 60Q23945 132 23945 230Q23945 328 23991 401Q24038 474 24114 522Q24264 615 24491 619L24491 630Q24491 873 24416 915Q24389 930 24346 930Q24304 930 24262 902Q24220 874 24186 830Q24118 741 24089 620Q24000 673 24000 823Q24000 884 24016 960Q24054 960 24088 971L24165 995Q24278 1030 24386 1030Q24494 1030 24558 998Q24623 966 24659 903Q24720 796 24720 534ZM24161 210Q24161 148 24189 114Q24218 80 24261 80Q24304 80 24344 102Q24384 125 24416 164Q24491 253 24491 373L24491 521Q24351 508 24260 428Q24161 342 24161 210ZM25212 946Q25324 1030 25492 1030Q25730 1030 25803 833Q25827 768 25827 669Q25827 571 25804 477Q25782 384 25742 309Q25702 234 25647 177Q25593 120 25529 82Q25401 5 25257 1Q25259 -53 25263 -105L25273 -211Q25282 -319 25335 -394L25369 -440L25004 -440Q25032 -344 25036 -248Q25041 -152 25043 -84Q25046 -15 25047 58Q25051 228 25051 356Q25051 768 25025 860Q25009 917 24984 951L24942 1010L25211 1010Q25205 990 25212 946ZM25577 643Q25577 930 25432 930Q25360 930 25312 866Q25260 797 25260 677L25253 203L25253 148Q25253 121 25254 93Q25399 115 25489 267Q25577 417 25577 643ZM26266 946Q26378 1030 26546 1030Q26784 1030 26857 833Q26881 768 26881 669Q26881 571 26858 477Q26836 384 26796 309Q26756 234 26701 177Q26647 120 26583 82Q26455 5 26311 1Q26313 -53 26317 -105L26327 -211Q26336 -319 26389 -394L26423 -440L26058 -440Q26086 -344 26090 -248Q26095 -152 26097 -84Q26100 -15 26101 58Q26105 228 26105 356Q26105 768 26079 860Q26063 917 26038 951L25996 1010L26265 1010Q26259 990 26266 946ZM26631 643Q26631 930 26486 930Q26414 930 26366 866Q26314 797 26314 677L26307 203L26307 148Q26307 121 26308 93Q26453 115 26543 267Q26631 417 26631 643ZM27379 720L27378 458Q27378 134 27417 0L27122 0Q27150 97 27157 229Q27172 548 27172 724Q27172 900 27171 960Q27170 1021 27169 1082Q27163 1299 27148 1355Q27134 1412 27121 1437Q27109 1463 27093 1484L27060 1530L27425 1530Q27397 1429 27392 1336Q27388 1244 27385 1173Q27383 1102 27381 1025Q27379 897 27379 720ZM27979 1279Q27959 1246 27930 1223Q27901 1201 27864 1201Q27827 1201 27798 1223Q27769 1246 27749 1279Q27708 1347 27708 1423Q27708 1515 27792 1546Q27822 1557 27865 1557Q27984 1557 28013 1473Q28022 1449 28022 1419Q28022 1390 28011 1351Q28000 1312 27979 1279ZM28003 0L27708 0Q27754 158 27754 543Q27754 814 27706 916Q27694 942 27679 964L27646 1010L28001 1010Q27957 845 27957 501Q27957 158 28003 0ZM29002 534L28999 342Q28999 163 29032 98Q29052 59 29079 38L29126 0L28836 0L28805 116Q28692 -20 28483 -20Q28364 -20 28291 60Q28227 132 28227 230Q28227 328 28273 401Q28320 474 28396 522Q28546 615 28773 619L28773 630Q28773 873 28698 915Q28671 930 28628 930Q28586 930 28544 902Q28502 874 28468 830Q28400 741 28371 620Q28282 673 28282 823Q28282 884 28298 960Q28336 960 28370 971L28447 995Q28560 1030 28668 1030Q28776 1030 28840 998Q28905 966 28941 903Q29002 796 29002 534ZM28443 210Q28443 148 28471 114Q28500 80 28543 80Q28586 80 28626 102Q28666 125 28698 164Q28773 253 28773 373L28773 521Q28633 508 28542 428Q28443 342 28443 210ZM29572 0L29285 0Q29331 158 29331 543Q29331 817 29283 917Q29271 942 29256 964L29223 1010L29570 1010Q29555 960 29550 916L29542 844Q29663 1030 29850 1030Q29971 1030 30039 936Q30105 844 30105 687L30105 580Q30105 305 30110 244Q30115 183 30118 151Q30121 119 30125 94Q30132 47 30146 0L29853 0Q29899 158 29899 543Q29899 697 29879 754Q29860 811 29833 835Q29806 860 29762 860Q29681 860 29615 796Q29558 741 29528 656Q29526 629 29526 600L29526 543Q29526 158 29572 0ZM31050 1070Q31075 1010 31075 938Q31075 867 31070 820Q31065 773 31055 729Q31034 636 30990 580Q30946 852 30847 910Q30812 930 30771 930Q30731 930 30701 911Q30671 892 30650 856Q30607 784 30607 669Q30607 555 30630 472Q30653 390 30690 324Q30728 259 30775 211Q30823 164 30871 132Q30968 70 31043 70Q31039 44 31017 19Q30995 -6 30969 -20Q30863 -20 30726 52Q30471 187 30382 446Q30349 541 30349 640Q30349 740 30372 808Q30395 877 30439 926Q30529 1030 30689 1030Q30743 1030 30794 1023Q30890 1010 30928 1010Q30967 1010 30997 1020Q31027 1031 31050 1070ZM31971 340Q32007 316 32007 256Q32007 197 31991 152Q31975 107 31935 68Q31845 -20 31661 -20Q31447 -20 31335 138Q31236 279 31236 519Q31236 761 31370 899Q31497 1030 31714 1030Q31865 1030 31950 942Q32017 872 32017 780Q32017 689 31981 615Q31946 542 31877 489Q31735 379 31480 373Q31501 172 31606 104Q31644 80 31707 80Q31770 80 31841 146Q31912 212 31971 340ZM31474 499L31474 468Q31790 489 31790 774Q31790 881 31726 918Q31704 930 31668 930Q31632 930 31595 908Q31559 886 31532 836Q31474 727 31474 499ZM32855 1069Q32882 1009 32882 948Q32882 887 32876 847Q32871 807 32860 770Q32835 686 32789 641Q32758 796 32721 842Q32685 888 32648 904Q32612 920 32571 920Q32530 920 32504 912Q32478 904 32459 889Q32416 856 32416 814Q32416 772 32437 741Q32458 711 32492 684Q32527 658 32571 633L32661 582Q32777 517 32820 474Q32905 389 32905 295Q32905 172 32821 88Q32715 -20 32503 -20Q32310 -20 32213 70Q32185 96 32173 122Q32181 197 32240 263Q32297 327 32351 337Q32347 324 32347 298Q32347 272 32362 233Q32377 195 32405 162Q32468 86 32547 86Q32626 86 32663 122Q32700 158 32700 204Q32700 250 32679 281Q32658 312 32623 339Q32589 366 32545 391L32455 442Q32340 510 32297 558Q32211 654 32211 767Q32211 886 32311 960Q32406 1030 32548 1030L32724 1018Q32788 1018 32813 1033Q32838 1049 32855 1069Z" fill="#00203f" style=""></path></g></g></g></svg>