<svg version="1.1" xmlns="http://www.w3.org/2000/svg" viewBox="-1247.9999877929688 -1086.4640380859375 13999.982180786134 2509.824060058594"><desc>Created with Snap</desc><defs></defs><g><g transform="matrix(33.8469,0,0,33.8469,10346.277,-914.6515)"><title>online-shopping-ecommerce-monitor-screen</title><g><path d="M52,49a3,3,0,0,0-3,3h2V51h2v1h2A3,3,0,0,0,52,49Z" fill="#143d59" style=""></path><path d="M51,7a3,3,0,0,0-3-3H7A3,3,0,0,0,4,7V32H51ZM33,26a2,2,0,1,1-3-1.722V23H24v1.278a2,2,0,1,1-2,0V16.236L19.382,11H16a1,1,0,0,1,0-2h4a1,1,0,0,1,.895.553L23.618,15H33a1,1,0,0,1,.986,1.165l-1,6A1,1,0,0,1,32,23v1.278A1.993,1.993,0,0,1,33,26Zm7.707,3.707a1,1,0,0,1-1.414,0L37,27.414V28a1,1,0,0,1-2,0V25a1,1,0,0,1,1-1h3a1,1,0,0,1,0,2h-.586l2.293,2.293A1,1,0,0,1,40.707,29.707Z" fill="#143d59" style=""></path><path d="M41,47H13a1,1,0,0,0-1,1v1H42V48A1,1,0,0,0,41,47Z" fill="#143d59" style=""></path><polygon points="24 21 30 21 31.153 21 31.819 17 24 17 24 21" fill="#143d59" style=""></polygon><polygon points="23.754 40 22.326 45 31.674 45 30.246 40 23.754 40" fill="#143d59" style=""></polygon><path d="M53,56H51V54H49v3a3,3,0,0,0,6,0V54H53Z" fill="#143d59" style=""></path><path d="M51,35V34H4v1a3,3,0,0,0,3,3H48A3,3,0,0,0,51,35Z" fill="#143d59" style=""></path><path d="M57,35H52v2h5a3,3,0,0,1,0,6H56a5.006,5.006,0,0,0-5,5h2a3,3,0,0,1,3-3h1a5,5,0,0,0,0-10Z" fill="#143d59" style=""></path></g><desc>Created with Snap</desc><defs></defs></g><g><g transform="matrix(1.024,0,0,-1.024,0,0)"><path d="M60 465Q60 549 66 596Q72 644 91 668Q110 692 145 697Q180 703 237 703Q269 703 295 703Q321 703 345 702Q370 702 394 701Q419 700 448 699Q472 697 485 693Q498 690 505 684Q512 678 513 670Q515 662 515 652Q515 634 502 622Q490 610 449 608Q424 607 400 606Q377 605 347 604Q318 604 281 603Q244 603 192 603Q174 603 167 590Q160 578 160 559Q160 544 160 529Q161 514 161 496Q162 478 162 455Q163 433 163 403Q200 403 227 402Q255 402 275 401Q296 401 312 400Q328 399 343 398Q384 396 396 384Q409 372 409 354Q409 344 407 336Q406 328 399 322Q392 316 379 312Q366 308 342 306Q326 305 311 304Q297 304 277 303Q258 303 231 303Q204 303 163 303Q162 243 162 180Q163 118 159 52Q157 13 145 4Q134 -4 111 -4Q89 -4 78 5Q67 15 65 51Q63 83 62 121Q62 160 61 209Q60 259 60 321Q60 384 60 465ZM1011 -4Q995 -4 985 1Q976 7 971 16Q966 25 964 37Q962 50 961 64Q936 33 896 12Q857 -9 796 -9Q757 -9 716 2Q676 14 643 42Q610 71 589 119Q568 167 568 240Q568 297 582 347Q596 397 624 434Q653 472 696 494Q739 516 797 516Q848 516 888 497Q928 479 960 437Q960 449 961 461Q962 474 966 484Q971 495 981 501Q991 508 1008 508Q1023 508 1036 496Q1049 484 1051 444Q1054 391 1055 349Q1057 307 1057 262Q1057 207 1056 161Q1055 115 1051 63Q1049 40 1045 26Q1042 13 1037 6Q1032 0 1025 -2Q1018 -4 1011 -4ZM957 250Q957 302 941 335Q926 368 902 386Q879 405 852 412Q825 419 802 419Q766 419 740 406Q715 393 699 370Q683 348 675 317Q668 287 668 251Q668 163 706 121Q745 79 811 79Q850 79 877 92Q905 106 922 129Q940 152 948 183Q957 215 957 250ZM1848 30Q1842 47 1840 68Q1839 89 1839 120Q1839 142 1839 154Q1840 167 1840 176Q1840 186 1840 195Q1841 205 1841 222Q1841 257 1839 292Q1838 328 1829 356Q1820 385 1801 403Q1782 421 1746 421Q1685 421 1651 363Q1617 305 1610 178Q1608 138 1608 105Q1608 72 1604 48Q1600 25 1589 12Q1579 -1 1555 -1Q1533 -1 1523 10Q1513 22 1508 45Q1504 68 1503 101Q1503 134 1500 178Q1497 226 1490 270Q1484 314 1469 347Q1455 381 1430 401Q1406 421 1368 421Q1332 421 1312 403Q1293 386 1284 357Q1275 329 1273 293Q1272 258 1272 222Q1272 204 1272 195Q1273 187 1273 180Q1273 173 1273 162Q1274 151 1274 128Q1274 95 1272 71Q1271 47 1265 30Q1258 10 1246 5Q1234 1 1224 1Q1193 1 1184 23Q1175 45 1174 87Q1174 110 1173 138Q1173 167 1173 208Q1173 228 1173 243Q1173 258 1173 272Q1174 286 1174 300Q1175 315 1176 334Q1179 395 1198 431Q1217 468 1243 487Q1269 506 1299 511Q1329 517 1354 517Q1408 517 1445 501Q1482 485 1505 459Q1529 433 1540 400Q1552 367 1556 333Q1560 366 1572 398Q1585 431 1609 456Q1634 482 1673 498Q1712 514 1769 514Q1796 514 1824 508Q1853 503 1877 484Q1901 465 1917 429Q1934 394 1937 334Q1938 315 1938 300Q1939 286 1939 272Q1940 258 1940 243Q1940 228 1940 208Q1940 167 1939 138Q1939 110 1939 87Q1939 68 1937 52Q1936 36 1931 25Q1926 14 1916 7Q1907 1 1889 1Q1872 1 1863 7Q1854 14 1848 30ZM2288 507Q2345 507 2390 489Q2435 472 2466 440Q2498 408 2515 362Q2532 316 2532 259Q2532 196 2512 146Q2493 96 2458 61Q2424 26 2376 7Q2329 -12 2273 -12Q2212 -12 2165 9Q2119 30 2087 66Q2056 102 2040 149Q2024 196 2024 248Q2024 305 2042 352Q2061 400 2095 434Q2130 469 2179 488Q2228 507 2288 507ZM2277 80Q2318 80 2347 94Q2376 109 2394 133Q2413 157 2421 187Q2430 218 2430 251Q2430 285 2421 314Q2413 344 2395 366Q2378 388 2350 400Q2323 413 2285 413Q2246 413 2217 400Q2188 387 2168 364Q2149 342 2139 311Q2129 280 2129 244Q2129 171 2166 125Q2204 80 2277 80ZM2709 453Q2711 427 2710 390Q2710 353 2711 312Q2713 272 2718 231Q2723 191 2735 159Q2748 127 2770 107Q2793 87 2829 87Q2865 87 2887 107Q2910 127 2922 159Q2935 191 2940 231Q2945 272 2946 312Q2948 353 2947 390Q2947 427 2949 453Q2953 515 3000 515Q3018 515 3028 505Q3038 495 3042 477Q3047 459 3048 434Q3049 409 3049 378Q3049 314 3042 245Q3036 177 3013 120Q2991 63 2947 26Q2903 -11 2829 -11Q2755 -11 2711 26Q2667 63 2644 120Q2622 177 2615 245Q2609 314 2609 378Q2609 409 2610 434Q2611 459 2615 477Q2620 495 2630 505Q2640 515 2658 515Q2705 515 2709 453ZM3340 522Q3361 522 3393 518Q3425 515 3454 505Q3483 496 3504 479Q3525 462 3525 436Q3525 421 3516 410Q3508 399 3490 399Q3477 399 3460 403Q3444 407 3424 412Q3405 418 3382 422Q3360 426 3335 426Q3293 426 3266 413Q3240 400 3240 372Q3240 356 3249 345Q3259 334 3275 325Q3292 317 3314 311Q3337 305 3362 299Q3393 291 3423 281Q3454 271 3478 253Q3502 236 3517 209Q3532 183 3532 144Q3532 70 3476 26Q3420 -17 3311 -17Q3287 -17 3254 -14Q3221 -10 3192 -1Q3163 9 3142 26Q3122 44 3122 73Q3122 93 3131 103Q3141 114 3155 114Q3166 114 3178 107Q3190 100 3207 92Q3224 84 3248 77Q3272 70 3307 70Q3320 70 3341 71Q3362 73 3382 80Q3403 87 3417 99Q3432 112 3432 135Q3432 153 3422 165Q3412 178 3395 187Q3378 196 3355 202Q3333 209 3308 216Q3279 224 3249 234Q3220 244 3196 260Q3172 276 3157 300Q3142 325 3142 361Q3142 395 3156 424Q3170 454 3196 476Q3222 498 3258 510Q3295 522 3340 522ZM4137 708Q4170 708 4205 702Q4240 696 4269 684Q4298 673 4317 656Q4336 639 4336 617Q4336 594 4324 582Q4312 570 4294 570Q4277 570 4262 576Q4248 582 4230 589Q4212 596 4187 602Q4162 608 4124 608Q4082 608 4045 588Q4009 569 3981 534Q3953 500 3937 453Q3921 406 3921 351Q3921 284 3938 235Q3955 186 3982 154Q4010 122 4044 106Q4079 91 4114 91Q4171 91 4204 107Q4238 124 4258 150Q4259 171 4259 200Q4259 229 4259 263Q4259 276 4257 283Q4255 291 4247 295Q4239 299 4223 300Q4208 301 4182 301Q4150 301 4130 309Q4110 318 4110 346Q4110 366 4120 378Q4131 391 4164 393Q4170 393 4183 393Q4197 394 4212 394Q4228 394 4243 394Q4258 394 4267 394Q4297 394 4315 388Q4333 383 4347 364Q4354 354 4355 329Q4357 304 4357 271L4357 13Q4357 -14 4342 -27Q4328 -40 4309 -40Q4286 -40 4271 -29Q4257 -17 4257 8L4257 47Q4231 17 4195 4Q4160 -9 4106 -9Q4051 -9 3998 13Q3945 35 3904 78Q3863 122 3837 187Q3812 253 3812 340Q3812 427 3837 495Q3863 563 3907 610Q3951 658 4010 683Q4069 708 4137 708ZM4474 58Q4473 94 4472 142Q4471 190 4470 246Q4470 302 4469 364Q4469 426 4469 491Q4469 562 4470 613Q4471 664 4475 697Q4480 730 4490 745Q4500 761 4518 761Q4535 761 4548 750Q4561 739 4563 699Q4567 627 4568 549Q4569 472 4569 397Q4569 352 4569 310Q4569 269 4568 228Q4567 188 4566 146Q4565 104 4563 59Q4562 35 4558 22Q4555 9 4549 2Q4543 -5 4535 -7Q4528 -8 4518 -8Q4500 -8 4488 4Q4476 17 4474 58ZM5102 -4Q5086 -4 5076 1Q5067 7 5062 16Q5057 25 5055 37Q5053 50 5052 64Q5027 33 4987 12Q4948 -9 4887 -9Q4848 -9 4807 2Q4767 14 4734 42Q4701 71 4680 119Q4659 167 4659 240Q4659 297 4673 347Q4687 397 4715 434Q4744 472 4787 494Q4830 516 4888 516Q4939 516 4979 497Q5019 479 5051 437Q5051 449 5052 461Q5053 474 5057 484Q5062 495 5072 501Q5082 508 5099 508Q5114 508 5127 496Q5140 484 5142 444Q5145 391 5146 349Q5148 307 5148 262Q5148 207 5147 161Q5146 115 5142 63Q5140 40 5136 26Q5133 13 5128 6Q5123 0 5116 -2Q5109 -4 5102 -4ZM5048 250Q5048 302 5032 335Q5017 368 4993 386Q4970 405 4943 412Q4916 419 4893 419Q4857 419 4831 406Q4806 393 4790 370Q4774 348 4766 317Q4759 287 4759 251Q4759 163 4797 121Q4836 79 4902 79Q4941 79 4968 92Q4996 106 5013 129Q5031 152 5039 183Q5048 215 5048 250ZM5441 522Q5462 522 5494 518Q5526 515 5555 505Q5584 496 5605 479Q5626 462 5626 436Q5626 421 5617 410Q5609 399 5591 399Q5578 399 5561 403Q5545 407 5525 412Q5506 418 5483 422Q5461 426 5436 426Q5394 426 5367 413Q5341 400 5341 372Q5341 356 5350 345Q5360 334 5376 325Q5393 317 5415 311Q5438 305 5463 299Q5494 291 5524 281Q5555 271 5579 253Q5603 236 5618 209Q5633 183 5633 144Q5633 70 5577 26Q5521 -17 5412 -17Q5388 -17 5355 -14Q5322 -10 5293 -1Q5264 9 5243 26Q5223 44 5223 73Q5223 93 5232 103Q5242 114 5256 114Q5267 114 5279 107Q5291 100 5308 92Q5325 84 5349 77Q5373 70 5408 70Q5421 70 5442 71Q5463 73 5483 80Q5504 87 5518 99Q5533 112 5533 135Q5533 153 5523 165Q5513 178 5496 187Q5479 196 5456 202Q5434 209 5409 216Q5380 224 5350 234Q5321 244 5297 260Q5273 276 5258 300Q5243 325 5243 361Q5243 395 5257 424Q5271 454 5297 476Q5323 498 5359 510Q5396 522 5441 522ZM5901 522Q5922 522 5954 518Q5986 515 6015 505Q6044 496 6065 479Q6086 462 6086 436Q6086 421 6077 410Q6069 399 6051 399Q6038 399 6021 403Q6005 407 5985 412Q5966 418 5943 422Q5921 426 5896 426Q5854 426 5827 413Q5801 400 5801 372Q5801 356 5810 345Q5820 334 5836 325Q5853 317 5875 311Q5898 305 5923 299Q5954 291 5984 281Q6015 271 6039 253Q6063 236 6078 209Q6093 183 6093 144Q6093 70 6037 26Q5981 -17 5872 -17Q5848 -17 5815 -14Q5782 -10 5753 -1Q5724 9 5703 26Q5683 44 5683 73Q5683 93 5692 103Q5702 114 5716 114Q5727 114 5739 107Q5751 100 5768 92Q5785 84 5809 77Q5833 70 5868 70Q5881 70 5902 71Q5923 73 5943 80Q5964 87 5978 99Q5993 112 5993 135Q5993 153 5983 165Q5973 178 5956 187Q5939 196 5916 202Q5894 209 5869 216Q5840 224 5810 234Q5781 244 5757 260Q5733 276 5718 300Q5703 325 5703 361Q5703 395 5717 424Q5731 454 5757 476Q5783 498 5819 510Q5856 522 5901 522ZM6788 62Q6786 116 6784 175Q6783 235 6783 313Q6751 312 6715 311Q6679 311 6641 311Q6596 311 6559 311Q6522 311 6493 312Q6492 249 6491 190Q6490 132 6487 63Q6486 39 6482 26Q6479 13 6473 6Q6467 -1 6459 -3Q6452 -4 6442 -4Q6424 -4 6412 8Q6400 21 6398 62Q6396 98 6395 137Q6395 176 6394 221Q6393 266 6393 318Q6393 371 6393 436Q6393 507 6394 557Q6395 608 6399 640Q6404 672 6414 687Q6424 702 6442 702Q6459 702 6472 691Q6485 680 6487 640Q6489 606 6490 578Q6491 551 6492 524Q6493 498 6493 470Q6493 442 6493 408Q6568 411 6640 411Q6675 411 6710 410Q6746 409 6783 407L6783 436Q6783 507 6784 557Q6785 608 6789 640Q6794 672 6804 687Q6814 702 6832 702Q6849 702 6862 691Q6875 680 6877 640Q6879 604 6880 576Q6881 548 6882 520Q6883 493 6883 463Q6883 434 6883 397Q6883 352 6883 311Q6883 270 6882 230Q6881 190 6880 149Q6879 108 6877 63Q6876 39 6872 26Q6869 13 6863 6Q6857 -1 6849 -3Q6842 -4 6832 -4Q6814 -4 6802 8Q6790 21 6788 62ZM7235 507Q7292 507 7337 489Q7382 472 7413 440Q7445 408 7462 362Q7479 316 7479 259Q7479 196 7459 146Q7440 96 7405 61Q7371 26 7323 7Q7276 -12 7220 -12Q7159 -12 7112 9Q7066 30 7034 66Q7003 102 6987 149Q6971 196 6971 248Q6971 305 6989 352Q7008 400 7042 434Q7077 469 7126 488Q7175 507 7235 507ZM7224 80Q7265 80 7294 94Q7323 109 7341 133Q7360 157 7368 187Q7377 218 7377 251Q7377 285 7368 314Q7360 344 7342 366Q7325 388 7297 400Q7270 413 7232 413Q7193 413 7164 400Q7135 387 7115 364Q7096 342 7086 311Q7076 280 7076 244Q7076 171 7113 125Q7151 80 7224 80ZM7656 453Q7658 427 7657 390Q7657 353 7658 312Q7660 272 7665 231Q7670 191 7682 159Q7695 127 7717 107Q7740 87 7776 87Q7812 87 7834 107Q7857 127 7869 159Q7882 191 7887 231Q7892 272 7893 312Q7895 353 7894 390Q7894 427 7896 453Q7900 515 7947 515Q7965 515 7975 505Q7985 495 7989 477Q7994 459 7995 434Q7996 409 7996 378Q7996 314 7989 245Q7983 177 7960 120Q7938 63 7894 26Q7850 -11 7776 -11Q7702 -11 7658 26Q7614 63 7591 120Q7569 177 7562 245Q7556 314 7556 378Q7556 409 7557 434Q7558 459 7562 477Q7567 495 7577 505Q7587 515 7605 515Q7652 515 7656 453ZM8287 522Q8308 522 8340 518Q8372 515 8401 505Q8430 496 8451 479Q8472 462 8472 436Q8472 421 8463 410Q8455 399 8437 399Q8424 399 8407 403Q8391 407 8371 412Q8352 418 8329 422Q8307 426 8282 426Q8240 426 8213 413Q8187 400 8187 372Q8187 356 8196 345Q8206 334 8222 325Q8239 317 8261 311Q8284 305 8309 299Q8340 291 8370 281Q8401 271 8425 253Q8449 236 8464 209Q8479 183 8479 144Q8479 70 8423 26Q8367 -17 8258 -17Q8234 -17 8201 -14Q8168 -10 8139 -1Q8110 9 8089 26Q8069 44 8069 73Q8069 93 8078 103Q8088 114 8102 114Q8113 114 8125 107Q8137 100 8154 92Q8171 84 8195 77Q8219 70 8254 70Q8267 70 8288 71Q8309 73 8329 80Q8350 87 8364 99Q8379 112 8379 135Q8379 153 8369 165Q8359 178 8342 187Q8325 196 8302 202Q8280 209 8255 216Q8226 224 8196 234Q8167 244 8143 260Q8119 276 8104 300Q8089 325 8089 361Q8089 395 8103 424Q8117 454 8143 476Q8169 498 8205 510Q8242 522 8287 522ZM8802 184Q8767 184 8728 189Q8690 195 8645 213Q8654 152 8695 121Q8737 90 8815 90Q8843 90 8865 93Q8888 97 8905 101Q8922 106 8935 109Q8948 113 8959 113Q8973 113 8986 104Q8999 96 8999 76Q8999 51 8978 35Q8958 19 8928 9Q8899 0 8866 -4Q8833 -7 8808 -7Q8749 -7 8699 9Q8650 25 8614 57Q8578 90 8558 138Q8538 186 8538 250Q8538 312 8557 360Q8577 408 8611 441Q8645 474 8691 491Q8738 508 8792 508Q8834 508 8873 497Q8913 486 8943 464Q8974 442 8992 408Q9011 375 9011 330Q9011 290 8996 262Q8981 234 8953 217Q8926 200 8887 192Q8849 184 8802 184ZM8795 416Q8768 416 8743 409Q8718 403 8697 388Q8677 374 8663 350Q8649 327 8644 292Q8682 275 8718 268Q8754 262 8794 262Q8853 262 8881 276Q8910 291 8910 329Q8910 364 8883 390Q8857 416 8795 416ZM9126 110Q9149 110 9168 92Q9188 74 9188 49Q9188 25 9168 7Q9148 -10 9123 -10Q9102 -10 9083 7Q9065 25 9065 51Q9065 75 9083 92Q9102 110 9126 110ZM9276 62Q9274 99 9272 146Q9271 194 9271 251Q9271 322 9272 372Q9273 423 9277 455Q9282 488 9292 503Q9302 519 9320 519Q9337 519 9350 507Q9363 495 9365 455Q9371 350 9371 252Q9371 202 9369 158Q9367 115 9365 63Q9364 39 9360 26Q9357 13 9351 6Q9345 -1 9337 -3Q9330 -4 9320 -4Q9302 -4 9290 8Q9278 21 9276 62ZM9321 700Q9344 700 9363 682Q9383 664 9383 639Q9383 615 9363 597Q9343 580 9318 580Q9297 580 9278 597Q9260 615 9260 641Q9260 665 9278 682Q9297 700 9321 700ZM9730 426Q9693 426 9663 414Q9634 402 9597 378Q9597 357 9597 316Q9597 276 9596 228Q9595 181 9594 135Q9593 89 9590 58Q9588 38 9585 26Q9583 15 9578 9Q9574 3 9566 1Q9559 0 9547 0Q9535 0 9527 1Q9520 3 9515 8Q9510 14 9507 25Q9504 36 9502 55Q9500 73 9498 103Q9497 133 9496 168Q9495 204 9494 240Q9494 277 9494 308Q9494 359 9495 391Q9497 423 9501 448Q9507 490 9517 501Q9527 512 9544 512Q9569 512 9581 498Q9594 484 9597 452Q9634 484 9676 503Q9719 522 9764 522Q9807 522 9842 502Q9878 482 9901 437Q9915 410 9922 377Q9929 345 9932 309Q9933 293 9934 277Q9935 262 9935 244Q9936 227 9936 205Q9936 183 9936 153Q9936 121 9935 93Q9934 65 9929 44Q9925 24 9914 12Q9903 1 9884 1Q9838 1 9836 45Q9836 48 9836 70Q9836 93 9835 123Q9835 153 9834 184Q9834 215 9833 235Q9832 251 9830 269Q9829 288 9826 307Q9824 326 9820 343Q9816 361 9810 375Q9796 408 9775 417Q9754 426 9730 426Z" fill="#143d59" style=""></path></g></g><g transform="matrix(0.75,0,0,0.75,-947.712,924.1601)"><g transform="matrix(1.024,0,0,-1.024,0,0)"><path d="M218 -114Q181 -114 153 -108Q125 -102 104 -79Q84 -56 84 -8Q84 59 124 172Q165 285 231 399Q181 396 152 384Q123 372 114 347Q118 347 122 337Q127 327 127 316Q127 298 111 287Q95 277 71 277Q43 277 26 292Q9 307 9 335Q9 369 35 397Q62 425 109 441Q156 458 213 458Q234 458 265 455Q347 585 438 667Q530 750 613 750Q661 750 692 736L535 0L391 0L468 363Q431 380 400 388Q369 396 334 399Q277 276 240 147Q204 19 204 -58Q204 -96 218 -114ZM477 407L535 679Q492 656 445 593Q399 531 355 442Q427 428 477 407ZM999 -6Q951 -6 918 12Q885 31 869 60Q853 90 853 122Q853 155 868 179Q884 204 906 215Q945 285 974 356Q1003 428 1029 511L1177 531Q1182 403 1194 254Q1199 194 1199 167Q1199 144 1195 129Q1242 156 1267 179L1309 179Q1245 105 1156 54Q1127 23 1084 8Q1042 -6 999 -6ZM967 73Q1004 73 1029 95Q1054 117 1054 166Q1054 196 1048 250Q1038 364 1035 403Q1011 324 954 214Q977 202 977 179Q977 160 964 145Q952 130 933 130Q912 130 906 143Q906 107 920 90Q935 73 967 73ZM1628 -6Q1567 -6 1538 26Q1510 59 1510 107Q1510 128 1515 154Q1520 181 1525 206Q1531 231 1533 238Q1541 273 1548 307Q1555 341 1555 362Q1555 413 1519 413Q1493 413 1473 387Q1453 362 1441 321L1373 0L1229 0L1374 680L1522 700L1468 448Q1518 504 1585 504Q1636 504 1666 476Q1696 448 1696 391Q1696 362 1689 326Q1682 291 1669 240Q1661 209 1654 179Q1648 150 1648 133Q1648 113 1657 102Q1666 91 1688 91Q1718 91 1736 112Q1754 134 1772 179L1814 179Q1777 69 1728 31Q1680 -6 1628 -6ZM1918 -4Q1844 -4 1801 34Q1758 72 1758 154Q1758 222 1786 305Q1814 388 1876 448Q1938 509 2032 509Q2160 509 2160 349L2160 348Q2163 347 2171 347Q2204 347 2247 364Q2290 382 2325 407L2334 380Q2305 349 2258 327Q2212 306 2157 297Q2149 206 2116 138Q2083 70 2031 33Q1979 -4 1918 -4ZM1958 86Q1982 86 2006 113Q2030 141 2048 188Q2066 236 2074 294Q2047 300 2047 336Q2047 377 2078 390Q2076 423 2068 435Q2060 448 2040 448Q2007 448 1976 400Q1945 352 1926 285Q1907 218 1907 167Q1907 119 1918 102Q1929 86 1958 86ZM2120 -250L2287 537L2431 537L2415 462Q2465 505 2532 505Q2588 505 2621 468Q2654 431 2654 347Q2654 268 2631 187Q2608 107 2553 50Q2498 -6 2408 -6Q2344 -6 2323 30L2271 -214L2120 -250ZM2377 81Q2425 81 2456 126Q2488 171 2502 233Q2517 296 2517 350Q2517 433 2467 433Q2449 433 2430 420Q2412 407 2398 384L2339 104Q2347 81 2377 81ZM2806 -250Q2759 -250 2723 -220Q2688 -189 2688 -142Q2688 -99 2710 -71Q2732 -43 2767 -27Q2802 -10 2860 8L2981 579Q3001 675 3051 712Q3102 749 3163 749Q3210 749 3245 718Q3281 688 3281 641Q3281 618 3278 600L3231 600Q3233 622 3233 627Q3233 643 3222 652Q3211 661 3195 661Q3174 661 3154 642Q3134 624 3125 579L3108 500L3181 500L3174 460L3100 460L2985 -80Q2965 -177 2916 -214Q2867 -250 2806 -250ZM2783 -161Q2823 -161 2840 -83L2853 -25Q2800 -43 2771 -67Q2743 -90 2743 -128Q2743 -140 2755 -151Q2767 -161 2783 -161ZM3309 -4Q3235 -4 3192 34Q3149 72 3149 154Q3149 222 3177 305Q3205 388 3267 448Q3329 509 3423 509Q3551 509 3551 349L3551 348Q3554 347 3562 347Q3595 347 3638 364Q3681 382 3716 407L3725 380Q3696 349 3649 327Q3603 306 3548 297Q3540 206 3507 138Q3474 70 3422 33Q3370 -4 3309 -4ZM3349 86Q3373 86 3397 113Q3421 141 3439 188Q3457 236 3465 294Q3438 300 3438 336Q3438 377 3469 390Q3467 423 3459 435Q3451 448 3431 448Q3398 448 3367 400Q3336 352 3317 285Q3298 218 3298 167Q3298 119 3309 102Q3320 86 3349 86ZM3564 0L3670 500L3814 500L3801 438Q3835 468 3862 484Q3890 500 3922 500Q3954 500 3972 478Q3991 456 3991 425Q3991 396 3972 374Q3953 352 3919 352Q3897 352 3889 362Q3882 373 3878 393Q3875 406 3872 412Q3869 418 3861 418Q3840 418 3825 409Q3811 401 3788 380L3708 0L3564 0ZM4371 -250L4434 49Q4383 -6 4315 -6Q4258 -6 4220 33Q4182 72 4182 155Q4182 229 4211 310Q4241 392 4299 448Q4358 505 4439 505Q4480 505 4500 491Q4520 477 4520 454L4520 452L4530 500L4674 500L4522 -214L4371 -250ZM4380 91Q4402 91 4424 110Q4447 129 4458 162L4511 409Q4503 443 4470 443Q4430 443 4398 396Q4366 350 4348 284Q4330 219 4330 169Q4330 119 4344 105Q4359 91 4380 91ZM4780 -6Q4732 -6 4702 24Q4673 54 4673 114Q4673 139 4681 179L4749 500L4893 500L4821 160Q4818 145 4818 132Q4818 91 4848 91Q4876 91 4896 114Q4916 138 4928 179L4996 500L5140 500L5068 160Q5064 145 5064 128Q5064 108 5073 99Q5083 91 5105 91Q5133 91 5153 115Q5174 139 5186 179L5228 179Q5191 71 5136 32Q5082 -6 5027 -6Q4984 -6 4958 18Q4933 42 4928 89Q4894 34 4856 14Q4819 -6 4780 -6ZM5306 -6Q5249 -6 5211 33Q5173 72 5173 155Q5173 229 5202 310Q5232 392 5290 448Q5349 505 5430 505Q5471 505 5491 491Q5511 477 5511 454L5511 447L5522 500L5666 500L5594 160Q5590 145 5590 128Q5590 85 5631 85Q5659 85 5679 111Q5700 137 5712 179L5754 179Q5717 71 5662 32Q5608 -6 5553 -6Q5511 -6 5485 17Q5460 41 5455 86Q5426 45 5390 19Q5355 -6 5306 -6ZM5371 91Q5396 91 5420 114Q5445 138 5454 179L5502 405Q5502 418 5492 430Q5482 443 5461 443Q5421 443 5389 396Q5357 350 5339 284Q5321 219 5321 169Q5321 119 5335 105Q5350 91 5371 91ZM5811 -6Q5763 -6 5733 24Q5704 54 5704 114Q5704 139 5712 179L5819 680L5967 700L5852 160Q5848 145 5848 128Q5848 108 5857 99Q5867 91 5889 91Q5918 91 5943 115Q5968 140 5979 179L6021 179Q5984 71 5926 32Q5868 -6 5811 -6ZM6146 554Q6113 554 6090 577Q6067 600 6067 633Q6067 666 6090 689Q6113 713 6146 713Q6179 713 6202 689Q6226 666 6226 633Q6226 600 6202 577Q6179 554 6146 554ZM6078 -6Q6030 -6 6000 24Q5971 54 5971 114Q5971 139 5979 179L6047 500L6191 500L6119 160Q6115 145 6115 128Q6115 108 6124 99Q6134 91 6156 91Q6185 91 6210 115Q6235 140 6246 179L6288 179Q6251 71 6193 32Q6135 -6 6078 -6ZM6345 -6Q6297 -6 6267 24Q6238 54 6238 114Q6238 139 6246 179L6306 460L6273 460L6281 500L6314 500L6344 638L6492 658L6458 500L6518 500L6510 460L6450 460L6386 160Q6382 145 6382 128Q6382 108 6391 99Q6401 91 6423 91Q6452 91 6477 115Q6502 140 6513 179L6555 179Q6518 71 6460 32Q6402 -6 6345 -6ZM6669 -250Q6621 -250 6589 -225Q6557 -200 6557 -153Q6557 -96 6603 -62Q6649 -27 6720 -4L6732 50Q6703 18 6673 6Q6643 -6 6612 -6Q6564 -6 6534 24Q6505 54 6505 114Q6505 139 6513 179L6581 500L6725 500L6653 160Q6650 148 6650 135Q6650 91 6680 91Q6706 91 6726 113Q6746 136 6758 173L6828 500L6972 500L6873 36Q6921 52 6950 84Q6979 116 6999 179L7041 179Q7014 90 6968 48Q6922 7 6864 -8L6849 -80Q6829 -177 6780 -214Q6731 -250 6669 -250ZM6646 -172Q6663 -172 6679 -149Q6695 -126 6704 -83L6710 -54Q6612 -90 6612 -139Q6612 -152 6621 -162Q6630 -172 6646 -172ZM7592 -6Q7530 -6 7498 23Q7466 53 7466 108Q7466 132 7472 160L7480 199Q7484 216 7484 236Q7484 284 7448 284Q7432 284 7414 275Q7397 266 7374 247L7322 0L7178 0L7323 680L7471 700L7396 348L7589 500L7688 500L7488 361Q7503 365 7521 365Q7575 365 7603 332Q7631 299 7631 248Q7631 227 7627 210L7616 160Q7611 142 7611 128Q7611 91 7650 91Q7680 91 7698 112Q7716 134 7734 179L7776 179Q7714 -6 7592 -6ZM7901 554Q7868 554 7845 577Q7822 600 7822 633Q7822 666 7845 689Q7868 713 7901 713Q7934 713 7957 689Q7981 666 7981 633Q7981 600 7957 577Q7934 554 7901 554ZM7833 -6Q7785 -6 7755 24Q7726 54 7726 114Q7726 139 7734 179L7802 500L7946 500L7874 160Q7870 145 7870 128Q7870 108 7879 99Q7889 91 7911 91Q7940 91 7965 115Q7990 140 8001 179L8043 179Q8006 71 7948 32Q7890 -6 7833 -6ZM8100 -6Q8052 -6 8022 24Q7993 54 7993 114Q7993 139 8001 179L8061 460L8028 460L8036 500L8069 500L8099 638L8247 658L8213 500L8273 500L8265 460L8205 460L8141 160Q8137 145 8137 128Q8137 108 8146 99Q8156 91 8178 91Q8207 91 8232 115Q8257 140 8268 179L8310 179Q8273 71 8215 32Q8157 -6 8100 -6ZM8411 -6Q8337 -6 8296 32Q8255 71 8255 153Q8255 222 8282 305Q8310 388 8370 448Q8431 509 8524 509Q8584 509 8609 483Q8635 457 8635 417Q8635 382 8620 363Q8605 344 8582 344Q8565 344 8547 356Q8559 389 8559 415Q8559 434 8552 445Q8545 456 8531 456Q8501 456 8471 407Q8441 358 8422 288Q8403 218 8403 162Q8403 113 8420 95Q8437 78 8475 78Q8529 78 8567 103Q8606 128 8652 179L8686 179Q8575 -6 8411 -6ZM9013 -6Q8952 -6 8923 26Q8895 59 8895 107Q8895 128 8900 154Q8905 181 8910 206Q8916 231 8918 238Q8926 273 8933 307Q8940 341 8940 362Q8940 413 8904 413Q8878 413 8858 387Q8838 362 8826 321L8758 0L8614 0L8759 680L8907 700L8853 448Q8903 504 8970 504Q9021 504 9051 476Q9081 448 9081 391Q9081 362 9074 326Q9067 291 9054 240Q9046 209 9039 179Q9033 150 9033 133Q9033 113 9042 102Q9051 91 9073 91Q9103 91 9121 112Q9139 134 9157 179L9199 179Q9162 69 9113 31Q9065 -6 9013 -6ZM9300 -6Q9226 -6 9185 32Q9144 71 9144 153Q9144 222 9171 305Q9198 388 9259 448Q9320 509 9414 509Q9524 509 9524 413Q9524 357 9492 310Q9460 263 9407 234Q9354 206 9294 202Q9292 172 9292 162Q9292 113 9309 95Q9326 78 9364 78Q9418 78 9456 103Q9495 128 9541 179L9575 179Q9464 -6 9300 -6ZM9302 250Q9339 252 9372 276Q9406 300 9426 337Q9447 374 9447 415Q9447 456 9422 456Q9386 456 9351 393Q9317 330 9302 250ZM9902 -6Q9841 -6 9812 26Q9784 59 9784 107Q9784 128 9789 154Q9794 181 9799 206Q9805 231 9807 238Q9815 273 9822 307Q9829 341 9829 362Q9829 413 9793 413Q9767 413 9747 387Q9727 362 9715 321L9647 0L9503 0L9609 500L9753 500L9742 448Q9792 504 9859 504Q9910 504 9940 476Q9970 448 9970 391Q9970 362 9963 326Q9956 291 9943 240Q9935 209 9928 179Q9922 150 9922 133Q9922 113 9931 102Q9940 91 9962 91Q9992 91 10010 112Q10028 134 10046 179L10088 179Q10051 69 10002 31Q9954 -6 9902 -6ZM10383 -6Q10326 -6 10288 33Q10250 72 10250 155Q10250 229 10279 310Q10309 392 10367 448Q10426 505 10507 505Q10548 505 10568 491Q10588 477 10588 454L10588 447L10599 500L10743 500L10671 160Q10667 145 10667 128Q10667 85 10708 85Q10736 85 10756 111Q10777 137 10789 179L10831 179Q10794 71 10739 32Q10685 -6 10630 -6Q10588 -6 10562 17Q10537 41 10532 86Q10503 45 10467 19Q10432 -6 10383 -6ZM10448 91Q10473 91 10497 114Q10522 138 10531 179L10579 405Q10579 418 10569 430Q10559 443 10538 443Q10498 443 10466 396Q10434 350 10416 284Q10398 219 10398 169Q10398 119 10412 105Q10427 91 10448 91ZM10698 -250L10865 537L11009 537L10993 462Q11043 505 11110 505Q11166 505 11199 468Q11232 431 11232 347Q11232 268 11209 187Q11186 107 11131 50Q11076 -6 10986 -6Q10922 -6 10901 30L10849 -214L10698 -250ZM10955 81Q11003 81 11034 126Q11066 171 11080 233Q11095 296 11095 350Q11095 433 11045 433Q11027 433 11008 420Q10990 407 10976 384L10917 104Q10925 81 10955 81ZM11166 -250L11333 537L11477 537L11461 462Q11511 505 11578 505Q11634 505 11667 468Q11700 431 11700 347Q11700 268 11677 187Q11654 107 11599 50Q11544 -6 11454 -6Q11390 -6 11369 30L11317 -214L11166 -250ZM11423 81Q11471 81 11502 126Q11534 171 11548 233Q11563 296 11563 350Q11563 433 11513 433Q11495 433 11476 420Q11458 407 11444 384L11385 104Q11393 81 11423 81ZM11824 -6Q11776 -6 11746 24Q11717 54 11717 114Q11717 139 11725 179L11832 680L11980 700L11865 160Q11861 145 11861 128Q11861 108 11870 99Q11880 91 11902 91Q11931 91 11956 115Q11981 140 11992 179L12034 179Q11997 71 11939 32Q11881 -6 11824 -6ZM12159 554Q12126 554 12103 577Q12080 600 12080 633Q12080 666 12103 689Q12126 713 12159 713Q12192 713 12215 689Q12239 666 12239 633Q12239 600 12215 577Q12192 554 12159 554ZM12091 -6Q12043 -6 12013 24Q11984 54 11984 114Q11984 139 11992 179L12060 500L12204 500L12132 160Q12128 145 12128 128Q12128 108 12137 99Q12147 91 12169 91Q12198 91 12223 115Q12248 140 12259 179L12301 179Q12264 71 12206 32Q12148 -6 12091 -6ZM12379 -6Q12322 -6 12284 33Q12246 72 12246 155Q12246 229 12275 310Q12305 392 12363 448Q12422 505 12503 505Q12544 505 12564 491Q12584 477 12584 454L12584 447L12595 500L12739 500L12667 160Q12663 145 12663 128Q12663 85 12704 85Q12732 85 12752 111Q12773 137 12785 179L12827 179Q12790 71 12735 32Q12681 -6 12626 -6Q12584 -6 12558 17Q12533 41 12528 86Q12499 45 12463 19Q12428 -6 12379 -6ZM12444 91Q12469 91 12493 114Q12518 138 12527 179L12575 405Q12575 418 12565 430Q12555 443 12534 443Q12494 443 12462 396Q12430 350 12412 284Q12394 219 12394 169Q12394 119 12408 105Q12423 91 12444 91ZM13146 -6Q13085 -6 13056 26Q13028 59 13028 107Q13028 128 13033 154Q13038 181 13043 206Q13049 231 13051 238Q13059 273 13066 307Q13073 341 13073 362Q13073 413 13037 413Q13011 413 12991 387Q12971 362 12959 321L12891 0L12747 0L12853 500L12997 500L12986 448Q13036 504 13103 504Q13154 504 13184 476Q13214 448 13214 391Q13214 362 13207 326Q13200 291 13187 240Q13179 209 13172 179Q13166 150 13166 133Q13166 113 13175 102Q13184 91 13206 91Q13236 91 13254 112Q13272 134 13290 179L13332 179Q13295 69 13246 31Q13198 -6 13146 -6ZM13433 -6Q13359 -6 13318 32Q13277 71 13277 153Q13277 222 13304 305Q13332 388 13392 448Q13453 509 13546 509Q13606 509 13631 483Q13657 457 13657 417Q13657 382 13642 363Q13627 344 13604 344Q13587 344 13569 356Q13581 389 13581 415Q13581 434 13574 445Q13567 456 13553 456Q13523 456 13493 407Q13463 358 13444 288Q13425 218 13425 162Q13425 113 13442 95Q13459 78 13497 78Q13551 78 13589 103Q13628 128 13674 179L13708 179Q13597 -6 13433 -6ZM13817 -6Q13743 -6 13702 32Q13661 71 13661 153Q13661 222 13688 305Q13715 388 13776 448Q13837 509 13931 509Q14041 509 14041 413Q14041 357 14009 310Q13977 263 13924 234Q13871 206 13811 202Q13809 172 13809 162Q13809 113 13826 95Q13843 78 13881 78Q13935 78 13973 103Q14012 128 14058 179L14092 179Q13981 -6 13817 -6ZM13819 250Q13856 252 13889 276Q13923 300 13943 337Q13964 374 13964 415Q13964 456 13939 456Q13903 456 13868 393Q13834 330 13819 250ZM14172 -6Q14124 -6 14091 12Q14058 31 14042 60Q14026 90 14026 122Q14026 155 14041 179Q14057 204 14079 215Q14118 285 14147 356Q14176 428 14202 511L14350 531Q14355 403 14367 254Q14372 194 14372 167Q14372 144 14368 129Q14415 156 14440 179L14482 179Q14418 105 14329 54Q14300 23 14257 8Q14215 -6 14172 -6ZM14140 73Q14177 73 14202 95Q14227 117 14227 166Q14227 196 14221 250Q14211 364 14208 403Q14184 324 14127 214Q14150 202 14150 179Q14150 160 14137 145Q14125 130 14106 130Q14085 130 14079 143Q14079 107 14093 90Q14108 73 14140 73Z" fill="#143d59" style=""></path></g></g></g></svg>